G75*
%MOIN*%
%OFA0B0*%
%FSLAX25Y25*%
%IPPOS*%
%LPD*%
%AMOC8*
5,1,8,0,0,1.08239X$1,22.5*
%
%ADD10C,0.00500*%
%ADD11C,0.00600*%
%ADD12C,0.01000*%
%ADD13C,0.00060*%
%ADD14C,0.00100*%
%ADD15C,0.02000*%
D10*
X0036737Y0025580D02*
X0025580Y0037343D01*
X0025580Y0045343D01*
X0022060Y0045343D01*
X0022060Y0058257D01*
X0025580Y0058257D01*
X0025580Y0073989D01*
X0030800Y0073989D01*
X0039800Y0065139D01*
X0063375Y0065139D01*
X0070800Y0073989D01*
X0078020Y0073989D01*
X0078020Y0058257D01*
X0081540Y0058257D01*
X0081540Y0045737D01*
X0078020Y0045737D01*
X0078020Y0036737D01*
X0067469Y0025580D01*
X0036737Y0025580D01*
X0036068Y0034137D02*
X0038103Y0034137D01*
X0039120Y0035154D01*
X0041127Y0034137D02*
X0041127Y0040242D01*
X0044180Y0040242D01*
X0045197Y0039224D01*
X0045197Y0037189D01*
X0044180Y0036172D01*
X0041127Y0036172D01*
X0043162Y0036172D02*
X0045197Y0034137D01*
X0047204Y0034137D02*
X0051275Y0034137D01*
X0049239Y0034137D02*
X0049239Y0040242D01*
X0047204Y0038207D01*
X0053282Y0039224D02*
X0054299Y0040242D01*
X0056334Y0040242D01*
X0057352Y0039224D01*
X0057352Y0038207D01*
X0053282Y0034137D01*
X0057352Y0034137D01*
X0059359Y0034137D02*
X0063429Y0038207D01*
X0063429Y0039224D01*
X0062411Y0040242D01*
X0060376Y0040242D01*
X0059359Y0039224D01*
X0059359Y0034137D02*
X0063429Y0034137D01*
X0065436Y0035154D02*
X0069506Y0039224D01*
X0069506Y0035154D01*
X0068489Y0034137D01*
X0066453Y0034137D01*
X0065436Y0035154D01*
X0065436Y0039224D01*
X0066453Y0040242D01*
X0068489Y0040242D01*
X0069506Y0039224D01*
X0068436Y0074105D02*
X0068436Y0080210D01*
X0071489Y0080210D01*
X0072506Y0079193D01*
X0072506Y0077158D01*
X0071489Y0076140D01*
X0068436Y0076140D01*
X0066429Y0074105D02*
X0062359Y0074105D01*
X0062359Y0080210D01*
X0066429Y0080210D01*
X0064394Y0077158D02*
X0062359Y0077158D01*
X0060352Y0080210D02*
X0056282Y0080210D01*
X0058317Y0080210D02*
X0058317Y0074105D01*
X0054275Y0080210D02*
X0050204Y0080210D01*
X0048197Y0078175D02*
X0048197Y0074105D01*
X0048197Y0077158D02*
X0044127Y0077158D01*
X0044127Y0078175D02*
X0044127Y0074105D01*
X0042120Y0075123D02*
X0042120Y0076140D01*
X0041103Y0077158D01*
X0038050Y0077158D01*
X0038050Y0080210D02*
X0038050Y0074105D01*
X0041103Y0074105D01*
X0042120Y0075123D01*
X0041103Y0077158D02*
X0042120Y0078175D01*
X0042120Y0079193D01*
X0041103Y0080210D01*
X0038050Y0080210D01*
X0044127Y0078175D02*
X0046162Y0080210D01*
X0048197Y0078175D01*
X0052239Y0080210D02*
X0052239Y0074105D01*
X0070471Y0076140D02*
X0072506Y0074105D01*
X0076548Y0077158D02*
X0074513Y0079193D01*
X0074513Y0080210D01*
X0076548Y0077158D02*
X0076548Y0074105D01*
X0076548Y0077158D02*
X0078583Y0079193D01*
X0078583Y0080210D01*
X0083050Y0101050D02*
X0086053Y0104053D01*
X0086053Y0104803D01*
X0085302Y0105554D01*
X0083801Y0105554D01*
X0083050Y0104803D01*
X0083050Y0101050D02*
X0086053Y0101050D01*
X0087654Y0101050D02*
X0090656Y0104053D01*
X0090656Y0104803D01*
X0089906Y0105554D01*
X0088405Y0105554D01*
X0087654Y0104803D01*
X0087654Y0101050D02*
X0090656Y0101050D01*
X0092258Y0101801D02*
X0093008Y0101050D01*
X0095260Y0101050D01*
X0095260Y0104053D01*
X0096862Y0103302D02*
X0098363Y0103302D01*
X0096862Y0101050D02*
X0096862Y0105554D01*
X0099864Y0105554D01*
X0096446Y0113050D02*
X0096446Y0117554D01*
X0099449Y0117554D01*
X0097947Y0115302D02*
X0096446Y0115302D01*
X0094845Y0116053D02*
X0094845Y0113050D01*
X0092593Y0113050D01*
X0091842Y0113801D01*
X0091842Y0116053D01*
X0090241Y0113050D02*
X0087238Y0113050D01*
X0088739Y0113050D02*
X0088739Y0117554D01*
X0087238Y0116053D01*
X0085637Y0116803D02*
X0082634Y0113801D01*
X0083385Y0113050D01*
X0084886Y0113050D01*
X0085637Y0113801D01*
X0085637Y0116803D01*
X0084886Y0117554D01*
X0083385Y0117554D01*
X0082634Y0116803D01*
X0082634Y0113801D01*
X0081083Y0113801D02*
X0081083Y0113050D01*
X0080332Y0113050D01*
X0080332Y0113801D01*
X0081083Y0113801D01*
X0078731Y0113801D02*
X0078731Y0116803D01*
X0075728Y0113801D01*
X0076479Y0113050D01*
X0077980Y0113050D01*
X0078731Y0113801D01*
X0078731Y0116803D02*
X0077980Y0117554D01*
X0076479Y0117554D01*
X0075728Y0116803D01*
X0075728Y0113801D01*
X0059072Y0114550D02*
X0059072Y0119054D01*
X0056070Y0119054D02*
X0056070Y0114550D01*
X0054468Y0115301D02*
X0053718Y0114550D01*
X0052216Y0114550D01*
X0051466Y0115301D01*
X0051466Y0116802D02*
X0052967Y0117553D01*
X0053718Y0117553D01*
X0054468Y0116802D01*
X0054468Y0115301D01*
X0051466Y0116802D02*
X0051466Y0119054D01*
X0054468Y0119054D01*
X0056070Y0119054D02*
X0059072Y0114550D01*
X0049864Y0115301D02*
X0049114Y0114550D01*
X0047612Y0114550D01*
X0046862Y0115301D01*
X0046862Y0116802D02*
X0048363Y0117553D01*
X0049114Y0117553D01*
X0049864Y0116802D01*
X0049864Y0115301D01*
X0046862Y0116802D02*
X0046862Y0119054D01*
X0049864Y0119054D01*
X0045260Y0119054D02*
X0042258Y0119054D01*
X0042258Y0116802D01*
X0043759Y0117553D01*
X0044510Y0117553D01*
X0045260Y0116802D01*
X0045260Y0115301D01*
X0044510Y0114550D01*
X0043008Y0114550D01*
X0042258Y0115301D01*
X0040656Y0114550D02*
X0040656Y0119054D01*
X0039155Y0117553D01*
X0037654Y0119054D01*
X0037654Y0114550D01*
X0036053Y0114550D02*
X0033050Y0114550D01*
X0033050Y0119054D01*
X0025550Y0116226D02*
X0025550Y0113223D01*
X0025550Y0114724D02*
X0021046Y0114724D01*
X0022547Y0113223D01*
X0021797Y0111622D02*
X0021046Y0110871D01*
X0021046Y0109370D01*
X0021797Y0108619D01*
X0024799Y0108619D01*
X0025550Y0109370D01*
X0025550Y0110871D01*
X0024799Y0111622D01*
X0025550Y0107051D02*
X0025550Y0105550D01*
X0025550Y0106301D02*
X0021046Y0106301D01*
X0021046Y0107051D02*
X0021046Y0105550D01*
X0018050Y0164550D02*
X0015047Y0164550D01*
X0015047Y0166051D02*
X0015047Y0166802D01*
X0015047Y0166051D02*
X0016549Y0164550D01*
X0016549Y0168387D02*
X0016549Y0171389D01*
X0015798Y0171389D01*
X0015047Y0170639D01*
X0015047Y0169137D01*
X0015798Y0168387D01*
X0017299Y0168387D01*
X0018050Y0169137D01*
X0018050Y0170639D01*
X0017299Y0172991D02*
X0015798Y0172991D01*
X0015047Y0173741D01*
X0015047Y0175993D01*
X0013546Y0175993D02*
X0018050Y0175993D01*
X0018050Y0173741D01*
X0017299Y0172991D01*
X0021600Y0173600D02*
X0024500Y0173600D01*
X0023000Y0175100D02*
X0023000Y0172000D01*
X0023758Y0178550D02*
X0026010Y0178550D01*
X0026760Y0179301D01*
X0026760Y0182303D01*
X0026010Y0183054D01*
X0023758Y0183054D01*
X0023758Y0178550D01*
X0022156Y0178550D02*
X0019154Y0178550D01*
X0019154Y0183054D01*
X0022156Y0183054D01*
X0020655Y0180802D02*
X0019154Y0180802D01*
X0017553Y0178550D02*
X0014550Y0178550D01*
X0014550Y0183054D01*
X0028362Y0181553D02*
X0029863Y0183054D01*
X0029863Y0178550D01*
X0028362Y0178550D02*
X0031364Y0178550D01*
X0092258Y0104053D02*
X0092258Y0101801D01*
X0096046Y0094155D02*
X0100550Y0094155D01*
X0100550Y0092654D02*
X0100550Y0095656D01*
X0099799Y0091053D02*
X0100550Y0090302D01*
X0100550Y0088801D01*
X0099799Y0088050D01*
X0096797Y0088050D01*
X0096046Y0088801D01*
X0096046Y0090302D01*
X0096797Y0091053D01*
X0097547Y0092654D02*
X0096046Y0094155D01*
X0103797Y0121842D02*
X0106799Y0121842D01*
X0107550Y0122593D01*
X0107550Y0124094D01*
X0106799Y0124845D01*
X0107550Y0126446D02*
X0104547Y0129449D01*
X0103797Y0129449D01*
X0103046Y0128698D01*
X0103046Y0127197D01*
X0103797Y0126446D01*
X0103797Y0124845D02*
X0103046Y0124094D01*
X0103046Y0122593D01*
X0103797Y0121842D01*
X0107550Y0126446D02*
X0107550Y0129449D01*
X0120798Y0159550D02*
X0120047Y0160301D01*
X0120047Y0162553D01*
X0123801Y0162553D01*
X0124551Y0161802D01*
X0124551Y0161051D01*
X0123050Y0160301D02*
X0123050Y0162553D01*
X0123050Y0164154D02*
X0120047Y0164154D01*
X0120047Y0165655D02*
X0120047Y0166406D01*
X0120047Y0165655D02*
X0121549Y0164154D01*
X0121549Y0167991D02*
X0121549Y0170993D01*
X0120798Y0170993D01*
X0120047Y0170242D01*
X0120047Y0168741D01*
X0120798Y0167991D01*
X0122299Y0167991D01*
X0123050Y0168741D01*
X0123050Y0170242D01*
X0122299Y0172594D02*
X0120798Y0172594D01*
X0120047Y0173345D01*
X0120047Y0174846D01*
X0120798Y0175597D01*
X0121549Y0175597D01*
X0121549Y0172594D01*
X0122299Y0172594D02*
X0123050Y0173345D01*
X0123050Y0174846D01*
X0123050Y0177198D02*
X0120047Y0177198D01*
X0120047Y0179450D01*
X0120798Y0180201D01*
X0123050Y0180201D01*
X0111364Y0181553D02*
X0111364Y0182303D01*
X0110614Y0183054D01*
X0109112Y0183054D01*
X0108362Y0182303D01*
X0106760Y0182303D02*
X0106760Y0179301D01*
X0106010Y0178550D01*
X0103758Y0178550D01*
X0103758Y0183054D01*
X0106010Y0183054D01*
X0106760Y0182303D01*
X0108362Y0178550D02*
X0111364Y0181553D01*
X0111364Y0178550D02*
X0108362Y0178550D01*
X0102156Y0178550D02*
X0099154Y0178550D01*
X0099154Y0183054D01*
X0102156Y0183054D01*
X0100655Y0180802D02*
X0099154Y0180802D01*
X0097553Y0178550D02*
X0094550Y0178550D01*
X0094550Y0183054D01*
X0098000Y0175100D02*
X0098000Y0172000D01*
X0096600Y0173600D02*
X0099500Y0173600D01*
X0120798Y0159550D02*
X0122299Y0159550D01*
X0123050Y0160301D01*
X0038103Y0040242D02*
X0036068Y0040242D01*
X0035050Y0039224D01*
X0035050Y0035154D01*
X0036068Y0034137D01*
X0039120Y0039224D02*
X0038103Y0040242D01*
D11*
X0072300Y0087800D02*
X0072300Y0095800D01*
X0072302Y0095860D01*
X0072307Y0095921D01*
X0072316Y0095980D01*
X0072329Y0096039D01*
X0072345Y0096098D01*
X0072365Y0096155D01*
X0072388Y0096210D01*
X0072415Y0096265D01*
X0072444Y0096317D01*
X0072477Y0096368D01*
X0072513Y0096417D01*
X0072551Y0096463D01*
X0072593Y0096507D01*
X0072637Y0096549D01*
X0072683Y0096587D01*
X0072732Y0096623D01*
X0072783Y0096656D01*
X0072835Y0096685D01*
X0072890Y0096712D01*
X0072945Y0096735D01*
X0073002Y0096755D01*
X0073061Y0096771D01*
X0073120Y0096784D01*
X0073179Y0096793D01*
X0073240Y0096798D01*
X0073300Y0096800D01*
X0090300Y0096800D01*
X0090360Y0096798D01*
X0090421Y0096793D01*
X0090480Y0096784D01*
X0090539Y0096771D01*
X0090598Y0096755D01*
X0090655Y0096735D01*
X0090710Y0096712D01*
X0090765Y0096685D01*
X0090817Y0096656D01*
X0090868Y0096623D01*
X0090917Y0096587D01*
X0090963Y0096549D01*
X0091007Y0096507D01*
X0091049Y0096463D01*
X0091087Y0096417D01*
X0091123Y0096368D01*
X0091156Y0096317D01*
X0091185Y0096265D01*
X0091212Y0096210D01*
X0091235Y0096155D01*
X0091255Y0096098D01*
X0091271Y0096039D01*
X0091284Y0095980D01*
X0091293Y0095921D01*
X0091298Y0095860D01*
X0091300Y0095800D01*
X0091300Y0087800D01*
X0091298Y0087740D01*
X0091293Y0087679D01*
X0091284Y0087620D01*
X0091271Y0087561D01*
X0091255Y0087502D01*
X0091235Y0087445D01*
X0091212Y0087390D01*
X0091185Y0087335D01*
X0091156Y0087283D01*
X0091123Y0087232D01*
X0091087Y0087183D01*
X0091049Y0087137D01*
X0091007Y0087093D01*
X0090963Y0087051D01*
X0090917Y0087013D01*
X0090868Y0086977D01*
X0090817Y0086944D01*
X0090765Y0086915D01*
X0090710Y0086888D01*
X0090655Y0086865D01*
X0090598Y0086845D01*
X0090539Y0086829D01*
X0090480Y0086816D01*
X0090421Y0086807D01*
X0090360Y0086802D01*
X0090300Y0086800D01*
X0073300Y0086800D01*
X0073240Y0086802D01*
X0073179Y0086807D01*
X0073120Y0086816D01*
X0073061Y0086829D01*
X0073002Y0086845D01*
X0072945Y0086865D01*
X0072890Y0086888D01*
X0072835Y0086915D01*
X0072783Y0086944D01*
X0072732Y0086977D01*
X0072683Y0087013D01*
X0072637Y0087051D01*
X0072593Y0087093D01*
X0072551Y0087137D01*
X0072513Y0087183D01*
X0072477Y0087232D01*
X0072444Y0087283D01*
X0072415Y0087335D01*
X0072388Y0087390D01*
X0072365Y0087445D01*
X0072345Y0087502D01*
X0072329Y0087561D01*
X0072316Y0087620D01*
X0072307Y0087679D01*
X0072302Y0087740D01*
X0072300Y0087800D01*
X0080300Y0091800D02*
X0080800Y0091800D01*
X0082800Y0091800D02*
X0083300Y0091800D01*
X0066800Y0105300D02*
X0066800Y0128300D01*
X0026800Y0128300D01*
X0026800Y0120800D01*
X0026926Y0120798D01*
X0027051Y0120792D01*
X0027176Y0120782D01*
X0027301Y0120768D01*
X0027426Y0120751D01*
X0027550Y0120729D01*
X0027673Y0120704D01*
X0027795Y0120674D01*
X0027916Y0120641D01*
X0028036Y0120604D01*
X0028155Y0120564D01*
X0028272Y0120519D01*
X0028389Y0120471D01*
X0028503Y0120419D01*
X0028616Y0120364D01*
X0028727Y0120305D01*
X0028836Y0120243D01*
X0028943Y0120177D01*
X0029048Y0120108D01*
X0029151Y0120036D01*
X0029252Y0119961D01*
X0029350Y0119882D01*
X0029445Y0119800D01*
X0029538Y0119716D01*
X0029628Y0119628D01*
X0029716Y0119538D01*
X0029800Y0119445D01*
X0029882Y0119350D01*
X0029961Y0119252D01*
X0030036Y0119151D01*
X0030108Y0119048D01*
X0030177Y0118943D01*
X0030243Y0118836D01*
X0030305Y0118727D01*
X0030364Y0118616D01*
X0030419Y0118503D01*
X0030471Y0118389D01*
X0030519Y0118272D01*
X0030564Y0118155D01*
X0030604Y0118036D01*
X0030641Y0117916D01*
X0030674Y0117795D01*
X0030704Y0117673D01*
X0030729Y0117550D01*
X0030751Y0117426D01*
X0030768Y0117301D01*
X0030782Y0117176D01*
X0030792Y0117051D01*
X0030798Y0116926D01*
X0030800Y0116800D01*
X0030798Y0116674D01*
X0030792Y0116549D01*
X0030782Y0116424D01*
X0030768Y0116299D01*
X0030751Y0116174D01*
X0030729Y0116050D01*
X0030704Y0115927D01*
X0030674Y0115805D01*
X0030641Y0115684D01*
X0030604Y0115564D01*
X0030564Y0115445D01*
X0030519Y0115328D01*
X0030471Y0115211D01*
X0030419Y0115097D01*
X0030364Y0114984D01*
X0030305Y0114873D01*
X0030243Y0114764D01*
X0030177Y0114657D01*
X0030108Y0114552D01*
X0030036Y0114449D01*
X0029961Y0114348D01*
X0029882Y0114250D01*
X0029800Y0114155D01*
X0029716Y0114062D01*
X0029628Y0113972D01*
X0029538Y0113884D01*
X0029445Y0113800D01*
X0029350Y0113718D01*
X0029252Y0113639D01*
X0029151Y0113564D01*
X0029048Y0113492D01*
X0028943Y0113423D01*
X0028836Y0113357D01*
X0028727Y0113295D01*
X0028616Y0113236D01*
X0028503Y0113181D01*
X0028389Y0113129D01*
X0028272Y0113081D01*
X0028155Y0113036D01*
X0028036Y0112996D01*
X0027916Y0112959D01*
X0027795Y0112926D01*
X0027673Y0112896D01*
X0027550Y0112871D01*
X0027426Y0112849D01*
X0027301Y0112832D01*
X0027176Y0112818D01*
X0027051Y0112808D01*
X0026926Y0112802D01*
X0026800Y0112800D01*
X0026800Y0105300D01*
X0066800Y0105300D01*
X0082300Y0122800D02*
X0082300Y0130800D01*
X0082302Y0130860D01*
X0082307Y0130921D01*
X0082316Y0130980D01*
X0082329Y0131039D01*
X0082345Y0131098D01*
X0082365Y0131155D01*
X0082388Y0131210D01*
X0082415Y0131265D01*
X0082444Y0131317D01*
X0082477Y0131368D01*
X0082513Y0131417D01*
X0082551Y0131463D01*
X0082593Y0131507D01*
X0082637Y0131549D01*
X0082683Y0131587D01*
X0082732Y0131623D01*
X0082783Y0131656D01*
X0082835Y0131685D01*
X0082890Y0131712D01*
X0082945Y0131735D01*
X0083002Y0131755D01*
X0083061Y0131771D01*
X0083120Y0131784D01*
X0083179Y0131793D01*
X0083240Y0131798D01*
X0083300Y0131800D01*
X0100300Y0131800D01*
X0100360Y0131798D01*
X0100421Y0131793D01*
X0100480Y0131784D01*
X0100539Y0131771D01*
X0100598Y0131755D01*
X0100655Y0131735D01*
X0100710Y0131712D01*
X0100765Y0131685D01*
X0100817Y0131656D01*
X0100868Y0131623D01*
X0100917Y0131587D01*
X0100963Y0131549D01*
X0101007Y0131507D01*
X0101049Y0131463D01*
X0101087Y0131417D01*
X0101123Y0131368D01*
X0101156Y0131317D01*
X0101185Y0131265D01*
X0101212Y0131210D01*
X0101235Y0131155D01*
X0101255Y0131098D01*
X0101271Y0131039D01*
X0101284Y0130980D01*
X0101293Y0130921D01*
X0101298Y0130860D01*
X0101300Y0130800D01*
X0101300Y0122800D01*
X0101298Y0122740D01*
X0101293Y0122679D01*
X0101284Y0122620D01*
X0101271Y0122561D01*
X0101255Y0122502D01*
X0101235Y0122445D01*
X0101212Y0122390D01*
X0101185Y0122335D01*
X0101156Y0122283D01*
X0101123Y0122232D01*
X0101087Y0122183D01*
X0101049Y0122137D01*
X0101007Y0122093D01*
X0100963Y0122051D01*
X0100917Y0122013D01*
X0100868Y0121977D01*
X0100817Y0121944D01*
X0100765Y0121915D01*
X0100710Y0121888D01*
X0100655Y0121865D01*
X0100598Y0121845D01*
X0100539Y0121829D01*
X0100480Y0121816D01*
X0100421Y0121807D01*
X0100360Y0121802D01*
X0100300Y0121800D01*
X0083300Y0121800D01*
X0083240Y0121802D01*
X0083179Y0121807D01*
X0083120Y0121816D01*
X0083061Y0121829D01*
X0083002Y0121845D01*
X0082945Y0121865D01*
X0082890Y0121888D01*
X0082835Y0121915D01*
X0082783Y0121944D01*
X0082732Y0121977D01*
X0082683Y0122013D01*
X0082637Y0122051D01*
X0082593Y0122093D01*
X0082551Y0122137D01*
X0082513Y0122183D01*
X0082477Y0122232D01*
X0082444Y0122283D01*
X0082415Y0122335D01*
X0082388Y0122390D01*
X0082365Y0122445D01*
X0082345Y0122502D01*
X0082329Y0122561D01*
X0082316Y0122620D01*
X0082307Y0122679D01*
X0082302Y0122740D01*
X0082300Y0122800D01*
X0090300Y0126800D02*
X0090800Y0126800D01*
X0092800Y0126800D02*
X0093300Y0126800D01*
X0098700Y0138000D02*
X0101636Y0138000D01*
X0100168Y0138000D02*
X0100168Y0142404D01*
X0098700Y0140936D01*
X0096900Y0143700D02*
X0092496Y0143700D01*
X0092496Y0145902D01*
X0093230Y0146636D01*
X0094698Y0146636D01*
X0095432Y0145902D01*
X0095432Y0143700D01*
X0095432Y0145168D02*
X0096900Y0146636D01*
X0096900Y0150506D02*
X0092496Y0150506D01*
X0094698Y0148304D01*
X0094698Y0151240D01*
X0104038Y0142404D02*
X0103304Y0141670D01*
X0103304Y0138734D01*
X0106240Y0141670D01*
X0106240Y0138734D01*
X0105506Y0138000D01*
X0104038Y0138000D01*
X0103304Y0138734D01*
X0104038Y0142404D02*
X0105506Y0142404D01*
X0106240Y0141670D01*
X0107908Y0141670D02*
X0107908Y0138734D01*
X0110844Y0141670D01*
X0110844Y0138734D01*
X0110110Y0138000D01*
X0108642Y0138000D01*
X0107908Y0138734D01*
X0107908Y0141670D02*
X0108642Y0142404D01*
X0110110Y0142404D01*
X0110844Y0141670D01*
X0070448Y0142404D02*
X0067512Y0139468D01*
X0068246Y0140202D02*
X0070448Y0138000D01*
X0067512Y0138000D02*
X0067512Y0142404D01*
X0065844Y0141670D02*
X0065844Y0138734D01*
X0065110Y0138000D01*
X0063642Y0138000D01*
X0062908Y0138734D01*
X0065844Y0141670D01*
X0065110Y0142404D01*
X0063642Y0142404D01*
X0062908Y0141670D01*
X0062908Y0138734D01*
X0061240Y0138734D02*
X0060506Y0138000D01*
X0059038Y0138000D01*
X0058304Y0138734D01*
X0061240Y0141670D01*
X0061240Y0138734D01*
X0061240Y0141670D02*
X0060506Y0142404D01*
X0059038Y0142404D01*
X0058304Y0141670D01*
X0058304Y0138734D01*
X0056636Y0138000D02*
X0053700Y0138000D01*
X0055168Y0138000D02*
X0055168Y0142404D01*
X0053700Y0140936D01*
X0053700Y0151700D02*
X0053700Y0156104D01*
X0055902Y0156104D01*
X0056636Y0155370D01*
X0056636Y0153902D01*
X0055902Y0153168D01*
X0053700Y0153168D01*
X0055168Y0153168D02*
X0056636Y0151700D01*
X0058304Y0151700D02*
X0061240Y0154636D01*
X0061240Y0155370D01*
X0060506Y0156104D01*
X0059038Y0156104D01*
X0058304Y0155370D01*
X0058304Y0151700D02*
X0061240Y0151700D01*
X0046900Y0173700D02*
X0042496Y0173700D01*
X0042496Y0175902D01*
X0043230Y0176636D01*
X0044698Y0176636D01*
X0045432Y0175902D01*
X0045432Y0173700D01*
X0045432Y0175168D02*
X0046900Y0176636D01*
X0046166Y0178304D02*
X0046900Y0179038D01*
X0046900Y0180506D01*
X0046166Y0181240D01*
X0045432Y0181240D01*
X0044698Y0180506D01*
X0044698Y0179772D01*
X0044698Y0180506D02*
X0043964Y0181240D01*
X0043230Y0181240D01*
X0042496Y0180506D01*
X0042496Y0179038D01*
X0043230Y0178304D01*
X0058700Y0183000D02*
X0061636Y0183000D01*
X0060168Y0183000D02*
X0060168Y0187404D01*
X0058700Y0185936D01*
X0063304Y0186670D02*
X0063304Y0183734D01*
X0066240Y0186670D01*
X0066240Y0183734D01*
X0065506Y0183000D01*
X0064038Y0183000D01*
X0063304Y0183734D01*
X0063304Y0186670D02*
X0064038Y0187404D01*
X0065506Y0187404D01*
X0066240Y0186670D01*
X0067908Y0186670D02*
X0067908Y0183734D01*
X0070844Y0186670D01*
X0070844Y0183734D01*
X0070110Y0183000D01*
X0068642Y0183000D01*
X0067908Y0183734D01*
X0067908Y0186670D02*
X0068642Y0187404D01*
X0070110Y0187404D01*
X0070844Y0186670D01*
X0021240Y0151700D02*
X0018304Y0151700D01*
X0019772Y0151700D02*
X0019772Y0156104D01*
X0018304Y0154636D01*
X0016636Y0155370D02*
X0016636Y0153902D01*
X0015902Y0153168D01*
X0013700Y0153168D01*
X0015168Y0153168D02*
X0016636Y0151700D01*
X0013700Y0151700D02*
X0013700Y0156104D01*
X0015902Y0156104D01*
X0016636Y0155370D01*
X0015168Y0142404D02*
X0013700Y0140936D01*
X0015168Y0142404D02*
X0015168Y0138000D01*
X0013700Y0138000D02*
X0016636Y0138000D01*
X0018304Y0138000D02*
X0018304Y0142404D01*
X0019038Y0140202D02*
X0021240Y0138000D01*
X0018304Y0139468D02*
X0021240Y0142404D01*
D12*
X0080800Y0094800D02*
X0080800Y0091800D01*
X0080800Y0088800D01*
X0082800Y0088800D02*
X0082800Y0091800D01*
X0082800Y0094800D01*
X0090800Y0123800D02*
X0090800Y0126800D01*
X0090800Y0129800D01*
X0092800Y0129800D02*
X0092800Y0126800D01*
X0092800Y0123800D01*
D13*
X0111884Y0170468D02*
X0111445Y0170154D01*
X0111445Y0170155D02*
X0111356Y0170275D01*
X0111264Y0170393D01*
X0111168Y0170508D01*
X0111070Y0170621D01*
X0110969Y0170731D01*
X0110865Y0170839D01*
X0110758Y0170943D01*
X0110648Y0171045D01*
X0110536Y0171144D01*
X0110422Y0171240D01*
X0110304Y0171333D01*
X0110185Y0171423D01*
X0110063Y0171510D01*
X0109939Y0171594D01*
X0109813Y0171674D01*
X0109684Y0171751D01*
X0109554Y0171825D01*
X0109422Y0171895D01*
X0109288Y0171962D01*
X0109152Y0172025D01*
X0109015Y0172084D01*
X0108877Y0172141D01*
X0108736Y0172193D01*
X0108595Y0172242D01*
X0108452Y0172287D01*
X0108308Y0172328D01*
X0108164Y0172365D01*
X0108018Y0172399D01*
X0107871Y0172429D01*
X0107724Y0172455D01*
X0107576Y0172477D01*
X0107427Y0172496D01*
X0107278Y0172510D01*
X0107129Y0172521D01*
X0106980Y0172527D01*
X0106830Y0172530D01*
X0106830Y0173069D01*
X0106830Y0173070D01*
X0106985Y0173067D01*
X0107140Y0173061D01*
X0107295Y0173050D01*
X0107450Y0173036D01*
X0107604Y0173018D01*
X0107758Y0172996D01*
X0107911Y0172971D01*
X0108063Y0172941D01*
X0108215Y0172908D01*
X0108366Y0172871D01*
X0108516Y0172831D01*
X0108665Y0172786D01*
X0108812Y0172738D01*
X0108959Y0172687D01*
X0109104Y0172631D01*
X0109247Y0172573D01*
X0109390Y0172510D01*
X0109530Y0172444D01*
X0109669Y0172375D01*
X0109806Y0172302D01*
X0109942Y0172226D01*
X0110075Y0172147D01*
X0110206Y0172064D01*
X0110336Y0171978D01*
X0110463Y0171889D01*
X0110588Y0171797D01*
X0110710Y0171701D01*
X0110830Y0171603D01*
X0110948Y0171502D01*
X0111063Y0171398D01*
X0111176Y0171291D01*
X0111286Y0171181D01*
X0111393Y0171069D01*
X0111497Y0170954D01*
X0111598Y0170836D01*
X0111697Y0170716D01*
X0111792Y0170593D01*
X0111885Y0170469D01*
X0111839Y0170436D01*
X0111747Y0170560D01*
X0111653Y0170681D01*
X0111555Y0170800D01*
X0111455Y0170917D01*
X0111351Y0171031D01*
X0111245Y0171142D01*
X0111137Y0171251D01*
X0111025Y0171357D01*
X0110911Y0171460D01*
X0110794Y0171560D01*
X0110675Y0171658D01*
X0110554Y0171752D01*
X0110430Y0171844D01*
X0110304Y0171932D01*
X0110176Y0172017D01*
X0110046Y0172099D01*
X0109914Y0172178D01*
X0109779Y0172253D01*
X0109643Y0172325D01*
X0109506Y0172394D01*
X0109367Y0172459D01*
X0109226Y0172521D01*
X0109083Y0172579D01*
X0108939Y0172634D01*
X0108794Y0172685D01*
X0108648Y0172733D01*
X0108501Y0172777D01*
X0108352Y0172817D01*
X0108203Y0172854D01*
X0108052Y0172886D01*
X0107901Y0172916D01*
X0107750Y0172941D01*
X0107597Y0172963D01*
X0107444Y0172980D01*
X0107291Y0172995D01*
X0107138Y0173005D01*
X0106984Y0173011D01*
X0106830Y0173014D01*
X0106830Y0172958D01*
X0106987Y0172955D01*
X0107143Y0172948D01*
X0107299Y0172938D01*
X0107455Y0172923D01*
X0107611Y0172904D01*
X0107766Y0172882D01*
X0107920Y0172855D01*
X0108074Y0172825D01*
X0108226Y0172791D01*
X0108378Y0172752D01*
X0108529Y0172710D01*
X0108679Y0172664D01*
X0108827Y0172615D01*
X0108974Y0172561D01*
X0109120Y0172504D01*
X0109264Y0172443D01*
X0109407Y0172379D01*
X0109548Y0172311D01*
X0109687Y0172239D01*
X0109825Y0172164D01*
X0109960Y0172085D01*
X0110093Y0172003D01*
X0110225Y0171918D01*
X0110354Y0171829D01*
X0110480Y0171737D01*
X0110605Y0171642D01*
X0110727Y0171544D01*
X0110846Y0171442D01*
X0110963Y0171338D01*
X0111077Y0171231D01*
X0111188Y0171121D01*
X0111296Y0171008D01*
X0111402Y0170892D01*
X0111504Y0170774D01*
X0111604Y0170653D01*
X0111700Y0170529D01*
X0111793Y0170404D01*
X0111748Y0170371D01*
X0111656Y0170496D01*
X0111560Y0170618D01*
X0111461Y0170738D01*
X0111360Y0170855D01*
X0111255Y0170970D01*
X0111148Y0171081D01*
X0111038Y0171191D01*
X0110925Y0171297D01*
X0110809Y0171400D01*
X0110691Y0171501D01*
X0110570Y0171598D01*
X0110447Y0171692D01*
X0110321Y0171784D01*
X0110193Y0171871D01*
X0110063Y0171956D01*
X0109931Y0172037D01*
X0109797Y0172115D01*
X0109661Y0172190D01*
X0109523Y0172261D01*
X0109383Y0172328D01*
X0109242Y0172392D01*
X0109099Y0172452D01*
X0108955Y0172509D01*
X0108809Y0172562D01*
X0108662Y0172611D01*
X0108513Y0172657D01*
X0108364Y0172698D01*
X0108213Y0172736D01*
X0108062Y0172770D01*
X0107910Y0172800D01*
X0107757Y0172826D01*
X0107603Y0172849D01*
X0107449Y0172867D01*
X0107295Y0172882D01*
X0107140Y0172893D01*
X0106985Y0172899D01*
X0106830Y0172902D01*
X0106830Y0172846D01*
X0106984Y0172843D01*
X0107137Y0172837D01*
X0107291Y0172826D01*
X0107444Y0172812D01*
X0107596Y0172793D01*
X0107748Y0172771D01*
X0107900Y0172745D01*
X0108051Y0172715D01*
X0108201Y0172682D01*
X0108350Y0172644D01*
X0108498Y0172603D01*
X0108645Y0172558D01*
X0108790Y0172509D01*
X0108935Y0172457D01*
X0109078Y0172400D01*
X0109220Y0172341D01*
X0109360Y0172277D01*
X0109498Y0172211D01*
X0109635Y0172140D01*
X0109770Y0172066D01*
X0109902Y0171989D01*
X0110033Y0171909D01*
X0110162Y0171825D01*
X0110289Y0171738D01*
X0110413Y0171648D01*
X0110535Y0171554D01*
X0110655Y0171458D01*
X0110772Y0171358D01*
X0110887Y0171256D01*
X0110999Y0171150D01*
X0111108Y0171042D01*
X0111214Y0170931D01*
X0111318Y0170818D01*
X0111419Y0170702D01*
X0111516Y0170583D01*
X0111611Y0170462D01*
X0111702Y0170339D01*
X0111657Y0170306D01*
X0111566Y0170428D01*
X0111472Y0170548D01*
X0111376Y0170666D01*
X0111276Y0170781D01*
X0111173Y0170893D01*
X0111068Y0171003D01*
X0110960Y0171110D01*
X0110849Y0171215D01*
X0110735Y0171316D01*
X0110619Y0171415D01*
X0110501Y0171510D01*
X0110380Y0171603D01*
X0110256Y0171692D01*
X0110131Y0171778D01*
X0110003Y0171861D01*
X0109874Y0171941D01*
X0109742Y0172018D01*
X0109608Y0172091D01*
X0109473Y0172160D01*
X0109336Y0172227D01*
X0109197Y0172289D01*
X0109057Y0172349D01*
X0108915Y0172404D01*
X0108772Y0172456D01*
X0108628Y0172504D01*
X0108482Y0172549D01*
X0108335Y0172590D01*
X0108188Y0172627D01*
X0108039Y0172660D01*
X0107890Y0172690D01*
X0107740Y0172716D01*
X0107589Y0172738D01*
X0107438Y0172756D01*
X0107286Y0172770D01*
X0107134Y0172781D01*
X0106982Y0172787D01*
X0106830Y0172790D01*
X0106830Y0172734D01*
X0106981Y0172731D01*
X0107132Y0172725D01*
X0107282Y0172714D01*
X0107432Y0172700D01*
X0107582Y0172682D01*
X0107731Y0172660D01*
X0107880Y0172635D01*
X0108028Y0172606D01*
X0108175Y0172573D01*
X0108321Y0172536D01*
X0108466Y0172495D01*
X0108611Y0172451D01*
X0108754Y0172403D01*
X0108895Y0172352D01*
X0109036Y0172297D01*
X0109175Y0172238D01*
X0109312Y0172176D01*
X0109448Y0172110D01*
X0109582Y0172041D01*
X0109715Y0171969D01*
X0109845Y0171893D01*
X0109973Y0171814D01*
X0110100Y0171732D01*
X0110224Y0171646D01*
X0110346Y0171558D01*
X0110466Y0171466D01*
X0110583Y0171372D01*
X0110698Y0171274D01*
X0110811Y0171173D01*
X0110921Y0171070D01*
X0111028Y0170964D01*
X0111132Y0170855D01*
X0111234Y0170744D01*
X0111333Y0170630D01*
X0111429Y0170513D01*
X0111521Y0170395D01*
X0111611Y0170273D01*
X0111566Y0170241D01*
X0111477Y0170361D01*
X0111385Y0170479D01*
X0111290Y0170594D01*
X0111192Y0170707D01*
X0111091Y0170817D01*
X0110988Y0170925D01*
X0110882Y0171030D01*
X0110773Y0171132D01*
X0110661Y0171232D01*
X0110547Y0171328D01*
X0110431Y0171422D01*
X0110313Y0171513D01*
X0110192Y0171601D01*
X0110069Y0171685D01*
X0109943Y0171767D01*
X0109816Y0171845D01*
X0109687Y0171920D01*
X0109556Y0171992D01*
X0109423Y0172060D01*
X0109289Y0172125D01*
X0109152Y0172187D01*
X0109015Y0172245D01*
X0108876Y0172299D01*
X0108735Y0172350D01*
X0108594Y0172398D01*
X0108451Y0172441D01*
X0108307Y0172482D01*
X0108162Y0172518D01*
X0108016Y0172551D01*
X0107870Y0172580D01*
X0107723Y0172605D01*
X0107575Y0172627D01*
X0107426Y0172645D01*
X0107278Y0172659D01*
X0107129Y0172669D01*
X0106979Y0172675D01*
X0106830Y0172678D01*
X0106830Y0172622D01*
X0106982Y0172619D01*
X0107134Y0172612D01*
X0107286Y0172602D01*
X0107437Y0172587D01*
X0107588Y0172568D01*
X0107738Y0172546D01*
X0107888Y0172519D01*
X0108037Y0172489D01*
X0108185Y0172455D01*
X0108332Y0172417D01*
X0108479Y0172375D01*
X0108624Y0172329D01*
X0108767Y0172280D01*
X0108910Y0172226D01*
X0109051Y0172169D01*
X0109190Y0172109D01*
X0109328Y0172045D01*
X0109464Y0171977D01*
X0109598Y0171905D01*
X0109731Y0171831D01*
X0109861Y0171752D01*
X0109989Y0171671D01*
X0110116Y0171586D01*
X0110239Y0171497D01*
X0110361Y0171406D01*
X0110480Y0171312D01*
X0110596Y0171214D01*
X0110710Y0171113D01*
X0110822Y0171010D01*
X0110930Y0170903D01*
X0111036Y0170794D01*
X0111139Y0170682D01*
X0111239Y0170567D01*
X0111336Y0170450D01*
X0111429Y0170330D01*
X0111520Y0170208D01*
X0111475Y0170176D01*
X0111385Y0170297D01*
X0111292Y0170415D01*
X0111196Y0170531D01*
X0111097Y0170645D01*
X0110995Y0170756D01*
X0110890Y0170864D01*
X0110783Y0170969D01*
X0110673Y0171072D01*
X0110560Y0171172D01*
X0110444Y0171268D01*
X0110327Y0171362D01*
X0110206Y0171452D01*
X0110084Y0171540D01*
X0109959Y0171624D01*
X0109832Y0171705D01*
X0109703Y0171782D01*
X0109571Y0171856D01*
X0109438Y0171927D01*
X0109304Y0171994D01*
X0109167Y0172058D01*
X0109029Y0172118D01*
X0108890Y0172174D01*
X0108748Y0172227D01*
X0108606Y0172276D01*
X0108463Y0172321D01*
X0108318Y0172363D01*
X0108172Y0172400D01*
X0108025Y0172434D01*
X0107878Y0172464D01*
X0107730Y0172491D01*
X0107581Y0172513D01*
X0107431Y0172531D01*
X0107281Y0172546D01*
X0107131Y0172556D01*
X0106981Y0172563D01*
X0106830Y0172566D01*
X0101870Y0162928D02*
X0102296Y0163259D01*
X0102295Y0163259D02*
X0102388Y0163144D01*
X0102483Y0163032D01*
X0102581Y0162922D01*
X0102682Y0162815D01*
X0102786Y0162711D01*
X0102893Y0162609D01*
X0103002Y0162510D01*
X0103113Y0162414D01*
X0103227Y0162320D01*
X0103343Y0162230D01*
X0103462Y0162143D01*
X0103583Y0162059D01*
X0103705Y0161978D01*
X0103830Y0161900D01*
X0103957Y0161825D01*
X0104086Y0161754D01*
X0104216Y0161685D01*
X0104349Y0161621D01*
X0104483Y0161560D01*
X0104618Y0161502D01*
X0104755Y0161447D01*
X0104893Y0161397D01*
X0105033Y0161349D01*
X0105173Y0161306D01*
X0105315Y0161266D01*
X0105457Y0161229D01*
X0105601Y0161197D01*
X0105745Y0161168D01*
X0105890Y0161143D01*
X0106036Y0161121D01*
X0106182Y0161103D01*
X0106329Y0161089D01*
X0106476Y0161079D01*
X0106623Y0161073D01*
X0106770Y0161070D01*
X0106770Y0160531D01*
X0106770Y0160530D01*
X0106613Y0160533D01*
X0106457Y0160539D01*
X0106300Y0160550D01*
X0106144Y0160564D01*
X0105988Y0160583D01*
X0105833Y0160605D01*
X0105679Y0160631D01*
X0105525Y0160661D01*
X0105372Y0160695D01*
X0105219Y0160733D01*
X0105068Y0160774D01*
X0104918Y0160819D01*
X0104769Y0160868D01*
X0104621Y0160921D01*
X0104475Y0160977D01*
X0104330Y0161037D01*
X0104187Y0161101D01*
X0104045Y0161168D01*
X0103905Y0161238D01*
X0103767Y0161312D01*
X0103631Y0161390D01*
X0103496Y0161471D01*
X0103364Y0161555D01*
X0103234Y0161643D01*
X0103106Y0161733D01*
X0102981Y0161827D01*
X0102858Y0161924D01*
X0102737Y0162025D01*
X0102619Y0162128D01*
X0102503Y0162234D01*
X0102391Y0162342D01*
X0102280Y0162454D01*
X0102173Y0162568D01*
X0102069Y0162685D01*
X0101967Y0162805D01*
X0101869Y0162927D01*
X0101913Y0162962D01*
X0102011Y0162841D01*
X0102111Y0162722D01*
X0102215Y0162606D01*
X0102321Y0162493D01*
X0102430Y0162382D01*
X0102542Y0162274D01*
X0102656Y0162169D01*
X0102773Y0162067D01*
X0102893Y0161968D01*
X0103015Y0161872D01*
X0103139Y0161779D01*
X0103266Y0161689D01*
X0103395Y0161602D01*
X0103526Y0161518D01*
X0103659Y0161438D01*
X0103794Y0161361D01*
X0103931Y0161288D01*
X0104070Y0161218D01*
X0104210Y0161151D01*
X0104352Y0161088D01*
X0104496Y0161029D01*
X0104641Y0160973D01*
X0104787Y0160921D01*
X0104935Y0160873D01*
X0105083Y0160828D01*
X0105233Y0160787D01*
X0105384Y0160749D01*
X0105536Y0160716D01*
X0105688Y0160686D01*
X0105842Y0160660D01*
X0105995Y0160638D01*
X0106150Y0160620D01*
X0106304Y0160606D01*
X0106459Y0160595D01*
X0106615Y0160589D01*
X0106770Y0160586D01*
X0106770Y0160642D01*
X0106616Y0160645D01*
X0106462Y0160651D01*
X0106309Y0160662D01*
X0106155Y0160676D01*
X0106002Y0160694D01*
X0105850Y0160716D01*
X0105698Y0160741D01*
X0105547Y0160771D01*
X0105397Y0160804D01*
X0105247Y0160841D01*
X0105099Y0160882D01*
X0104951Y0160926D01*
X0104805Y0160974D01*
X0104660Y0161026D01*
X0104516Y0161081D01*
X0104374Y0161140D01*
X0104233Y0161202D01*
X0104094Y0161268D01*
X0103957Y0161338D01*
X0103821Y0161410D01*
X0103687Y0161487D01*
X0103556Y0161566D01*
X0103426Y0161649D01*
X0103298Y0161735D01*
X0103173Y0161824D01*
X0103049Y0161916D01*
X0102928Y0162011D01*
X0102810Y0162110D01*
X0102694Y0162211D01*
X0102580Y0162315D01*
X0102470Y0162422D01*
X0102361Y0162531D01*
X0102256Y0162644D01*
X0102154Y0162759D01*
X0102054Y0162876D01*
X0101958Y0162996D01*
X0102002Y0163030D01*
X0102097Y0162912D01*
X0102196Y0162795D01*
X0102298Y0162681D01*
X0102402Y0162570D01*
X0102509Y0162461D01*
X0102619Y0162356D01*
X0102731Y0162252D01*
X0102846Y0162152D01*
X0102964Y0162055D01*
X0103083Y0161960D01*
X0103206Y0161869D01*
X0103330Y0161781D01*
X0103457Y0161696D01*
X0103585Y0161614D01*
X0103716Y0161535D01*
X0103848Y0161459D01*
X0103983Y0161387D01*
X0104119Y0161319D01*
X0104257Y0161253D01*
X0104396Y0161191D01*
X0104537Y0161133D01*
X0104680Y0161078D01*
X0104823Y0161027D01*
X0104968Y0160979D01*
X0105114Y0160935D01*
X0105261Y0160895D01*
X0105409Y0160859D01*
X0105558Y0160826D01*
X0105708Y0160796D01*
X0105858Y0160771D01*
X0106009Y0160749D01*
X0106161Y0160732D01*
X0106313Y0160717D01*
X0106465Y0160707D01*
X0106617Y0160701D01*
X0106770Y0160698D01*
X0106770Y0160754D01*
X0106619Y0160757D01*
X0106468Y0160763D01*
X0106317Y0160773D01*
X0106167Y0160787D01*
X0106017Y0160805D01*
X0105867Y0160826D01*
X0105718Y0160852D01*
X0105570Y0160881D01*
X0105422Y0160913D01*
X0105275Y0160949D01*
X0105130Y0160989D01*
X0104985Y0161033D01*
X0104841Y0161080D01*
X0104699Y0161131D01*
X0104558Y0161185D01*
X0104418Y0161243D01*
X0104280Y0161304D01*
X0104144Y0161369D01*
X0104009Y0161437D01*
X0103875Y0161508D01*
X0103744Y0161583D01*
X0103615Y0161661D01*
X0103487Y0161742D01*
X0103362Y0161827D01*
X0103239Y0161914D01*
X0103118Y0162005D01*
X0102999Y0162098D01*
X0102883Y0162195D01*
X0102769Y0162294D01*
X0102657Y0162396D01*
X0102549Y0162501D01*
X0102443Y0162609D01*
X0102339Y0162719D01*
X0102239Y0162832D01*
X0102141Y0162947D01*
X0102046Y0163065D01*
X0102090Y0163099D01*
X0102187Y0162979D01*
X0102287Y0162862D01*
X0102389Y0162747D01*
X0102495Y0162635D01*
X0102603Y0162526D01*
X0102715Y0162419D01*
X0102829Y0162316D01*
X0102945Y0162215D01*
X0103064Y0162118D01*
X0103186Y0162023D01*
X0103310Y0161932D01*
X0103436Y0161844D01*
X0103565Y0161759D01*
X0103695Y0161677D01*
X0103828Y0161599D01*
X0103963Y0161525D01*
X0104099Y0161453D01*
X0104238Y0161386D01*
X0104378Y0161322D01*
X0104519Y0161261D01*
X0104662Y0161204D01*
X0104807Y0161151D01*
X0104953Y0161102D01*
X0105100Y0161056D01*
X0105248Y0161015D01*
X0105397Y0160977D01*
X0105547Y0160942D01*
X0105698Y0160912D01*
X0105850Y0160886D01*
X0106002Y0160863D01*
X0106155Y0160845D01*
X0106309Y0160830D01*
X0106462Y0160820D01*
X0106616Y0160813D01*
X0106770Y0160810D01*
X0106770Y0160866D01*
X0106617Y0160869D01*
X0106465Y0160875D01*
X0106313Y0160886D01*
X0106161Y0160900D01*
X0106010Y0160919D01*
X0105859Y0160941D01*
X0105708Y0160967D01*
X0105559Y0160997D01*
X0105410Y0161031D01*
X0105262Y0161069D01*
X0105116Y0161110D01*
X0104970Y0161155D01*
X0104825Y0161204D01*
X0104682Y0161257D01*
X0104540Y0161313D01*
X0104400Y0161373D01*
X0104261Y0161436D01*
X0104124Y0161503D01*
X0103989Y0161574D01*
X0103856Y0161648D01*
X0103724Y0161725D01*
X0103595Y0161806D01*
X0103468Y0161890D01*
X0103343Y0161977D01*
X0103220Y0162068D01*
X0103099Y0162161D01*
X0102981Y0162258D01*
X0102866Y0162358D01*
X0102753Y0162460D01*
X0102643Y0162566D01*
X0102535Y0162674D01*
X0102431Y0162785D01*
X0102329Y0162899D01*
X0102230Y0163015D01*
X0102134Y0163133D01*
X0102179Y0163168D01*
X0102273Y0163050D01*
X0102371Y0162935D01*
X0102472Y0162823D01*
X0102576Y0162713D01*
X0102682Y0162605D01*
X0102791Y0162501D01*
X0102903Y0162399D01*
X0103017Y0162301D01*
X0103134Y0162205D01*
X0103254Y0162112D01*
X0103375Y0162023D01*
X0103499Y0161936D01*
X0103625Y0161853D01*
X0103753Y0161773D01*
X0103884Y0161696D01*
X0104016Y0161623D01*
X0104150Y0161553D01*
X0104285Y0161487D01*
X0104423Y0161424D01*
X0104562Y0161365D01*
X0104702Y0161309D01*
X0104844Y0161257D01*
X0104987Y0161209D01*
X0105131Y0161164D01*
X0105277Y0161123D01*
X0105423Y0161086D01*
X0105570Y0161052D01*
X0105719Y0161022D01*
X0105867Y0160996D01*
X0106017Y0160974D01*
X0106167Y0160956D01*
X0106317Y0160942D01*
X0106468Y0160931D01*
X0106619Y0160925D01*
X0106770Y0160922D01*
X0106770Y0160978D01*
X0106620Y0160981D01*
X0106471Y0160987D01*
X0106322Y0160998D01*
X0106173Y0161012D01*
X0106024Y0161030D01*
X0105876Y0161052D01*
X0105729Y0161077D01*
X0105582Y0161107D01*
X0105436Y0161140D01*
X0105291Y0161177D01*
X0105147Y0161218D01*
X0105004Y0161262D01*
X0104863Y0161310D01*
X0104722Y0161361D01*
X0104583Y0161417D01*
X0104445Y0161475D01*
X0104309Y0161538D01*
X0104175Y0161603D01*
X0104042Y0161673D01*
X0103911Y0161745D01*
X0103783Y0161821D01*
X0103656Y0161900D01*
X0103531Y0161983D01*
X0103408Y0162068D01*
X0103288Y0162157D01*
X0103169Y0162249D01*
X0103054Y0162344D01*
X0102940Y0162441D01*
X0102830Y0162542D01*
X0102722Y0162645D01*
X0102616Y0162751D01*
X0102513Y0162860D01*
X0102414Y0162972D01*
X0102317Y0163086D01*
X0102223Y0163202D01*
X0102267Y0163237D01*
X0102360Y0163121D01*
X0102456Y0163008D01*
X0102555Y0162898D01*
X0102656Y0162790D01*
X0102761Y0162685D01*
X0102868Y0162583D01*
X0102978Y0162483D01*
X0103090Y0162386D01*
X0103204Y0162292D01*
X0103321Y0162201D01*
X0103441Y0162114D01*
X0103562Y0162029D01*
X0103686Y0161947D01*
X0103812Y0161869D01*
X0103939Y0161794D01*
X0104069Y0161722D01*
X0104200Y0161653D01*
X0104333Y0161588D01*
X0104468Y0161527D01*
X0104604Y0161468D01*
X0104742Y0161414D01*
X0104881Y0161363D01*
X0105021Y0161315D01*
X0105163Y0161271D01*
X0105306Y0161231D01*
X0105449Y0161194D01*
X0105594Y0161162D01*
X0105739Y0161132D01*
X0105885Y0161107D01*
X0106031Y0161085D01*
X0106179Y0161068D01*
X0106326Y0161054D01*
X0106474Y0161043D01*
X0106622Y0161037D01*
X0106770Y0161034D01*
X0106771Y0173069D02*
X0106771Y0172529D01*
X0106770Y0172530D02*
X0106620Y0172527D01*
X0106470Y0172520D01*
X0106320Y0172510D01*
X0106171Y0172495D01*
X0106022Y0172477D01*
X0105874Y0172455D01*
X0105726Y0172428D01*
X0105579Y0172398D01*
X0105432Y0172364D01*
X0105287Y0172327D01*
X0105143Y0172285D01*
X0105000Y0172240D01*
X0104858Y0172191D01*
X0104717Y0172138D01*
X0104578Y0172082D01*
X0104441Y0172022D01*
X0104305Y0171958D01*
X0104171Y0171891D01*
X0104038Y0171820D01*
X0103908Y0171746D01*
X0103779Y0171669D01*
X0103653Y0171588D01*
X0103528Y0171504D01*
X0103406Y0171417D01*
X0103286Y0171326D01*
X0103169Y0171233D01*
X0103054Y0171136D01*
X0102942Y0171036D01*
X0102832Y0170934D01*
X0102725Y0170829D01*
X0102621Y0170721D01*
X0102520Y0170610D01*
X0102422Y0170496D01*
X0102326Y0170380D01*
X0102234Y0170262D01*
X0101803Y0170585D01*
X0101802Y0170586D01*
X0101897Y0170709D01*
X0101996Y0170829D01*
X0102097Y0170947D01*
X0102202Y0171062D01*
X0102309Y0171175D01*
X0102419Y0171285D01*
X0102531Y0171392D01*
X0102646Y0171497D01*
X0102764Y0171598D01*
X0102884Y0171697D01*
X0103007Y0171793D01*
X0103132Y0171885D01*
X0103259Y0171975D01*
X0103389Y0172061D01*
X0103520Y0172144D01*
X0103654Y0172224D01*
X0103789Y0172300D01*
X0103927Y0172373D01*
X0104066Y0172442D01*
X0104207Y0172508D01*
X0104349Y0172571D01*
X0104493Y0172630D01*
X0104638Y0172685D01*
X0104785Y0172737D01*
X0104933Y0172785D01*
X0105082Y0172830D01*
X0105232Y0172871D01*
X0105383Y0172908D01*
X0105535Y0172941D01*
X0105687Y0172970D01*
X0105841Y0172996D01*
X0105995Y0173018D01*
X0106149Y0173036D01*
X0106304Y0173050D01*
X0106459Y0173061D01*
X0106615Y0173067D01*
X0106770Y0173070D01*
X0106770Y0173014D01*
X0106616Y0173011D01*
X0106462Y0173005D01*
X0106308Y0172995D01*
X0106155Y0172980D01*
X0106002Y0172963D01*
X0105849Y0172941D01*
X0105697Y0172915D01*
X0105546Y0172886D01*
X0105395Y0172853D01*
X0105246Y0172816D01*
X0105097Y0172776D01*
X0104949Y0172732D01*
X0104803Y0172684D01*
X0104657Y0172633D01*
X0104513Y0172578D01*
X0104371Y0172519D01*
X0104230Y0172457D01*
X0104090Y0172392D01*
X0103952Y0172323D01*
X0103816Y0172251D01*
X0103682Y0172175D01*
X0103550Y0172096D01*
X0103419Y0172014D01*
X0103291Y0171928D01*
X0103165Y0171840D01*
X0103041Y0171748D01*
X0102920Y0171653D01*
X0102800Y0171556D01*
X0102684Y0171455D01*
X0102569Y0171352D01*
X0102458Y0171245D01*
X0102349Y0171136D01*
X0102243Y0171024D01*
X0102139Y0170910D01*
X0102039Y0170793D01*
X0101941Y0170674D01*
X0101847Y0170552D01*
X0101892Y0170519D01*
X0101985Y0170639D01*
X0102082Y0170758D01*
X0102182Y0170873D01*
X0102284Y0170987D01*
X0102389Y0171097D01*
X0102497Y0171205D01*
X0102608Y0171311D01*
X0102721Y0171413D01*
X0102837Y0171513D01*
X0102955Y0171610D01*
X0103075Y0171704D01*
X0103198Y0171794D01*
X0103323Y0171882D01*
X0103450Y0171967D01*
X0103579Y0172048D01*
X0103710Y0172127D01*
X0103843Y0172202D01*
X0103978Y0172273D01*
X0104115Y0172342D01*
X0104253Y0172406D01*
X0104393Y0172468D01*
X0104534Y0172526D01*
X0104677Y0172580D01*
X0104821Y0172631D01*
X0104966Y0172678D01*
X0105112Y0172722D01*
X0105259Y0172762D01*
X0105408Y0172799D01*
X0105557Y0172831D01*
X0105707Y0172860D01*
X0105857Y0172885D01*
X0106009Y0172907D01*
X0106160Y0172925D01*
X0106312Y0172939D01*
X0106465Y0172949D01*
X0106617Y0172955D01*
X0106770Y0172958D01*
X0106770Y0172902D01*
X0106615Y0172899D01*
X0106459Y0172892D01*
X0106304Y0172882D01*
X0106149Y0172867D01*
X0105995Y0172849D01*
X0105841Y0172826D01*
X0105688Y0172800D01*
X0105535Y0172769D01*
X0105383Y0172735D01*
X0105233Y0172697D01*
X0105083Y0172655D01*
X0104934Y0172610D01*
X0104787Y0172560D01*
X0104641Y0172507D01*
X0104496Y0172450D01*
X0104353Y0172390D01*
X0104211Y0172326D01*
X0104071Y0172258D01*
X0103933Y0172186D01*
X0103797Y0172112D01*
X0103662Y0172033D01*
X0103530Y0171952D01*
X0103400Y0171867D01*
X0103272Y0171778D01*
X0103146Y0171687D01*
X0103023Y0171592D01*
X0102902Y0171494D01*
X0102783Y0171394D01*
X0102668Y0171290D01*
X0102555Y0171183D01*
X0102444Y0171073D01*
X0102337Y0170961D01*
X0102232Y0170846D01*
X0102131Y0170728D01*
X0102032Y0170608D01*
X0101936Y0170485D01*
X0101981Y0170452D01*
X0102076Y0170573D01*
X0102174Y0170692D01*
X0102274Y0170809D01*
X0102378Y0170923D01*
X0102484Y0171034D01*
X0102594Y0171143D01*
X0102706Y0171249D01*
X0102820Y0171351D01*
X0102938Y0171451D01*
X0103057Y0171548D01*
X0103180Y0171642D01*
X0103304Y0171733D01*
X0103431Y0171820D01*
X0103560Y0171905D01*
X0103691Y0171985D01*
X0103824Y0172063D01*
X0103959Y0172137D01*
X0104096Y0172208D01*
X0104235Y0172275D01*
X0104375Y0172338D01*
X0104517Y0172398D01*
X0104660Y0172455D01*
X0104805Y0172507D01*
X0104951Y0172556D01*
X0105099Y0172602D01*
X0105247Y0172643D01*
X0105396Y0172681D01*
X0105547Y0172715D01*
X0105698Y0172745D01*
X0105850Y0172771D01*
X0106002Y0172793D01*
X0106155Y0172811D01*
X0106308Y0172826D01*
X0106462Y0172837D01*
X0106616Y0172843D01*
X0106770Y0172846D01*
X0106770Y0172790D01*
X0106617Y0172787D01*
X0106465Y0172781D01*
X0106313Y0172770D01*
X0106161Y0172756D01*
X0106009Y0172738D01*
X0105858Y0172715D01*
X0105708Y0172690D01*
X0105558Y0172660D01*
X0105409Y0172626D01*
X0105261Y0172589D01*
X0105114Y0172548D01*
X0104968Y0172503D01*
X0104824Y0172455D01*
X0104680Y0172402D01*
X0104538Y0172347D01*
X0104398Y0172287D01*
X0104259Y0172224D01*
X0104121Y0172158D01*
X0103986Y0172088D01*
X0103852Y0172014D01*
X0103720Y0171937D01*
X0103590Y0171857D01*
X0103462Y0171774D01*
X0103337Y0171687D01*
X0103213Y0171597D01*
X0103092Y0171504D01*
X0102973Y0171408D01*
X0102857Y0171309D01*
X0102744Y0171208D01*
X0102633Y0171103D01*
X0102524Y0170995D01*
X0102419Y0170885D01*
X0102316Y0170772D01*
X0102217Y0170656D01*
X0102120Y0170538D01*
X0102026Y0170418D01*
X0102071Y0170384D01*
X0102164Y0170504D01*
X0102260Y0170621D01*
X0102358Y0170735D01*
X0102460Y0170847D01*
X0102565Y0170956D01*
X0102672Y0171063D01*
X0102782Y0171166D01*
X0102894Y0171267D01*
X0103009Y0171365D01*
X0103127Y0171461D01*
X0103247Y0171553D01*
X0103369Y0171642D01*
X0103493Y0171727D01*
X0103620Y0171810D01*
X0103749Y0171889D01*
X0103879Y0171965D01*
X0104012Y0172038D01*
X0104146Y0172108D01*
X0104282Y0172173D01*
X0104420Y0172236D01*
X0104559Y0172295D01*
X0104700Y0172350D01*
X0104842Y0172402D01*
X0104985Y0172450D01*
X0105130Y0172494D01*
X0105275Y0172535D01*
X0105422Y0172572D01*
X0105570Y0172605D01*
X0105718Y0172634D01*
X0105867Y0172660D01*
X0106016Y0172682D01*
X0106166Y0172700D01*
X0106317Y0172714D01*
X0106468Y0172725D01*
X0106619Y0172731D01*
X0106770Y0172734D01*
X0106770Y0172678D01*
X0106620Y0172675D01*
X0106471Y0172669D01*
X0106321Y0172658D01*
X0106172Y0172644D01*
X0106024Y0172626D01*
X0105875Y0172605D01*
X0105728Y0172579D01*
X0105581Y0172550D01*
X0105435Y0172517D01*
X0105290Y0172481D01*
X0105146Y0172440D01*
X0105002Y0172396D01*
X0104860Y0172349D01*
X0104720Y0172298D01*
X0104580Y0172243D01*
X0104442Y0172184D01*
X0104306Y0172123D01*
X0104171Y0172057D01*
X0104038Y0171989D01*
X0103907Y0171917D01*
X0103778Y0171841D01*
X0103650Y0171763D01*
X0103525Y0171681D01*
X0103401Y0171596D01*
X0103280Y0171508D01*
X0103162Y0171417D01*
X0103045Y0171322D01*
X0102931Y0171225D01*
X0102820Y0171125D01*
X0102711Y0171023D01*
X0102605Y0170917D01*
X0102501Y0170809D01*
X0102400Y0170698D01*
X0102303Y0170585D01*
X0102208Y0170469D01*
X0102116Y0170351D01*
X0102160Y0170317D01*
X0102252Y0170434D01*
X0102346Y0170549D01*
X0102443Y0170661D01*
X0102542Y0170771D01*
X0102645Y0170878D01*
X0102750Y0170982D01*
X0102858Y0171084D01*
X0102968Y0171183D01*
X0103081Y0171279D01*
X0103196Y0171373D01*
X0103314Y0171463D01*
X0103434Y0171550D01*
X0103556Y0171634D01*
X0103680Y0171716D01*
X0103806Y0171793D01*
X0103935Y0171868D01*
X0104065Y0171939D01*
X0104196Y0172007D01*
X0104330Y0172072D01*
X0104465Y0172133D01*
X0104601Y0172191D01*
X0104739Y0172245D01*
X0104879Y0172296D01*
X0105019Y0172343D01*
X0105161Y0172387D01*
X0105304Y0172427D01*
X0105448Y0172463D01*
X0105592Y0172495D01*
X0105738Y0172524D01*
X0105884Y0172549D01*
X0106031Y0172571D01*
X0106178Y0172589D01*
X0106326Y0172603D01*
X0106474Y0172613D01*
X0106622Y0172619D01*
X0106770Y0172622D01*
X0106770Y0172566D01*
X0106619Y0172563D01*
X0106468Y0172556D01*
X0106317Y0172546D01*
X0106167Y0172531D01*
X0106017Y0172513D01*
X0105868Y0172490D01*
X0105719Y0172464D01*
X0105571Y0172434D01*
X0105424Y0172399D01*
X0105278Y0172361D01*
X0105133Y0172320D01*
X0104989Y0172274D01*
X0104846Y0172225D01*
X0104704Y0172172D01*
X0104564Y0172115D01*
X0104426Y0172055D01*
X0104289Y0171991D01*
X0104154Y0171923D01*
X0104021Y0171852D01*
X0103889Y0171777D01*
X0103760Y0171700D01*
X0103633Y0171618D01*
X0103508Y0171534D01*
X0103385Y0171446D01*
X0103264Y0171355D01*
X0103146Y0171260D01*
X0103031Y0171163D01*
X0102918Y0171063D01*
X0102807Y0170960D01*
X0102700Y0170854D01*
X0102595Y0170745D01*
X0102493Y0170634D01*
X0102394Y0170519D01*
X0102298Y0170403D01*
X0102205Y0170284D01*
X0106830Y0160531D02*
X0106830Y0161071D01*
X0106830Y0161070D02*
X0106977Y0161073D01*
X0107124Y0161079D01*
X0107271Y0161089D01*
X0107418Y0161103D01*
X0107564Y0161121D01*
X0107710Y0161143D01*
X0107855Y0161168D01*
X0107999Y0161197D01*
X0108143Y0161229D01*
X0108285Y0161266D01*
X0108427Y0161306D01*
X0108567Y0161349D01*
X0108707Y0161397D01*
X0108845Y0161447D01*
X0108982Y0161502D01*
X0109117Y0161560D01*
X0109251Y0161621D01*
X0109384Y0161685D01*
X0109514Y0161754D01*
X0109643Y0161825D01*
X0109770Y0161900D01*
X0109895Y0161978D01*
X0110017Y0162059D01*
X0110138Y0162143D01*
X0110257Y0162230D01*
X0110373Y0162320D01*
X0110487Y0162414D01*
X0110598Y0162510D01*
X0110707Y0162609D01*
X0110814Y0162711D01*
X0110918Y0162815D01*
X0111019Y0162922D01*
X0111117Y0163032D01*
X0111212Y0163144D01*
X0111305Y0163259D01*
X0111730Y0162928D01*
X0111731Y0162927D01*
X0111633Y0162805D01*
X0111531Y0162685D01*
X0111427Y0162568D01*
X0111320Y0162454D01*
X0111209Y0162342D01*
X0111097Y0162234D01*
X0110981Y0162128D01*
X0110863Y0162025D01*
X0110742Y0161924D01*
X0110619Y0161827D01*
X0110494Y0161733D01*
X0110366Y0161643D01*
X0110236Y0161555D01*
X0110104Y0161471D01*
X0109969Y0161390D01*
X0109833Y0161312D01*
X0109695Y0161238D01*
X0109555Y0161168D01*
X0109413Y0161101D01*
X0109270Y0161037D01*
X0109125Y0160977D01*
X0108979Y0160921D01*
X0108831Y0160868D01*
X0108682Y0160819D01*
X0108532Y0160774D01*
X0108381Y0160733D01*
X0108228Y0160695D01*
X0108075Y0160661D01*
X0107921Y0160631D01*
X0107767Y0160605D01*
X0107612Y0160583D01*
X0107456Y0160564D01*
X0107300Y0160550D01*
X0107143Y0160539D01*
X0106987Y0160533D01*
X0106830Y0160530D01*
X0106830Y0160586D01*
X0106985Y0160589D01*
X0107141Y0160595D01*
X0107296Y0160606D01*
X0107450Y0160620D01*
X0107605Y0160638D01*
X0107758Y0160660D01*
X0107912Y0160686D01*
X0108064Y0160716D01*
X0108216Y0160749D01*
X0108367Y0160787D01*
X0108517Y0160828D01*
X0108665Y0160873D01*
X0108813Y0160921D01*
X0108959Y0160973D01*
X0109104Y0161029D01*
X0109248Y0161088D01*
X0109390Y0161151D01*
X0109530Y0161218D01*
X0109669Y0161288D01*
X0109806Y0161361D01*
X0109941Y0161438D01*
X0110074Y0161518D01*
X0110205Y0161602D01*
X0110334Y0161689D01*
X0110461Y0161779D01*
X0110585Y0161872D01*
X0110707Y0161968D01*
X0110827Y0162067D01*
X0110944Y0162169D01*
X0111058Y0162274D01*
X0111170Y0162382D01*
X0111279Y0162493D01*
X0111385Y0162606D01*
X0111489Y0162722D01*
X0111589Y0162841D01*
X0111687Y0162962D01*
X0111642Y0162996D01*
X0111546Y0162876D01*
X0111446Y0162759D01*
X0111344Y0162644D01*
X0111239Y0162531D01*
X0111130Y0162422D01*
X0111020Y0162315D01*
X0110906Y0162211D01*
X0110790Y0162110D01*
X0110672Y0162011D01*
X0110551Y0161916D01*
X0110427Y0161824D01*
X0110302Y0161735D01*
X0110174Y0161649D01*
X0110044Y0161566D01*
X0109913Y0161487D01*
X0109779Y0161410D01*
X0109643Y0161338D01*
X0109506Y0161268D01*
X0109367Y0161202D01*
X0109226Y0161140D01*
X0109084Y0161081D01*
X0108940Y0161026D01*
X0108795Y0160974D01*
X0108649Y0160926D01*
X0108501Y0160882D01*
X0108353Y0160841D01*
X0108203Y0160804D01*
X0108053Y0160771D01*
X0107902Y0160741D01*
X0107750Y0160716D01*
X0107598Y0160694D01*
X0107445Y0160676D01*
X0107291Y0160662D01*
X0107138Y0160651D01*
X0106984Y0160645D01*
X0106830Y0160642D01*
X0106830Y0160698D01*
X0106983Y0160701D01*
X0107135Y0160707D01*
X0107287Y0160717D01*
X0107439Y0160732D01*
X0107591Y0160749D01*
X0107742Y0160771D01*
X0107892Y0160796D01*
X0108042Y0160826D01*
X0108191Y0160859D01*
X0108339Y0160895D01*
X0108486Y0160935D01*
X0108632Y0160979D01*
X0108777Y0161027D01*
X0108920Y0161078D01*
X0109063Y0161133D01*
X0109204Y0161191D01*
X0109343Y0161253D01*
X0109481Y0161319D01*
X0109617Y0161387D01*
X0109752Y0161459D01*
X0109884Y0161535D01*
X0110015Y0161614D01*
X0110143Y0161696D01*
X0110270Y0161781D01*
X0110394Y0161869D01*
X0110517Y0161960D01*
X0110636Y0162055D01*
X0110754Y0162152D01*
X0110869Y0162252D01*
X0110981Y0162356D01*
X0111091Y0162461D01*
X0111198Y0162570D01*
X0111302Y0162681D01*
X0111404Y0162795D01*
X0111503Y0162912D01*
X0111598Y0163030D01*
X0111554Y0163065D01*
X0111459Y0162947D01*
X0111361Y0162832D01*
X0111261Y0162719D01*
X0111157Y0162609D01*
X0111051Y0162501D01*
X0110943Y0162396D01*
X0110831Y0162294D01*
X0110717Y0162195D01*
X0110601Y0162098D01*
X0110482Y0162005D01*
X0110361Y0161914D01*
X0110238Y0161827D01*
X0110113Y0161742D01*
X0109985Y0161661D01*
X0109856Y0161583D01*
X0109725Y0161508D01*
X0109591Y0161437D01*
X0109456Y0161369D01*
X0109320Y0161304D01*
X0109182Y0161243D01*
X0109042Y0161185D01*
X0108901Y0161131D01*
X0108759Y0161080D01*
X0108615Y0161033D01*
X0108470Y0160989D01*
X0108325Y0160949D01*
X0108178Y0160913D01*
X0108030Y0160881D01*
X0107882Y0160852D01*
X0107733Y0160826D01*
X0107583Y0160805D01*
X0107433Y0160787D01*
X0107283Y0160773D01*
X0107132Y0160763D01*
X0106981Y0160757D01*
X0106830Y0160754D01*
X0106830Y0160810D01*
X0106984Y0160813D01*
X0107138Y0160820D01*
X0107291Y0160830D01*
X0107445Y0160845D01*
X0107598Y0160863D01*
X0107750Y0160886D01*
X0107902Y0160912D01*
X0108053Y0160942D01*
X0108203Y0160977D01*
X0108352Y0161015D01*
X0108500Y0161056D01*
X0108647Y0161102D01*
X0108793Y0161151D01*
X0108938Y0161204D01*
X0109081Y0161261D01*
X0109222Y0161322D01*
X0109362Y0161386D01*
X0109501Y0161453D01*
X0109637Y0161525D01*
X0109772Y0161599D01*
X0109905Y0161677D01*
X0110035Y0161759D01*
X0110164Y0161844D01*
X0110290Y0161932D01*
X0110414Y0162023D01*
X0110536Y0162118D01*
X0110655Y0162215D01*
X0110771Y0162316D01*
X0110885Y0162419D01*
X0110997Y0162526D01*
X0111105Y0162635D01*
X0111211Y0162747D01*
X0111313Y0162862D01*
X0111413Y0162979D01*
X0111510Y0163099D01*
X0111466Y0163133D01*
X0111370Y0163015D01*
X0111271Y0162899D01*
X0111169Y0162785D01*
X0111065Y0162674D01*
X0110957Y0162566D01*
X0110847Y0162460D01*
X0110734Y0162358D01*
X0110619Y0162258D01*
X0110501Y0162161D01*
X0110380Y0162068D01*
X0110257Y0161977D01*
X0110132Y0161890D01*
X0110005Y0161806D01*
X0109876Y0161725D01*
X0109744Y0161648D01*
X0109611Y0161574D01*
X0109476Y0161503D01*
X0109339Y0161436D01*
X0109200Y0161373D01*
X0109060Y0161313D01*
X0108918Y0161257D01*
X0108775Y0161204D01*
X0108630Y0161155D01*
X0108484Y0161110D01*
X0108338Y0161069D01*
X0108190Y0161031D01*
X0108041Y0160997D01*
X0107892Y0160967D01*
X0107741Y0160941D01*
X0107590Y0160919D01*
X0107439Y0160900D01*
X0107287Y0160886D01*
X0107135Y0160875D01*
X0106983Y0160869D01*
X0106830Y0160866D01*
X0106830Y0160922D01*
X0106981Y0160925D01*
X0107132Y0160931D01*
X0107283Y0160942D01*
X0107433Y0160956D01*
X0107583Y0160974D01*
X0107733Y0160996D01*
X0107881Y0161022D01*
X0108030Y0161052D01*
X0108177Y0161086D01*
X0108323Y0161123D01*
X0108469Y0161164D01*
X0108613Y0161209D01*
X0108756Y0161257D01*
X0108898Y0161309D01*
X0109038Y0161365D01*
X0109177Y0161424D01*
X0109315Y0161487D01*
X0109450Y0161553D01*
X0109584Y0161623D01*
X0109716Y0161696D01*
X0109847Y0161773D01*
X0109975Y0161853D01*
X0110101Y0161936D01*
X0110225Y0162023D01*
X0110346Y0162112D01*
X0110466Y0162205D01*
X0110583Y0162301D01*
X0110697Y0162399D01*
X0110809Y0162501D01*
X0110918Y0162605D01*
X0111024Y0162713D01*
X0111128Y0162823D01*
X0111229Y0162935D01*
X0111327Y0163050D01*
X0111421Y0163168D01*
X0111377Y0163202D01*
X0111283Y0163086D01*
X0111186Y0162972D01*
X0111087Y0162860D01*
X0110984Y0162751D01*
X0110878Y0162645D01*
X0110770Y0162542D01*
X0110660Y0162441D01*
X0110546Y0162344D01*
X0110431Y0162249D01*
X0110312Y0162157D01*
X0110192Y0162068D01*
X0110069Y0161983D01*
X0109944Y0161900D01*
X0109817Y0161821D01*
X0109689Y0161745D01*
X0109558Y0161673D01*
X0109425Y0161603D01*
X0109291Y0161538D01*
X0109155Y0161475D01*
X0109017Y0161417D01*
X0108878Y0161361D01*
X0108737Y0161310D01*
X0108596Y0161262D01*
X0108453Y0161218D01*
X0108309Y0161177D01*
X0108164Y0161140D01*
X0108018Y0161107D01*
X0107871Y0161077D01*
X0107724Y0161052D01*
X0107576Y0161030D01*
X0107427Y0161012D01*
X0107278Y0160998D01*
X0107129Y0160987D01*
X0106980Y0160981D01*
X0106830Y0160978D01*
X0106830Y0161034D01*
X0106978Y0161037D01*
X0107126Y0161043D01*
X0107274Y0161054D01*
X0107421Y0161068D01*
X0107569Y0161085D01*
X0107715Y0161107D01*
X0107861Y0161132D01*
X0108006Y0161162D01*
X0108151Y0161194D01*
X0108294Y0161231D01*
X0108437Y0161271D01*
X0108579Y0161315D01*
X0108719Y0161363D01*
X0108858Y0161414D01*
X0108996Y0161468D01*
X0109132Y0161527D01*
X0109267Y0161588D01*
X0109400Y0161653D01*
X0109531Y0161722D01*
X0109661Y0161794D01*
X0109788Y0161869D01*
X0109914Y0161947D01*
X0110038Y0162029D01*
X0110159Y0162114D01*
X0110279Y0162201D01*
X0110396Y0162292D01*
X0110510Y0162386D01*
X0110622Y0162483D01*
X0110732Y0162583D01*
X0110839Y0162685D01*
X0110944Y0162790D01*
X0111045Y0162898D01*
X0111144Y0163008D01*
X0111240Y0163121D01*
X0111333Y0163237D01*
X0026870Y0162928D02*
X0027296Y0163259D01*
X0027295Y0163259D02*
X0027388Y0163144D01*
X0027483Y0163032D01*
X0027581Y0162922D01*
X0027682Y0162815D01*
X0027786Y0162711D01*
X0027893Y0162609D01*
X0028002Y0162510D01*
X0028113Y0162414D01*
X0028227Y0162320D01*
X0028343Y0162230D01*
X0028462Y0162143D01*
X0028583Y0162059D01*
X0028705Y0161978D01*
X0028830Y0161900D01*
X0028957Y0161825D01*
X0029086Y0161754D01*
X0029216Y0161685D01*
X0029349Y0161621D01*
X0029483Y0161560D01*
X0029618Y0161502D01*
X0029755Y0161447D01*
X0029893Y0161397D01*
X0030033Y0161349D01*
X0030173Y0161306D01*
X0030315Y0161266D01*
X0030457Y0161229D01*
X0030601Y0161197D01*
X0030745Y0161168D01*
X0030890Y0161143D01*
X0031036Y0161121D01*
X0031182Y0161103D01*
X0031329Y0161089D01*
X0031476Y0161079D01*
X0031623Y0161073D01*
X0031770Y0161070D01*
X0031770Y0160531D01*
X0031770Y0160530D01*
X0031613Y0160533D01*
X0031457Y0160539D01*
X0031300Y0160550D01*
X0031144Y0160564D01*
X0030988Y0160583D01*
X0030833Y0160605D01*
X0030679Y0160631D01*
X0030525Y0160661D01*
X0030372Y0160695D01*
X0030219Y0160733D01*
X0030068Y0160774D01*
X0029918Y0160819D01*
X0029769Y0160868D01*
X0029621Y0160921D01*
X0029475Y0160977D01*
X0029330Y0161037D01*
X0029187Y0161101D01*
X0029045Y0161168D01*
X0028905Y0161238D01*
X0028767Y0161312D01*
X0028631Y0161390D01*
X0028496Y0161471D01*
X0028364Y0161555D01*
X0028234Y0161643D01*
X0028106Y0161733D01*
X0027981Y0161827D01*
X0027858Y0161924D01*
X0027737Y0162025D01*
X0027619Y0162128D01*
X0027503Y0162234D01*
X0027391Y0162342D01*
X0027280Y0162454D01*
X0027173Y0162568D01*
X0027069Y0162685D01*
X0026967Y0162805D01*
X0026869Y0162927D01*
X0026913Y0162962D01*
X0027011Y0162841D01*
X0027111Y0162722D01*
X0027215Y0162606D01*
X0027321Y0162493D01*
X0027430Y0162382D01*
X0027542Y0162274D01*
X0027656Y0162169D01*
X0027773Y0162067D01*
X0027893Y0161968D01*
X0028015Y0161872D01*
X0028139Y0161779D01*
X0028266Y0161689D01*
X0028395Y0161602D01*
X0028526Y0161518D01*
X0028659Y0161438D01*
X0028794Y0161361D01*
X0028931Y0161288D01*
X0029070Y0161218D01*
X0029210Y0161151D01*
X0029352Y0161088D01*
X0029496Y0161029D01*
X0029641Y0160973D01*
X0029787Y0160921D01*
X0029935Y0160873D01*
X0030083Y0160828D01*
X0030233Y0160787D01*
X0030384Y0160749D01*
X0030536Y0160716D01*
X0030688Y0160686D01*
X0030842Y0160660D01*
X0030995Y0160638D01*
X0031150Y0160620D01*
X0031304Y0160606D01*
X0031459Y0160595D01*
X0031615Y0160589D01*
X0031770Y0160586D01*
X0031770Y0160642D01*
X0031616Y0160645D01*
X0031462Y0160651D01*
X0031309Y0160662D01*
X0031155Y0160676D01*
X0031002Y0160694D01*
X0030850Y0160716D01*
X0030698Y0160741D01*
X0030547Y0160771D01*
X0030397Y0160804D01*
X0030247Y0160841D01*
X0030099Y0160882D01*
X0029951Y0160926D01*
X0029805Y0160974D01*
X0029660Y0161026D01*
X0029516Y0161081D01*
X0029374Y0161140D01*
X0029233Y0161202D01*
X0029094Y0161268D01*
X0028957Y0161338D01*
X0028821Y0161410D01*
X0028687Y0161487D01*
X0028556Y0161566D01*
X0028426Y0161649D01*
X0028298Y0161735D01*
X0028173Y0161824D01*
X0028049Y0161916D01*
X0027928Y0162011D01*
X0027810Y0162110D01*
X0027694Y0162211D01*
X0027580Y0162315D01*
X0027470Y0162422D01*
X0027361Y0162531D01*
X0027256Y0162644D01*
X0027154Y0162759D01*
X0027054Y0162876D01*
X0026958Y0162996D01*
X0027002Y0163030D01*
X0027097Y0162912D01*
X0027196Y0162795D01*
X0027298Y0162681D01*
X0027402Y0162570D01*
X0027509Y0162461D01*
X0027619Y0162356D01*
X0027731Y0162252D01*
X0027846Y0162152D01*
X0027964Y0162055D01*
X0028083Y0161960D01*
X0028206Y0161869D01*
X0028330Y0161781D01*
X0028457Y0161696D01*
X0028585Y0161614D01*
X0028716Y0161535D01*
X0028848Y0161459D01*
X0028983Y0161387D01*
X0029119Y0161319D01*
X0029257Y0161253D01*
X0029396Y0161191D01*
X0029537Y0161133D01*
X0029680Y0161078D01*
X0029823Y0161027D01*
X0029968Y0160979D01*
X0030114Y0160935D01*
X0030261Y0160895D01*
X0030409Y0160859D01*
X0030558Y0160826D01*
X0030708Y0160796D01*
X0030858Y0160771D01*
X0031009Y0160749D01*
X0031161Y0160732D01*
X0031313Y0160717D01*
X0031465Y0160707D01*
X0031617Y0160701D01*
X0031770Y0160698D01*
X0031770Y0160754D01*
X0031619Y0160757D01*
X0031468Y0160763D01*
X0031317Y0160773D01*
X0031167Y0160787D01*
X0031017Y0160805D01*
X0030867Y0160826D01*
X0030718Y0160852D01*
X0030570Y0160881D01*
X0030422Y0160913D01*
X0030275Y0160949D01*
X0030130Y0160989D01*
X0029985Y0161033D01*
X0029841Y0161080D01*
X0029699Y0161131D01*
X0029558Y0161185D01*
X0029418Y0161243D01*
X0029280Y0161304D01*
X0029144Y0161369D01*
X0029009Y0161437D01*
X0028875Y0161508D01*
X0028744Y0161583D01*
X0028615Y0161661D01*
X0028487Y0161742D01*
X0028362Y0161827D01*
X0028239Y0161914D01*
X0028118Y0162005D01*
X0027999Y0162098D01*
X0027883Y0162195D01*
X0027769Y0162294D01*
X0027657Y0162396D01*
X0027549Y0162501D01*
X0027443Y0162609D01*
X0027339Y0162719D01*
X0027239Y0162832D01*
X0027141Y0162947D01*
X0027046Y0163065D01*
X0027090Y0163099D01*
X0027187Y0162979D01*
X0027287Y0162862D01*
X0027389Y0162747D01*
X0027495Y0162635D01*
X0027603Y0162526D01*
X0027715Y0162419D01*
X0027829Y0162316D01*
X0027945Y0162215D01*
X0028064Y0162118D01*
X0028186Y0162023D01*
X0028310Y0161932D01*
X0028436Y0161844D01*
X0028565Y0161759D01*
X0028695Y0161677D01*
X0028828Y0161599D01*
X0028963Y0161525D01*
X0029099Y0161453D01*
X0029238Y0161386D01*
X0029378Y0161322D01*
X0029519Y0161261D01*
X0029662Y0161204D01*
X0029807Y0161151D01*
X0029953Y0161102D01*
X0030100Y0161056D01*
X0030248Y0161015D01*
X0030397Y0160977D01*
X0030547Y0160942D01*
X0030698Y0160912D01*
X0030850Y0160886D01*
X0031002Y0160863D01*
X0031155Y0160845D01*
X0031309Y0160830D01*
X0031462Y0160820D01*
X0031616Y0160813D01*
X0031770Y0160810D01*
X0031770Y0160866D01*
X0031617Y0160869D01*
X0031465Y0160875D01*
X0031313Y0160886D01*
X0031161Y0160900D01*
X0031010Y0160919D01*
X0030859Y0160941D01*
X0030708Y0160967D01*
X0030559Y0160997D01*
X0030410Y0161031D01*
X0030262Y0161069D01*
X0030116Y0161110D01*
X0029970Y0161155D01*
X0029825Y0161204D01*
X0029682Y0161257D01*
X0029540Y0161313D01*
X0029400Y0161373D01*
X0029261Y0161436D01*
X0029124Y0161503D01*
X0028989Y0161574D01*
X0028856Y0161648D01*
X0028724Y0161725D01*
X0028595Y0161806D01*
X0028468Y0161890D01*
X0028343Y0161977D01*
X0028220Y0162068D01*
X0028099Y0162161D01*
X0027981Y0162258D01*
X0027866Y0162358D01*
X0027753Y0162460D01*
X0027643Y0162566D01*
X0027535Y0162674D01*
X0027431Y0162785D01*
X0027329Y0162899D01*
X0027230Y0163015D01*
X0027134Y0163133D01*
X0027179Y0163168D01*
X0027273Y0163050D01*
X0027371Y0162935D01*
X0027472Y0162823D01*
X0027576Y0162713D01*
X0027682Y0162605D01*
X0027791Y0162501D01*
X0027903Y0162399D01*
X0028017Y0162301D01*
X0028134Y0162205D01*
X0028254Y0162112D01*
X0028375Y0162023D01*
X0028499Y0161936D01*
X0028625Y0161853D01*
X0028753Y0161773D01*
X0028884Y0161696D01*
X0029016Y0161623D01*
X0029150Y0161553D01*
X0029285Y0161487D01*
X0029423Y0161424D01*
X0029562Y0161365D01*
X0029702Y0161309D01*
X0029844Y0161257D01*
X0029987Y0161209D01*
X0030131Y0161164D01*
X0030277Y0161123D01*
X0030423Y0161086D01*
X0030570Y0161052D01*
X0030719Y0161022D01*
X0030867Y0160996D01*
X0031017Y0160974D01*
X0031167Y0160956D01*
X0031317Y0160942D01*
X0031468Y0160931D01*
X0031619Y0160925D01*
X0031770Y0160922D01*
X0031770Y0160978D01*
X0031620Y0160981D01*
X0031471Y0160987D01*
X0031322Y0160998D01*
X0031173Y0161012D01*
X0031024Y0161030D01*
X0030876Y0161052D01*
X0030729Y0161077D01*
X0030582Y0161107D01*
X0030436Y0161140D01*
X0030291Y0161177D01*
X0030147Y0161218D01*
X0030004Y0161262D01*
X0029863Y0161310D01*
X0029722Y0161361D01*
X0029583Y0161417D01*
X0029445Y0161475D01*
X0029309Y0161538D01*
X0029175Y0161603D01*
X0029042Y0161673D01*
X0028911Y0161745D01*
X0028783Y0161821D01*
X0028656Y0161900D01*
X0028531Y0161983D01*
X0028408Y0162068D01*
X0028288Y0162157D01*
X0028169Y0162249D01*
X0028054Y0162344D01*
X0027940Y0162441D01*
X0027830Y0162542D01*
X0027722Y0162645D01*
X0027616Y0162751D01*
X0027513Y0162860D01*
X0027414Y0162972D01*
X0027317Y0163086D01*
X0027223Y0163202D01*
X0027267Y0163237D01*
X0027360Y0163121D01*
X0027456Y0163008D01*
X0027555Y0162898D01*
X0027656Y0162790D01*
X0027761Y0162685D01*
X0027868Y0162583D01*
X0027978Y0162483D01*
X0028090Y0162386D01*
X0028204Y0162292D01*
X0028321Y0162201D01*
X0028441Y0162114D01*
X0028562Y0162029D01*
X0028686Y0161947D01*
X0028812Y0161869D01*
X0028939Y0161794D01*
X0029069Y0161722D01*
X0029200Y0161653D01*
X0029333Y0161588D01*
X0029468Y0161527D01*
X0029604Y0161468D01*
X0029742Y0161414D01*
X0029881Y0161363D01*
X0030021Y0161315D01*
X0030163Y0161271D01*
X0030306Y0161231D01*
X0030449Y0161194D01*
X0030594Y0161162D01*
X0030739Y0161132D01*
X0030885Y0161107D01*
X0031031Y0161085D01*
X0031179Y0161068D01*
X0031326Y0161054D01*
X0031474Y0161043D01*
X0031622Y0161037D01*
X0031770Y0161034D01*
X0031771Y0173069D02*
X0031771Y0172529D01*
X0031770Y0172530D02*
X0031620Y0172527D01*
X0031470Y0172520D01*
X0031320Y0172510D01*
X0031171Y0172495D01*
X0031022Y0172477D01*
X0030874Y0172455D01*
X0030726Y0172428D01*
X0030579Y0172398D01*
X0030432Y0172364D01*
X0030287Y0172327D01*
X0030143Y0172285D01*
X0030000Y0172240D01*
X0029858Y0172191D01*
X0029717Y0172138D01*
X0029578Y0172082D01*
X0029441Y0172022D01*
X0029305Y0171958D01*
X0029171Y0171891D01*
X0029038Y0171820D01*
X0028908Y0171746D01*
X0028779Y0171669D01*
X0028653Y0171588D01*
X0028528Y0171504D01*
X0028406Y0171417D01*
X0028286Y0171326D01*
X0028169Y0171233D01*
X0028054Y0171136D01*
X0027942Y0171036D01*
X0027832Y0170934D01*
X0027725Y0170829D01*
X0027621Y0170721D01*
X0027520Y0170610D01*
X0027422Y0170496D01*
X0027326Y0170380D01*
X0027234Y0170262D01*
X0026803Y0170585D01*
X0026802Y0170586D01*
X0026897Y0170709D01*
X0026996Y0170829D01*
X0027097Y0170947D01*
X0027202Y0171062D01*
X0027309Y0171175D01*
X0027419Y0171285D01*
X0027531Y0171392D01*
X0027646Y0171497D01*
X0027764Y0171598D01*
X0027884Y0171697D01*
X0028007Y0171793D01*
X0028132Y0171885D01*
X0028259Y0171975D01*
X0028389Y0172061D01*
X0028520Y0172144D01*
X0028654Y0172224D01*
X0028789Y0172300D01*
X0028927Y0172373D01*
X0029066Y0172442D01*
X0029207Y0172508D01*
X0029349Y0172571D01*
X0029493Y0172630D01*
X0029638Y0172685D01*
X0029785Y0172737D01*
X0029933Y0172785D01*
X0030082Y0172830D01*
X0030232Y0172871D01*
X0030383Y0172908D01*
X0030535Y0172941D01*
X0030687Y0172970D01*
X0030841Y0172996D01*
X0030995Y0173018D01*
X0031149Y0173036D01*
X0031304Y0173050D01*
X0031459Y0173061D01*
X0031615Y0173067D01*
X0031770Y0173070D01*
X0031770Y0173014D01*
X0031616Y0173011D01*
X0031462Y0173005D01*
X0031308Y0172995D01*
X0031155Y0172980D01*
X0031002Y0172963D01*
X0030849Y0172941D01*
X0030697Y0172915D01*
X0030546Y0172886D01*
X0030395Y0172853D01*
X0030246Y0172816D01*
X0030097Y0172776D01*
X0029949Y0172732D01*
X0029803Y0172684D01*
X0029657Y0172633D01*
X0029513Y0172578D01*
X0029371Y0172519D01*
X0029230Y0172457D01*
X0029090Y0172392D01*
X0028952Y0172323D01*
X0028816Y0172251D01*
X0028682Y0172175D01*
X0028550Y0172096D01*
X0028419Y0172014D01*
X0028291Y0171928D01*
X0028165Y0171840D01*
X0028041Y0171748D01*
X0027920Y0171653D01*
X0027800Y0171556D01*
X0027684Y0171455D01*
X0027569Y0171352D01*
X0027458Y0171245D01*
X0027349Y0171136D01*
X0027243Y0171024D01*
X0027139Y0170910D01*
X0027039Y0170793D01*
X0026941Y0170674D01*
X0026847Y0170552D01*
X0026892Y0170519D01*
X0026985Y0170639D01*
X0027082Y0170758D01*
X0027182Y0170873D01*
X0027284Y0170987D01*
X0027389Y0171097D01*
X0027497Y0171205D01*
X0027608Y0171311D01*
X0027721Y0171413D01*
X0027837Y0171513D01*
X0027955Y0171610D01*
X0028075Y0171704D01*
X0028198Y0171794D01*
X0028323Y0171882D01*
X0028450Y0171967D01*
X0028579Y0172048D01*
X0028710Y0172127D01*
X0028843Y0172202D01*
X0028978Y0172273D01*
X0029115Y0172342D01*
X0029253Y0172406D01*
X0029393Y0172468D01*
X0029534Y0172526D01*
X0029677Y0172580D01*
X0029821Y0172631D01*
X0029966Y0172678D01*
X0030112Y0172722D01*
X0030259Y0172762D01*
X0030408Y0172799D01*
X0030557Y0172831D01*
X0030707Y0172860D01*
X0030857Y0172885D01*
X0031009Y0172907D01*
X0031160Y0172925D01*
X0031312Y0172939D01*
X0031465Y0172949D01*
X0031617Y0172955D01*
X0031770Y0172958D01*
X0031770Y0172902D01*
X0031615Y0172899D01*
X0031459Y0172892D01*
X0031304Y0172882D01*
X0031149Y0172867D01*
X0030995Y0172849D01*
X0030841Y0172826D01*
X0030688Y0172800D01*
X0030535Y0172769D01*
X0030383Y0172735D01*
X0030233Y0172697D01*
X0030083Y0172655D01*
X0029934Y0172610D01*
X0029787Y0172560D01*
X0029641Y0172507D01*
X0029496Y0172450D01*
X0029353Y0172390D01*
X0029211Y0172326D01*
X0029071Y0172258D01*
X0028933Y0172186D01*
X0028797Y0172112D01*
X0028662Y0172033D01*
X0028530Y0171952D01*
X0028400Y0171867D01*
X0028272Y0171778D01*
X0028146Y0171687D01*
X0028023Y0171592D01*
X0027902Y0171494D01*
X0027783Y0171394D01*
X0027668Y0171290D01*
X0027555Y0171183D01*
X0027444Y0171073D01*
X0027337Y0170961D01*
X0027232Y0170846D01*
X0027131Y0170728D01*
X0027032Y0170608D01*
X0026936Y0170485D01*
X0026981Y0170452D01*
X0027076Y0170573D01*
X0027174Y0170692D01*
X0027274Y0170809D01*
X0027378Y0170923D01*
X0027484Y0171034D01*
X0027594Y0171143D01*
X0027706Y0171249D01*
X0027820Y0171351D01*
X0027938Y0171451D01*
X0028057Y0171548D01*
X0028180Y0171642D01*
X0028304Y0171733D01*
X0028431Y0171820D01*
X0028560Y0171905D01*
X0028691Y0171985D01*
X0028824Y0172063D01*
X0028959Y0172137D01*
X0029096Y0172208D01*
X0029235Y0172275D01*
X0029375Y0172338D01*
X0029517Y0172398D01*
X0029660Y0172455D01*
X0029805Y0172507D01*
X0029951Y0172556D01*
X0030099Y0172602D01*
X0030247Y0172643D01*
X0030396Y0172681D01*
X0030547Y0172715D01*
X0030698Y0172745D01*
X0030850Y0172771D01*
X0031002Y0172793D01*
X0031155Y0172811D01*
X0031308Y0172826D01*
X0031462Y0172837D01*
X0031616Y0172843D01*
X0031770Y0172846D01*
X0031770Y0172790D01*
X0031617Y0172787D01*
X0031465Y0172781D01*
X0031313Y0172770D01*
X0031161Y0172756D01*
X0031009Y0172738D01*
X0030858Y0172715D01*
X0030708Y0172690D01*
X0030558Y0172660D01*
X0030409Y0172626D01*
X0030261Y0172589D01*
X0030114Y0172548D01*
X0029968Y0172503D01*
X0029824Y0172455D01*
X0029680Y0172402D01*
X0029538Y0172347D01*
X0029398Y0172287D01*
X0029259Y0172224D01*
X0029121Y0172158D01*
X0028986Y0172088D01*
X0028852Y0172014D01*
X0028720Y0171937D01*
X0028590Y0171857D01*
X0028462Y0171774D01*
X0028337Y0171687D01*
X0028213Y0171597D01*
X0028092Y0171504D01*
X0027973Y0171408D01*
X0027857Y0171309D01*
X0027744Y0171208D01*
X0027633Y0171103D01*
X0027524Y0170995D01*
X0027419Y0170885D01*
X0027316Y0170772D01*
X0027217Y0170656D01*
X0027120Y0170538D01*
X0027026Y0170418D01*
X0027071Y0170384D01*
X0027164Y0170504D01*
X0027260Y0170621D01*
X0027358Y0170735D01*
X0027460Y0170847D01*
X0027565Y0170956D01*
X0027672Y0171063D01*
X0027782Y0171166D01*
X0027894Y0171267D01*
X0028009Y0171365D01*
X0028127Y0171461D01*
X0028247Y0171553D01*
X0028369Y0171642D01*
X0028493Y0171727D01*
X0028620Y0171810D01*
X0028749Y0171889D01*
X0028879Y0171965D01*
X0029012Y0172038D01*
X0029146Y0172108D01*
X0029282Y0172173D01*
X0029420Y0172236D01*
X0029559Y0172295D01*
X0029700Y0172350D01*
X0029842Y0172402D01*
X0029985Y0172450D01*
X0030130Y0172494D01*
X0030275Y0172535D01*
X0030422Y0172572D01*
X0030570Y0172605D01*
X0030718Y0172634D01*
X0030867Y0172660D01*
X0031016Y0172682D01*
X0031166Y0172700D01*
X0031317Y0172714D01*
X0031468Y0172725D01*
X0031619Y0172731D01*
X0031770Y0172734D01*
X0031770Y0172678D01*
X0031620Y0172675D01*
X0031471Y0172669D01*
X0031321Y0172658D01*
X0031172Y0172644D01*
X0031024Y0172626D01*
X0030875Y0172605D01*
X0030728Y0172579D01*
X0030581Y0172550D01*
X0030435Y0172517D01*
X0030290Y0172481D01*
X0030146Y0172440D01*
X0030002Y0172396D01*
X0029860Y0172349D01*
X0029720Y0172298D01*
X0029580Y0172243D01*
X0029442Y0172184D01*
X0029306Y0172123D01*
X0029171Y0172057D01*
X0029038Y0171989D01*
X0028907Y0171917D01*
X0028778Y0171841D01*
X0028650Y0171763D01*
X0028525Y0171681D01*
X0028401Y0171596D01*
X0028280Y0171508D01*
X0028162Y0171417D01*
X0028045Y0171322D01*
X0027931Y0171225D01*
X0027820Y0171125D01*
X0027711Y0171023D01*
X0027605Y0170917D01*
X0027501Y0170809D01*
X0027400Y0170698D01*
X0027303Y0170585D01*
X0027208Y0170469D01*
X0027116Y0170351D01*
X0027160Y0170317D01*
X0027252Y0170434D01*
X0027346Y0170549D01*
X0027443Y0170661D01*
X0027542Y0170771D01*
X0027645Y0170878D01*
X0027750Y0170982D01*
X0027858Y0171084D01*
X0027968Y0171183D01*
X0028081Y0171279D01*
X0028196Y0171373D01*
X0028314Y0171463D01*
X0028434Y0171550D01*
X0028556Y0171634D01*
X0028680Y0171716D01*
X0028806Y0171793D01*
X0028935Y0171868D01*
X0029065Y0171939D01*
X0029196Y0172007D01*
X0029330Y0172072D01*
X0029465Y0172133D01*
X0029601Y0172191D01*
X0029739Y0172245D01*
X0029879Y0172296D01*
X0030019Y0172343D01*
X0030161Y0172387D01*
X0030304Y0172427D01*
X0030448Y0172463D01*
X0030592Y0172495D01*
X0030738Y0172524D01*
X0030884Y0172549D01*
X0031031Y0172571D01*
X0031178Y0172589D01*
X0031326Y0172603D01*
X0031474Y0172613D01*
X0031622Y0172619D01*
X0031770Y0172622D01*
X0031770Y0172566D01*
X0031619Y0172563D01*
X0031468Y0172556D01*
X0031317Y0172546D01*
X0031167Y0172531D01*
X0031017Y0172513D01*
X0030868Y0172490D01*
X0030719Y0172464D01*
X0030571Y0172434D01*
X0030424Y0172399D01*
X0030278Y0172361D01*
X0030133Y0172320D01*
X0029989Y0172274D01*
X0029846Y0172225D01*
X0029704Y0172172D01*
X0029564Y0172115D01*
X0029426Y0172055D01*
X0029289Y0171991D01*
X0029154Y0171923D01*
X0029021Y0171852D01*
X0028889Y0171777D01*
X0028760Y0171700D01*
X0028633Y0171618D01*
X0028508Y0171534D01*
X0028385Y0171446D01*
X0028264Y0171355D01*
X0028146Y0171260D01*
X0028031Y0171163D01*
X0027918Y0171063D01*
X0027807Y0170960D01*
X0027700Y0170854D01*
X0027595Y0170745D01*
X0027493Y0170634D01*
X0027394Y0170519D01*
X0027298Y0170403D01*
X0027205Y0170284D01*
X0036884Y0170468D02*
X0036445Y0170154D01*
X0036445Y0170155D02*
X0036356Y0170275D01*
X0036264Y0170393D01*
X0036168Y0170508D01*
X0036070Y0170621D01*
X0035969Y0170731D01*
X0035865Y0170839D01*
X0035758Y0170943D01*
X0035648Y0171045D01*
X0035536Y0171144D01*
X0035422Y0171240D01*
X0035304Y0171333D01*
X0035185Y0171423D01*
X0035063Y0171510D01*
X0034939Y0171594D01*
X0034813Y0171674D01*
X0034684Y0171751D01*
X0034554Y0171825D01*
X0034422Y0171895D01*
X0034288Y0171962D01*
X0034152Y0172025D01*
X0034015Y0172084D01*
X0033877Y0172141D01*
X0033736Y0172193D01*
X0033595Y0172242D01*
X0033452Y0172287D01*
X0033308Y0172328D01*
X0033164Y0172365D01*
X0033018Y0172399D01*
X0032871Y0172429D01*
X0032724Y0172455D01*
X0032576Y0172477D01*
X0032427Y0172496D01*
X0032278Y0172510D01*
X0032129Y0172521D01*
X0031980Y0172527D01*
X0031830Y0172530D01*
X0031830Y0173069D01*
X0031830Y0173070D01*
X0031985Y0173067D01*
X0032140Y0173061D01*
X0032295Y0173050D01*
X0032450Y0173036D01*
X0032604Y0173018D01*
X0032758Y0172996D01*
X0032911Y0172971D01*
X0033063Y0172941D01*
X0033215Y0172908D01*
X0033366Y0172871D01*
X0033516Y0172831D01*
X0033665Y0172786D01*
X0033812Y0172738D01*
X0033959Y0172687D01*
X0034104Y0172631D01*
X0034247Y0172573D01*
X0034390Y0172510D01*
X0034530Y0172444D01*
X0034669Y0172375D01*
X0034806Y0172302D01*
X0034942Y0172226D01*
X0035075Y0172147D01*
X0035206Y0172064D01*
X0035336Y0171978D01*
X0035463Y0171889D01*
X0035588Y0171797D01*
X0035710Y0171701D01*
X0035830Y0171603D01*
X0035948Y0171502D01*
X0036063Y0171398D01*
X0036176Y0171291D01*
X0036286Y0171181D01*
X0036393Y0171069D01*
X0036497Y0170954D01*
X0036598Y0170836D01*
X0036697Y0170716D01*
X0036792Y0170593D01*
X0036885Y0170469D01*
X0036839Y0170436D01*
X0036747Y0170560D01*
X0036653Y0170681D01*
X0036555Y0170800D01*
X0036455Y0170917D01*
X0036351Y0171031D01*
X0036245Y0171142D01*
X0036137Y0171251D01*
X0036025Y0171357D01*
X0035911Y0171460D01*
X0035794Y0171560D01*
X0035675Y0171658D01*
X0035554Y0171752D01*
X0035430Y0171844D01*
X0035304Y0171932D01*
X0035176Y0172017D01*
X0035046Y0172099D01*
X0034914Y0172178D01*
X0034779Y0172253D01*
X0034643Y0172325D01*
X0034506Y0172394D01*
X0034367Y0172459D01*
X0034226Y0172521D01*
X0034083Y0172579D01*
X0033939Y0172634D01*
X0033794Y0172685D01*
X0033648Y0172733D01*
X0033501Y0172777D01*
X0033352Y0172817D01*
X0033203Y0172854D01*
X0033052Y0172886D01*
X0032901Y0172916D01*
X0032750Y0172941D01*
X0032597Y0172963D01*
X0032444Y0172980D01*
X0032291Y0172995D01*
X0032138Y0173005D01*
X0031984Y0173011D01*
X0031830Y0173014D01*
X0031830Y0172958D01*
X0031987Y0172955D01*
X0032143Y0172948D01*
X0032299Y0172938D01*
X0032455Y0172923D01*
X0032611Y0172904D01*
X0032766Y0172882D01*
X0032920Y0172855D01*
X0033074Y0172825D01*
X0033226Y0172791D01*
X0033378Y0172752D01*
X0033529Y0172710D01*
X0033679Y0172664D01*
X0033827Y0172615D01*
X0033974Y0172561D01*
X0034120Y0172504D01*
X0034264Y0172443D01*
X0034407Y0172379D01*
X0034548Y0172311D01*
X0034687Y0172239D01*
X0034825Y0172164D01*
X0034960Y0172085D01*
X0035093Y0172003D01*
X0035225Y0171918D01*
X0035354Y0171829D01*
X0035480Y0171737D01*
X0035605Y0171642D01*
X0035727Y0171544D01*
X0035846Y0171442D01*
X0035963Y0171338D01*
X0036077Y0171231D01*
X0036188Y0171121D01*
X0036296Y0171008D01*
X0036402Y0170892D01*
X0036504Y0170774D01*
X0036604Y0170653D01*
X0036700Y0170529D01*
X0036793Y0170404D01*
X0036748Y0170371D01*
X0036656Y0170496D01*
X0036560Y0170618D01*
X0036461Y0170738D01*
X0036360Y0170855D01*
X0036255Y0170970D01*
X0036148Y0171081D01*
X0036038Y0171191D01*
X0035925Y0171297D01*
X0035809Y0171400D01*
X0035691Y0171501D01*
X0035570Y0171598D01*
X0035447Y0171692D01*
X0035321Y0171784D01*
X0035193Y0171871D01*
X0035063Y0171956D01*
X0034931Y0172037D01*
X0034797Y0172115D01*
X0034661Y0172190D01*
X0034523Y0172261D01*
X0034383Y0172328D01*
X0034242Y0172392D01*
X0034099Y0172452D01*
X0033955Y0172509D01*
X0033809Y0172562D01*
X0033662Y0172611D01*
X0033513Y0172657D01*
X0033364Y0172698D01*
X0033213Y0172736D01*
X0033062Y0172770D01*
X0032910Y0172800D01*
X0032757Y0172826D01*
X0032603Y0172849D01*
X0032449Y0172867D01*
X0032295Y0172882D01*
X0032140Y0172893D01*
X0031985Y0172899D01*
X0031830Y0172902D01*
X0031830Y0172846D01*
X0031984Y0172843D01*
X0032137Y0172837D01*
X0032291Y0172826D01*
X0032444Y0172812D01*
X0032596Y0172793D01*
X0032748Y0172771D01*
X0032900Y0172745D01*
X0033051Y0172715D01*
X0033201Y0172682D01*
X0033350Y0172644D01*
X0033498Y0172603D01*
X0033645Y0172558D01*
X0033790Y0172509D01*
X0033935Y0172457D01*
X0034078Y0172400D01*
X0034220Y0172341D01*
X0034360Y0172277D01*
X0034498Y0172211D01*
X0034635Y0172140D01*
X0034770Y0172066D01*
X0034902Y0171989D01*
X0035033Y0171909D01*
X0035162Y0171825D01*
X0035289Y0171738D01*
X0035413Y0171648D01*
X0035535Y0171554D01*
X0035655Y0171458D01*
X0035772Y0171358D01*
X0035887Y0171256D01*
X0035999Y0171150D01*
X0036108Y0171042D01*
X0036214Y0170931D01*
X0036318Y0170818D01*
X0036419Y0170702D01*
X0036516Y0170583D01*
X0036611Y0170462D01*
X0036702Y0170339D01*
X0036657Y0170306D01*
X0036566Y0170428D01*
X0036472Y0170548D01*
X0036376Y0170666D01*
X0036276Y0170781D01*
X0036173Y0170893D01*
X0036068Y0171003D01*
X0035960Y0171110D01*
X0035849Y0171215D01*
X0035735Y0171316D01*
X0035619Y0171415D01*
X0035501Y0171510D01*
X0035380Y0171603D01*
X0035256Y0171692D01*
X0035131Y0171778D01*
X0035003Y0171861D01*
X0034874Y0171941D01*
X0034742Y0172018D01*
X0034608Y0172091D01*
X0034473Y0172160D01*
X0034336Y0172227D01*
X0034197Y0172289D01*
X0034057Y0172349D01*
X0033915Y0172404D01*
X0033772Y0172456D01*
X0033628Y0172504D01*
X0033482Y0172549D01*
X0033335Y0172590D01*
X0033188Y0172627D01*
X0033039Y0172660D01*
X0032890Y0172690D01*
X0032740Y0172716D01*
X0032589Y0172738D01*
X0032438Y0172756D01*
X0032286Y0172770D01*
X0032134Y0172781D01*
X0031982Y0172787D01*
X0031830Y0172790D01*
X0031830Y0172734D01*
X0031981Y0172731D01*
X0032132Y0172725D01*
X0032282Y0172714D01*
X0032432Y0172700D01*
X0032582Y0172682D01*
X0032731Y0172660D01*
X0032880Y0172635D01*
X0033028Y0172606D01*
X0033175Y0172573D01*
X0033321Y0172536D01*
X0033466Y0172495D01*
X0033611Y0172451D01*
X0033754Y0172403D01*
X0033895Y0172352D01*
X0034036Y0172297D01*
X0034175Y0172238D01*
X0034312Y0172176D01*
X0034448Y0172110D01*
X0034582Y0172041D01*
X0034715Y0171969D01*
X0034845Y0171893D01*
X0034973Y0171814D01*
X0035100Y0171732D01*
X0035224Y0171646D01*
X0035346Y0171558D01*
X0035466Y0171466D01*
X0035583Y0171372D01*
X0035698Y0171274D01*
X0035811Y0171173D01*
X0035921Y0171070D01*
X0036028Y0170964D01*
X0036132Y0170855D01*
X0036234Y0170744D01*
X0036333Y0170630D01*
X0036429Y0170513D01*
X0036521Y0170395D01*
X0036611Y0170273D01*
X0036566Y0170241D01*
X0036477Y0170361D01*
X0036385Y0170479D01*
X0036290Y0170594D01*
X0036192Y0170707D01*
X0036091Y0170817D01*
X0035988Y0170925D01*
X0035882Y0171030D01*
X0035773Y0171132D01*
X0035661Y0171232D01*
X0035547Y0171328D01*
X0035431Y0171422D01*
X0035313Y0171513D01*
X0035192Y0171601D01*
X0035069Y0171685D01*
X0034943Y0171767D01*
X0034816Y0171845D01*
X0034687Y0171920D01*
X0034556Y0171992D01*
X0034423Y0172060D01*
X0034289Y0172125D01*
X0034152Y0172187D01*
X0034015Y0172245D01*
X0033876Y0172299D01*
X0033735Y0172350D01*
X0033594Y0172398D01*
X0033451Y0172441D01*
X0033307Y0172482D01*
X0033162Y0172518D01*
X0033016Y0172551D01*
X0032870Y0172580D01*
X0032723Y0172605D01*
X0032575Y0172627D01*
X0032426Y0172645D01*
X0032278Y0172659D01*
X0032129Y0172669D01*
X0031979Y0172675D01*
X0031830Y0172678D01*
X0031830Y0172622D01*
X0031982Y0172619D01*
X0032134Y0172612D01*
X0032286Y0172602D01*
X0032437Y0172587D01*
X0032588Y0172568D01*
X0032738Y0172546D01*
X0032888Y0172519D01*
X0033037Y0172489D01*
X0033185Y0172455D01*
X0033332Y0172417D01*
X0033479Y0172375D01*
X0033624Y0172329D01*
X0033767Y0172280D01*
X0033910Y0172226D01*
X0034051Y0172169D01*
X0034190Y0172109D01*
X0034328Y0172045D01*
X0034464Y0171977D01*
X0034598Y0171905D01*
X0034731Y0171831D01*
X0034861Y0171752D01*
X0034989Y0171671D01*
X0035116Y0171586D01*
X0035239Y0171497D01*
X0035361Y0171406D01*
X0035480Y0171312D01*
X0035596Y0171214D01*
X0035710Y0171113D01*
X0035822Y0171010D01*
X0035930Y0170903D01*
X0036036Y0170794D01*
X0036139Y0170682D01*
X0036239Y0170567D01*
X0036336Y0170450D01*
X0036429Y0170330D01*
X0036520Y0170208D01*
X0036475Y0170176D01*
X0036385Y0170297D01*
X0036292Y0170415D01*
X0036196Y0170531D01*
X0036097Y0170645D01*
X0035995Y0170756D01*
X0035890Y0170864D01*
X0035783Y0170969D01*
X0035673Y0171072D01*
X0035560Y0171172D01*
X0035444Y0171268D01*
X0035327Y0171362D01*
X0035206Y0171452D01*
X0035084Y0171540D01*
X0034959Y0171624D01*
X0034832Y0171705D01*
X0034703Y0171782D01*
X0034571Y0171856D01*
X0034438Y0171927D01*
X0034304Y0171994D01*
X0034167Y0172058D01*
X0034029Y0172118D01*
X0033890Y0172174D01*
X0033748Y0172227D01*
X0033606Y0172276D01*
X0033463Y0172321D01*
X0033318Y0172363D01*
X0033172Y0172400D01*
X0033025Y0172434D01*
X0032878Y0172464D01*
X0032730Y0172491D01*
X0032581Y0172513D01*
X0032431Y0172531D01*
X0032281Y0172546D01*
X0032131Y0172556D01*
X0031981Y0172563D01*
X0031830Y0172566D01*
X0031830Y0160531D02*
X0031830Y0161071D01*
X0031830Y0161070D02*
X0031977Y0161073D01*
X0032124Y0161079D01*
X0032271Y0161089D01*
X0032418Y0161103D01*
X0032564Y0161121D01*
X0032710Y0161143D01*
X0032855Y0161168D01*
X0032999Y0161197D01*
X0033143Y0161229D01*
X0033285Y0161266D01*
X0033427Y0161306D01*
X0033567Y0161349D01*
X0033707Y0161397D01*
X0033845Y0161447D01*
X0033982Y0161502D01*
X0034117Y0161560D01*
X0034251Y0161621D01*
X0034384Y0161685D01*
X0034514Y0161754D01*
X0034643Y0161825D01*
X0034770Y0161900D01*
X0034895Y0161978D01*
X0035017Y0162059D01*
X0035138Y0162143D01*
X0035257Y0162230D01*
X0035373Y0162320D01*
X0035487Y0162414D01*
X0035598Y0162510D01*
X0035707Y0162609D01*
X0035814Y0162711D01*
X0035918Y0162815D01*
X0036019Y0162922D01*
X0036117Y0163032D01*
X0036212Y0163144D01*
X0036305Y0163259D01*
X0036730Y0162928D01*
X0036731Y0162927D01*
X0036633Y0162805D01*
X0036531Y0162685D01*
X0036427Y0162568D01*
X0036320Y0162454D01*
X0036209Y0162342D01*
X0036097Y0162234D01*
X0035981Y0162128D01*
X0035863Y0162025D01*
X0035742Y0161924D01*
X0035619Y0161827D01*
X0035494Y0161733D01*
X0035366Y0161643D01*
X0035236Y0161555D01*
X0035104Y0161471D01*
X0034969Y0161390D01*
X0034833Y0161312D01*
X0034695Y0161238D01*
X0034555Y0161168D01*
X0034413Y0161101D01*
X0034270Y0161037D01*
X0034125Y0160977D01*
X0033979Y0160921D01*
X0033831Y0160868D01*
X0033682Y0160819D01*
X0033532Y0160774D01*
X0033381Y0160733D01*
X0033228Y0160695D01*
X0033075Y0160661D01*
X0032921Y0160631D01*
X0032767Y0160605D01*
X0032612Y0160583D01*
X0032456Y0160564D01*
X0032300Y0160550D01*
X0032143Y0160539D01*
X0031987Y0160533D01*
X0031830Y0160530D01*
X0031830Y0160586D01*
X0031985Y0160589D01*
X0032141Y0160595D01*
X0032296Y0160606D01*
X0032450Y0160620D01*
X0032605Y0160638D01*
X0032758Y0160660D01*
X0032912Y0160686D01*
X0033064Y0160716D01*
X0033216Y0160749D01*
X0033367Y0160787D01*
X0033517Y0160828D01*
X0033665Y0160873D01*
X0033813Y0160921D01*
X0033959Y0160973D01*
X0034104Y0161029D01*
X0034248Y0161088D01*
X0034390Y0161151D01*
X0034530Y0161218D01*
X0034669Y0161288D01*
X0034806Y0161361D01*
X0034941Y0161438D01*
X0035074Y0161518D01*
X0035205Y0161602D01*
X0035334Y0161689D01*
X0035461Y0161779D01*
X0035585Y0161872D01*
X0035707Y0161968D01*
X0035827Y0162067D01*
X0035944Y0162169D01*
X0036058Y0162274D01*
X0036170Y0162382D01*
X0036279Y0162493D01*
X0036385Y0162606D01*
X0036489Y0162722D01*
X0036589Y0162841D01*
X0036687Y0162962D01*
X0036642Y0162996D01*
X0036546Y0162876D01*
X0036446Y0162759D01*
X0036344Y0162644D01*
X0036239Y0162531D01*
X0036130Y0162422D01*
X0036020Y0162315D01*
X0035906Y0162211D01*
X0035790Y0162110D01*
X0035672Y0162011D01*
X0035551Y0161916D01*
X0035427Y0161824D01*
X0035302Y0161735D01*
X0035174Y0161649D01*
X0035044Y0161566D01*
X0034913Y0161487D01*
X0034779Y0161410D01*
X0034643Y0161338D01*
X0034506Y0161268D01*
X0034367Y0161202D01*
X0034226Y0161140D01*
X0034084Y0161081D01*
X0033940Y0161026D01*
X0033795Y0160974D01*
X0033649Y0160926D01*
X0033501Y0160882D01*
X0033353Y0160841D01*
X0033203Y0160804D01*
X0033053Y0160771D01*
X0032902Y0160741D01*
X0032750Y0160716D01*
X0032598Y0160694D01*
X0032445Y0160676D01*
X0032291Y0160662D01*
X0032138Y0160651D01*
X0031984Y0160645D01*
X0031830Y0160642D01*
X0031830Y0160698D01*
X0031983Y0160701D01*
X0032135Y0160707D01*
X0032287Y0160717D01*
X0032439Y0160732D01*
X0032591Y0160749D01*
X0032742Y0160771D01*
X0032892Y0160796D01*
X0033042Y0160826D01*
X0033191Y0160859D01*
X0033339Y0160895D01*
X0033486Y0160935D01*
X0033632Y0160979D01*
X0033777Y0161027D01*
X0033920Y0161078D01*
X0034063Y0161133D01*
X0034204Y0161191D01*
X0034343Y0161253D01*
X0034481Y0161319D01*
X0034617Y0161387D01*
X0034752Y0161459D01*
X0034884Y0161535D01*
X0035015Y0161614D01*
X0035143Y0161696D01*
X0035270Y0161781D01*
X0035394Y0161869D01*
X0035517Y0161960D01*
X0035636Y0162055D01*
X0035754Y0162152D01*
X0035869Y0162252D01*
X0035981Y0162356D01*
X0036091Y0162461D01*
X0036198Y0162570D01*
X0036302Y0162681D01*
X0036404Y0162795D01*
X0036503Y0162912D01*
X0036598Y0163030D01*
X0036554Y0163065D01*
X0036459Y0162947D01*
X0036361Y0162832D01*
X0036261Y0162719D01*
X0036157Y0162609D01*
X0036051Y0162501D01*
X0035943Y0162396D01*
X0035831Y0162294D01*
X0035717Y0162195D01*
X0035601Y0162098D01*
X0035482Y0162005D01*
X0035361Y0161914D01*
X0035238Y0161827D01*
X0035113Y0161742D01*
X0034985Y0161661D01*
X0034856Y0161583D01*
X0034725Y0161508D01*
X0034591Y0161437D01*
X0034456Y0161369D01*
X0034320Y0161304D01*
X0034182Y0161243D01*
X0034042Y0161185D01*
X0033901Y0161131D01*
X0033759Y0161080D01*
X0033615Y0161033D01*
X0033470Y0160989D01*
X0033325Y0160949D01*
X0033178Y0160913D01*
X0033030Y0160881D01*
X0032882Y0160852D01*
X0032733Y0160826D01*
X0032583Y0160805D01*
X0032433Y0160787D01*
X0032283Y0160773D01*
X0032132Y0160763D01*
X0031981Y0160757D01*
X0031830Y0160754D01*
X0031830Y0160810D01*
X0031984Y0160813D01*
X0032138Y0160820D01*
X0032291Y0160830D01*
X0032445Y0160845D01*
X0032598Y0160863D01*
X0032750Y0160886D01*
X0032902Y0160912D01*
X0033053Y0160942D01*
X0033203Y0160977D01*
X0033352Y0161015D01*
X0033500Y0161056D01*
X0033647Y0161102D01*
X0033793Y0161151D01*
X0033938Y0161204D01*
X0034081Y0161261D01*
X0034222Y0161322D01*
X0034362Y0161386D01*
X0034501Y0161453D01*
X0034637Y0161525D01*
X0034772Y0161599D01*
X0034905Y0161677D01*
X0035035Y0161759D01*
X0035164Y0161844D01*
X0035290Y0161932D01*
X0035414Y0162023D01*
X0035536Y0162118D01*
X0035655Y0162215D01*
X0035771Y0162316D01*
X0035885Y0162419D01*
X0035997Y0162526D01*
X0036105Y0162635D01*
X0036211Y0162747D01*
X0036313Y0162862D01*
X0036413Y0162979D01*
X0036510Y0163099D01*
X0036466Y0163133D01*
X0036370Y0163015D01*
X0036271Y0162899D01*
X0036169Y0162785D01*
X0036065Y0162674D01*
X0035957Y0162566D01*
X0035847Y0162460D01*
X0035734Y0162358D01*
X0035619Y0162258D01*
X0035501Y0162161D01*
X0035380Y0162068D01*
X0035257Y0161977D01*
X0035132Y0161890D01*
X0035005Y0161806D01*
X0034876Y0161725D01*
X0034744Y0161648D01*
X0034611Y0161574D01*
X0034476Y0161503D01*
X0034339Y0161436D01*
X0034200Y0161373D01*
X0034060Y0161313D01*
X0033918Y0161257D01*
X0033775Y0161204D01*
X0033630Y0161155D01*
X0033484Y0161110D01*
X0033338Y0161069D01*
X0033190Y0161031D01*
X0033041Y0160997D01*
X0032892Y0160967D01*
X0032741Y0160941D01*
X0032590Y0160919D01*
X0032439Y0160900D01*
X0032287Y0160886D01*
X0032135Y0160875D01*
X0031983Y0160869D01*
X0031830Y0160866D01*
X0031830Y0160922D01*
X0031981Y0160925D01*
X0032132Y0160931D01*
X0032283Y0160942D01*
X0032433Y0160956D01*
X0032583Y0160974D01*
X0032733Y0160996D01*
X0032881Y0161022D01*
X0033030Y0161052D01*
X0033177Y0161086D01*
X0033323Y0161123D01*
X0033469Y0161164D01*
X0033613Y0161209D01*
X0033756Y0161257D01*
X0033898Y0161309D01*
X0034038Y0161365D01*
X0034177Y0161424D01*
X0034315Y0161487D01*
X0034450Y0161553D01*
X0034584Y0161623D01*
X0034716Y0161696D01*
X0034847Y0161773D01*
X0034975Y0161853D01*
X0035101Y0161936D01*
X0035225Y0162023D01*
X0035346Y0162112D01*
X0035466Y0162205D01*
X0035583Y0162301D01*
X0035697Y0162399D01*
X0035809Y0162501D01*
X0035918Y0162605D01*
X0036024Y0162713D01*
X0036128Y0162823D01*
X0036229Y0162935D01*
X0036327Y0163050D01*
X0036421Y0163168D01*
X0036377Y0163202D01*
X0036283Y0163086D01*
X0036186Y0162972D01*
X0036087Y0162860D01*
X0035984Y0162751D01*
X0035878Y0162645D01*
X0035770Y0162542D01*
X0035660Y0162441D01*
X0035546Y0162344D01*
X0035431Y0162249D01*
X0035312Y0162157D01*
X0035192Y0162068D01*
X0035069Y0161983D01*
X0034944Y0161900D01*
X0034817Y0161821D01*
X0034689Y0161745D01*
X0034558Y0161673D01*
X0034425Y0161603D01*
X0034291Y0161538D01*
X0034155Y0161475D01*
X0034017Y0161417D01*
X0033878Y0161361D01*
X0033737Y0161310D01*
X0033596Y0161262D01*
X0033453Y0161218D01*
X0033309Y0161177D01*
X0033164Y0161140D01*
X0033018Y0161107D01*
X0032871Y0161077D01*
X0032724Y0161052D01*
X0032576Y0161030D01*
X0032427Y0161012D01*
X0032278Y0160998D01*
X0032129Y0160987D01*
X0031980Y0160981D01*
X0031830Y0160978D01*
X0031830Y0161034D01*
X0031978Y0161037D01*
X0032126Y0161043D01*
X0032274Y0161054D01*
X0032421Y0161068D01*
X0032569Y0161085D01*
X0032715Y0161107D01*
X0032861Y0161132D01*
X0033006Y0161162D01*
X0033151Y0161194D01*
X0033294Y0161231D01*
X0033437Y0161271D01*
X0033579Y0161315D01*
X0033719Y0161363D01*
X0033858Y0161414D01*
X0033996Y0161468D01*
X0034132Y0161527D01*
X0034267Y0161588D01*
X0034400Y0161653D01*
X0034531Y0161722D01*
X0034661Y0161794D01*
X0034788Y0161869D01*
X0034914Y0161947D01*
X0035038Y0162029D01*
X0035159Y0162114D01*
X0035279Y0162201D01*
X0035396Y0162292D01*
X0035510Y0162386D01*
X0035622Y0162483D01*
X0035732Y0162583D01*
X0035839Y0162685D01*
X0035944Y0162790D01*
X0036045Y0162898D01*
X0036144Y0163008D01*
X0036240Y0163121D01*
X0036333Y0163237D01*
D14*
X0031750Y0175249D02*
X0031750Y0174349D01*
X0031750Y0174350D02*
X0031567Y0174346D01*
X0031384Y0174339D01*
X0031201Y0174326D01*
X0031018Y0174309D01*
X0030836Y0174288D01*
X0030655Y0174263D01*
X0030474Y0174233D01*
X0030294Y0174198D01*
X0030115Y0174160D01*
X0029937Y0174117D01*
X0029760Y0174069D01*
X0029585Y0174018D01*
X0029410Y0173962D01*
X0029237Y0173902D01*
X0029066Y0173837D01*
X0028896Y0173769D01*
X0028727Y0173697D01*
X0028561Y0173620D01*
X0028397Y0173539D01*
X0028234Y0173455D01*
X0028074Y0173366D01*
X0027915Y0173274D01*
X0027759Y0173178D01*
X0027606Y0173078D01*
X0027455Y0172974D01*
X0027306Y0172867D01*
X0027160Y0172756D01*
X0027017Y0172642D01*
X0026877Y0172524D01*
X0026740Y0172403D01*
X0026605Y0172279D01*
X0026474Y0172151D01*
X0026345Y0172020D01*
X0026220Y0171886D01*
X0026099Y0171750D01*
X0025980Y0171610D01*
X0025865Y0171467D01*
X0025754Y0171322D01*
X0025646Y0171174D01*
X0025542Y0171023D01*
X0025441Y0170870D01*
X0025344Y0170715D01*
X0025251Y0170557D01*
X0025162Y0170397D01*
X0024368Y0170820D01*
X0024468Y0171000D01*
X0024572Y0171177D01*
X0024680Y0171351D01*
X0024793Y0171523D01*
X0024910Y0171691D01*
X0025031Y0171857D01*
X0025155Y0172020D01*
X0025284Y0172180D01*
X0025417Y0172337D01*
X0025553Y0172490D01*
X0025693Y0172640D01*
X0025837Y0172787D01*
X0025984Y0172930D01*
X0026135Y0173070D01*
X0026289Y0173205D01*
X0026446Y0173337D01*
X0026606Y0173465D01*
X0026770Y0173590D01*
X0026936Y0173710D01*
X0027106Y0173826D01*
X0027278Y0173938D01*
X0027452Y0174046D01*
X0027630Y0174149D01*
X0027809Y0174248D01*
X0027992Y0174343D01*
X0028176Y0174433D01*
X0028362Y0174519D01*
X0028551Y0174600D01*
X0028741Y0174677D01*
X0028934Y0174749D01*
X0029128Y0174816D01*
X0029323Y0174879D01*
X0029520Y0174937D01*
X0029718Y0174990D01*
X0029918Y0175038D01*
X0030119Y0175081D01*
X0030320Y0175119D01*
X0030523Y0175153D01*
X0030726Y0175181D01*
X0030930Y0175205D01*
X0031135Y0175224D01*
X0031339Y0175237D01*
X0031544Y0175246D01*
X0031750Y0175250D01*
X0031750Y0175156D01*
X0031547Y0175152D01*
X0031344Y0175144D01*
X0031141Y0175130D01*
X0030939Y0175112D01*
X0030738Y0175088D01*
X0030537Y0175060D01*
X0030336Y0175027D01*
X0030137Y0174989D01*
X0029939Y0174946D01*
X0029741Y0174898D01*
X0029545Y0174846D01*
X0029350Y0174789D01*
X0029157Y0174727D01*
X0028965Y0174660D01*
X0028775Y0174589D01*
X0028587Y0174514D01*
X0028401Y0174433D01*
X0028216Y0174348D01*
X0028034Y0174259D01*
X0027854Y0174165D01*
X0027676Y0174067D01*
X0027501Y0173965D01*
X0027328Y0173859D01*
X0027158Y0173748D01*
X0026990Y0173633D01*
X0026826Y0173514D01*
X0026664Y0173391D01*
X0026506Y0173265D01*
X0026350Y0173134D01*
X0026198Y0173000D01*
X0026049Y0172862D01*
X0025903Y0172721D01*
X0025761Y0172576D01*
X0025623Y0172427D01*
X0025488Y0172276D01*
X0025357Y0172121D01*
X0025230Y0171963D01*
X0025106Y0171801D01*
X0024987Y0171637D01*
X0024871Y0171470D01*
X0024760Y0171301D01*
X0024652Y0171128D01*
X0024549Y0170953D01*
X0024451Y0170776D01*
X0024534Y0170732D01*
X0024631Y0170907D01*
X0024733Y0171080D01*
X0024839Y0171250D01*
X0024949Y0171418D01*
X0025063Y0171583D01*
X0025182Y0171745D01*
X0025304Y0171905D01*
X0025430Y0172061D01*
X0025559Y0172214D01*
X0025693Y0172364D01*
X0025829Y0172511D01*
X0025970Y0172654D01*
X0026114Y0172794D01*
X0026261Y0172930D01*
X0026412Y0173063D01*
X0026565Y0173192D01*
X0026722Y0173317D01*
X0026882Y0173439D01*
X0027045Y0173556D01*
X0027210Y0173670D01*
X0027378Y0173779D01*
X0027549Y0173885D01*
X0027722Y0173986D01*
X0027898Y0174083D01*
X0028076Y0174175D01*
X0028256Y0174263D01*
X0028439Y0174347D01*
X0028623Y0174427D01*
X0028809Y0174502D01*
X0028997Y0174572D01*
X0029187Y0174638D01*
X0029378Y0174699D01*
X0029570Y0174755D01*
X0029764Y0174807D01*
X0029959Y0174854D01*
X0030155Y0174897D01*
X0030353Y0174934D01*
X0030551Y0174967D01*
X0030749Y0174995D01*
X0030949Y0175018D01*
X0031148Y0175036D01*
X0031349Y0175050D01*
X0031549Y0175058D01*
X0031750Y0175062D01*
X0031750Y0174968D01*
X0031551Y0174964D01*
X0031353Y0174956D01*
X0031155Y0174943D01*
X0030958Y0174924D01*
X0030761Y0174902D01*
X0030564Y0174874D01*
X0030369Y0174842D01*
X0030174Y0174804D01*
X0029980Y0174763D01*
X0029787Y0174716D01*
X0029595Y0174665D01*
X0029405Y0174609D01*
X0029216Y0174549D01*
X0029029Y0174484D01*
X0028843Y0174414D01*
X0028659Y0174340D01*
X0028477Y0174261D01*
X0028297Y0174178D01*
X0028118Y0174091D01*
X0027942Y0174000D01*
X0027769Y0173904D01*
X0027597Y0173804D01*
X0027429Y0173700D01*
X0027262Y0173592D01*
X0027099Y0173479D01*
X0026938Y0173363D01*
X0026780Y0173243D01*
X0026625Y0173119D01*
X0026473Y0172992D01*
X0026324Y0172861D01*
X0026179Y0172726D01*
X0026036Y0172588D01*
X0025898Y0172446D01*
X0025762Y0172301D01*
X0025630Y0172153D01*
X0025502Y0172001D01*
X0025378Y0171847D01*
X0025257Y0171690D01*
X0025140Y0171529D01*
X0025027Y0171366D01*
X0024919Y0171200D01*
X0024814Y0171032D01*
X0024713Y0170861D01*
X0024617Y0170688D01*
X0024699Y0170643D01*
X0024795Y0170815D01*
X0024894Y0170984D01*
X0024998Y0171150D01*
X0025106Y0171314D01*
X0025217Y0171475D01*
X0025333Y0171634D01*
X0025452Y0171789D01*
X0025575Y0171942D01*
X0025702Y0172091D01*
X0025832Y0172238D01*
X0025966Y0172381D01*
X0026103Y0172521D01*
X0026244Y0172658D01*
X0026387Y0172791D01*
X0026534Y0172921D01*
X0026685Y0173047D01*
X0026838Y0173169D01*
X0026994Y0173288D01*
X0027153Y0173403D01*
X0027315Y0173513D01*
X0027479Y0173620D01*
X0027646Y0173723D01*
X0027815Y0173822D01*
X0027987Y0173917D01*
X0028161Y0174007D01*
X0028337Y0174094D01*
X0028515Y0174175D01*
X0028695Y0174253D01*
X0028877Y0174326D01*
X0029060Y0174395D01*
X0029246Y0174459D01*
X0029432Y0174519D01*
X0029620Y0174574D01*
X0029810Y0174625D01*
X0030000Y0174671D01*
X0030192Y0174712D01*
X0030385Y0174749D01*
X0030578Y0174781D01*
X0030772Y0174808D01*
X0030967Y0174831D01*
X0031162Y0174849D01*
X0031358Y0174862D01*
X0031554Y0174870D01*
X0031750Y0174874D01*
X0031750Y0174780D01*
X0031556Y0174776D01*
X0031362Y0174768D01*
X0031169Y0174755D01*
X0030976Y0174737D01*
X0030784Y0174715D01*
X0030592Y0174688D01*
X0030401Y0174656D01*
X0030210Y0174620D01*
X0030021Y0174579D01*
X0029833Y0174534D01*
X0029646Y0174484D01*
X0029460Y0174429D01*
X0029275Y0174370D01*
X0029092Y0174307D01*
X0028911Y0174239D01*
X0028731Y0174166D01*
X0028553Y0174090D01*
X0028377Y0174009D01*
X0028203Y0173923D01*
X0028031Y0173834D01*
X0027861Y0173740D01*
X0027694Y0173643D01*
X0027529Y0173541D01*
X0027367Y0173435D01*
X0027207Y0173326D01*
X0027050Y0173212D01*
X0026896Y0173095D01*
X0026744Y0172974D01*
X0026596Y0172850D01*
X0026451Y0172722D01*
X0026308Y0172590D01*
X0026169Y0172455D01*
X0026034Y0172317D01*
X0025902Y0172175D01*
X0025773Y0172030D01*
X0025648Y0171882D01*
X0025526Y0171731D01*
X0025408Y0171578D01*
X0025294Y0171421D01*
X0025184Y0171262D01*
X0025078Y0171100D01*
X0024975Y0170935D01*
X0024877Y0170768D01*
X0024782Y0170599D01*
X0024865Y0170555D01*
X0024959Y0170722D01*
X0025056Y0170887D01*
X0025157Y0171050D01*
X0025262Y0171210D01*
X0025371Y0171367D01*
X0025484Y0171522D01*
X0025600Y0171674D01*
X0025720Y0171823D01*
X0025844Y0171969D01*
X0025971Y0172112D01*
X0026102Y0172252D01*
X0026236Y0172388D01*
X0026373Y0172522D01*
X0026514Y0172652D01*
X0026657Y0172779D01*
X0026804Y0172902D01*
X0026954Y0173021D01*
X0027106Y0173137D01*
X0027261Y0173249D01*
X0027419Y0173357D01*
X0027580Y0173462D01*
X0027743Y0173562D01*
X0027908Y0173659D01*
X0028075Y0173751D01*
X0028245Y0173839D01*
X0028417Y0173924D01*
X0028591Y0174004D01*
X0028767Y0174079D01*
X0028945Y0174151D01*
X0029124Y0174218D01*
X0029305Y0174281D01*
X0029487Y0174339D01*
X0029671Y0174393D01*
X0029856Y0174443D01*
X0030042Y0174487D01*
X0030229Y0174528D01*
X0030417Y0174564D01*
X0030606Y0174595D01*
X0030795Y0174622D01*
X0030985Y0174644D01*
X0031176Y0174661D01*
X0031367Y0174674D01*
X0031558Y0174682D01*
X0031750Y0174686D01*
X0031750Y0174592D01*
X0031561Y0174588D01*
X0031372Y0174580D01*
X0031183Y0174568D01*
X0030995Y0174550D01*
X0030807Y0174528D01*
X0030620Y0174502D01*
X0030433Y0174471D01*
X0030247Y0174436D01*
X0030062Y0174396D01*
X0029878Y0174351D01*
X0029696Y0174302D01*
X0029514Y0174249D01*
X0029334Y0174192D01*
X0029156Y0174130D01*
X0028978Y0174063D01*
X0028803Y0173993D01*
X0028629Y0173918D01*
X0028457Y0173839D01*
X0028288Y0173755D01*
X0028120Y0173668D01*
X0027954Y0173577D01*
X0027791Y0173481D01*
X0027630Y0173382D01*
X0027471Y0173279D01*
X0027315Y0173172D01*
X0027162Y0173061D01*
X0027011Y0172947D01*
X0026864Y0172829D01*
X0026719Y0172707D01*
X0026577Y0172582D01*
X0026438Y0172454D01*
X0026303Y0172322D01*
X0026170Y0172187D01*
X0026041Y0172049D01*
X0025915Y0171907D01*
X0025793Y0171763D01*
X0025674Y0171616D01*
X0025559Y0171466D01*
X0025448Y0171313D01*
X0025340Y0171157D01*
X0025236Y0170999D01*
X0025136Y0170839D01*
X0025040Y0170676D01*
X0024948Y0170511D01*
X0025031Y0170466D01*
X0025122Y0170630D01*
X0025217Y0170791D01*
X0025316Y0170949D01*
X0025418Y0171105D01*
X0025525Y0171259D01*
X0025635Y0171410D01*
X0025749Y0171558D01*
X0025866Y0171704D01*
X0025987Y0171846D01*
X0026111Y0171986D01*
X0026238Y0172122D01*
X0026369Y0172256D01*
X0026503Y0172386D01*
X0026640Y0172513D01*
X0026780Y0172636D01*
X0026923Y0172756D01*
X0027069Y0172873D01*
X0027218Y0172986D01*
X0027370Y0173095D01*
X0027524Y0173201D01*
X0027680Y0173303D01*
X0027839Y0173401D01*
X0028001Y0173495D01*
X0028164Y0173585D01*
X0028330Y0173672D01*
X0028498Y0173754D01*
X0028667Y0173832D01*
X0028839Y0173906D01*
X0029012Y0173975D01*
X0029187Y0174041D01*
X0029364Y0174102D01*
X0029542Y0174159D01*
X0029721Y0174212D01*
X0029901Y0174260D01*
X0030083Y0174304D01*
X0030266Y0174344D01*
X0030449Y0174379D01*
X0030633Y0174409D01*
X0030818Y0174435D01*
X0031004Y0174457D01*
X0031190Y0174474D01*
X0031376Y0174486D01*
X0031563Y0174494D01*
X0031750Y0174498D01*
X0031750Y0174404D01*
X0031565Y0174400D01*
X0031381Y0174392D01*
X0031197Y0174380D01*
X0031013Y0174363D01*
X0030830Y0174342D01*
X0030647Y0174316D01*
X0030465Y0174286D01*
X0030284Y0174251D01*
X0030104Y0174212D01*
X0029924Y0174169D01*
X0029746Y0174121D01*
X0029569Y0174069D01*
X0029393Y0174013D01*
X0029219Y0173953D01*
X0029046Y0173888D01*
X0028875Y0173819D01*
X0028706Y0173746D01*
X0028538Y0173669D01*
X0028372Y0173588D01*
X0028209Y0173502D01*
X0028047Y0173413D01*
X0027888Y0173320D01*
X0027731Y0173223D01*
X0027576Y0173123D01*
X0027424Y0173018D01*
X0027274Y0172910D01*
X0027127Y0172799D01*
X0026983Y0172684D01*
X0026842Y0172565D01*
X0026703Y0172443D01*
X0026568Y0172318D01*
X0026436Y0172189D01*
X0026306Y0172057D01*
X0026180Y0171923D01*
X0026058Y0171785D01*
X0025939Y0171644D01*
X0025823Y0171500D01*
X0025710Y0171354D01*
X0025602Y0171205D01*
X0025497Y0171053D01*
X0025395Y0170899D01*
X0025298Y0170742D01*
X0025204Y0170583D01*
X0025114Y0170422D01*
X0024489Y0162565D02*
X0025270Y0163011D01*
X0025363Y0162854D01*
X0025460Y0162700D01*
X0025561Y0162548D01*
X0025666Y0162399D01*
X0025774Y0162252D01*
X0025885Y0162107D01*
X0026000Y0161966D01*
X0026119Y0161827D01*
X0026241Y0161692D01*
X0026366Y0161559D01*
X0026494Y0161429D01*
X0026625Y0161303D01*
X0026759Y0161179D01*
X0026896Y0161059D01*
X0027036Y0160942D01*
X0027179Y0160829D01*
X0027325Y0160719D01*
X0027473Y0160613D01*
X0027624Y0160510D01*
X0027777Y0160411D01*
X0027932Y0160316D01*
X0028090Y0160225D01*
X0028250Y0160137D01*
X0028412Y0160053D01*
X0028575Y0159973D01*
X0028741Y0159897D01*
X0028909Y0159826D01*
X0029078Y0159758D01*
X0029249Y0159694D01*
X0029421Y0159635D01*
X0029595Y0159579D01*
X0029770Y0159528D01*
X0029946Y0159481D01*
X0030123Y0159439D01*
X0030302Y0159400D01*
X0030481Y0159366D01*
X0030661Y0159336D01*
X0030841Y0159311D01*
X0031022Y0159290D01*
X0031204Y0159274D01*
X0031386Y0159261D01*
X0031568Y0159254D01*
X0031750Y0159250D01*
X0031751Y0158351D01*
X0031750Y0158350D01*
X0031546Y0158354D01*
X0031342Y0158362D01*
X0031138Y0158376D01*
X0030934Y0158394D01*
X0030731Y0158418D01*
X0030529Y0158446D01*
X0030327Y0158479D01*
X0030127Y0158517D01*
X0029927Y0158560D01*
X0029728Y0158608D01*
X0029531Y0158660D01*
X0029335Y0158718D01*
X0029140Y0158780D01*
X0028947Y0158846D01*
X0028755Y0158918D01*
X0028566Y0158994D01*
X0028378Y0159074D01*
X0028192Y0159159D01*
X0028008Y0159249D01*
X0027827Y0159342D01*
X0027648Y0159441D01*
X0027471Y0159543D01*
X0027297Y0159650D01*
X0027125Y0159761D01*
X0026956Y0159876D01*
X0026790Y0159995D01*
X0026627Y0160118D01*
X0026467Y0160245D01*
X0026310Y0160376D01*
X0026156Y0160511D01*
X0026006Y0160649D01*
X0025859Y0160791D01*
X0025715Y0160936D01*
X0025575Y0161085D01*
X0025439Y0161237D01*
X0025306Y0161393D01*
X0025178Y0161551D01*
X0025053Y0161713D01*
X0024932Y0161878D01*
X0024815Y0162045D01*
X0024702Y0162216D01*
X0024593Y0162389D01*
X0024488Y0162564D01*
X0024570Y0162611D01*
X0024673Y0162437D01*
X0024781Y0162266D01*
X0024893Y0162098D01*
X0025008Y0161932D01*
X0025128Y0161769D01*
X0025252Y0161610D01*
X0025379Y0161453D01*
X0025510Y0161299D01*
X0025645Y0161149D01*
X0025783Y0161001D01*
X0025925Y0160858D01*
X0026071Y0160717D01*
X0026219Y0160581D01*
X0026371Y0160448D01*
X0026527Y0160318D01*
X0026685Y0160193D01*
X0026846Y0160071D01*
X0027010Y0159953D01*
X0027177Y0159839D01*
X0027347Y0159730D01*
X0027519Y0159624D01*
X0027694Y0159523D01*
X0027871Y0159425D01*
X0028050Y0159333D01*
X0028232Y0159244D01*
X0028416Y0159160D01*
X0028601Y0159080D01*
X0028789Y0159005D01*
X0028978Y0158935D01*
X0029169Y0158869D01*
X0029362Y0158808D01*
X0029556Y0158751D01*
X0029751Y0158699D01*
X0029947Y0158652D01*
X0030145Y0158610D01*
X0030343Y0158572D01*
X0030543Y0158539D01*
X0030743Y0158511D01*
X0030944Y0158488D01*
X0031145Y0158470D01*
X0031346Y0158456D01*
X0031548Y0158448D01*
X0031750Y0158444D01*
X0031750Y0158538D01*
X0031551Y0158542D01*
X0031351Y0158550D01*
X0031152Y0158563D01*
X0030953Y0158582D01*
X0030754Y0158604D01*
X0030557Y0158632D01*
X0030359Y0158665D01*
X0030163Y0158702D01*
X0029968Y0158744D01*
X0029774Y0158790D01*
X0029581Y0158842D01*
X0029389Y0158898D01*
X0029199Y0158958D01*
X0029010Y0159023D01*
X0028823Y0159093D01*
X0028637Y0159167D01*
X0028454Y0159246D01*
X0028272Y0159329D01*
X0028092Y0159417D01*
X0027915Y0159508D01*
X0027740Y0159604D01*
X0027567Y0159705D01*
X0027397Y0159809D01*
X0027229Y0159918D01*
X0027064Y0160030D01*
X0026902Y0160146D01*
X0026743Y0160267D01*
X0026586Y0160391D01*
X0026433Y0160519D01*
X0026282Y0160650D01*
X0026135Y0160786D01*
X0025992Y0160924D01*
X0025851Y0161066D01*
X0025714Y0161212D01*
X0025581Y0161361D01*
X0025451Y0161513D01*
X0025325Y0161668D01*
X0025203Y0161826D01*
X0025085Y0161987D01*
X0024971Y0162150D01*
X0024860Y0162317D01*
X0024754Y0162486D01*
X0024652Y0162657D01*
X0024733Y0162704D01*
X0024834Y0162534D01*
X0024939Y0162367D01*
X0025049Y0162203D01*
X0025162Y0162041D01*
X0025279Y0161882D01*
X0025399Y0161726D01*
X0025524Y0161572D01*
X0025652Y0161422D01*
X0025784Y0161275D01*
X0025919Y0161131D01*
X0026058Y0160991D01*
X0026200Y0160854D01*
X0026345Y0160720D01*
X0026494Y0160590D01*
X0026646Y0160464D01*
X0026800Y0160341D01*
X0026958Y0160222D01*
X0027118Y0160107D01*
X0027281Y0159996D01*
X0027447Y0159889D01*
X0027615Y0159785D01*
X0027786Y0159686D01*
X0027959Y0159591D01*
X0028135Y0159501D01*
X0028312Y0159414D01*
X0028492Y0159332D01*
X0028673Y0159254D01*
X0028856Y0159181D01*
X0029041Y0159112D01*
X0029228Y0159048D01*
X0029416Y0158988D01*
X0029606Y0158932D01*
X0029796Y0158882D01*
X0029988Y0158835D01*
X0030181Y0158794D01*
X0030375Y0158757D01*
X0030570Y0158725D01*
X0030766Y0158698D01*
X0030962Y0158675D01*
X0031159Y0158657D01*
X0031356Y0158644D01*
X0031553Y0158636D01*
X0031750Y0158632D01*
X0031750Y0158726D01*
X0031555Y0158730D01*
X0031360Y0158738D01*
X0031165Y0158751D01*
X0030971Y0158769D01*
X0030777Y0158791D01*
X0030584Y0158818D01*
X0030391Y0158850D01*
X0030200Y0158886D01*
X0030009Y0158927D01*
X0029819Y0158973D01*
X0029631Y0159023D01*
X0029443Y0159078D01*
X0029257Y0159137D01*
X0029073Y0159200D01*
X0028890Y0159269D01*
X0028709Y0159341D01*
X0028530Y0159418D01*
X0028352Y0159499D01*
X0028177Y0159585D01*
X0028003Y0159674D01*
X0027832Y0159768D01*
X0027664Y0159866D01*
X0027497Y0159968D01*
X0027333Y0160074D01*
X0027172Y0160184D01*
X0027014Y0160298D01*
X0026858Y0160415D01*
X0026705Y0160537D01*
X0026555Y0160662D01*
X0026408Y0160790D01*
X0026265Y0160922D01*
X0026124Y0161058D01*
X0025987Y0161197D01*
X0025853Y0161339D01*
X0025723Y0161484D01*
X0025596Y0161632D01*
X0025473Y0161784D01*
X0025354Y0161938D01*
X0025238Y0162095D01*
X0025127Y0162255D01*
X0025019Y0162418D01*
X0024915Y0162583D01*
X0024815Y0162751D01*
X0024896Y0162797D01*
X0024995Y0162632D01*
X0025098Y0162468D01*
X0025205Y0162308D01*
X0025315Y0162150D01*
X0025429Y0161994D01*
X0025547Y0161842D01*
X0025669Y0161692D01*
X0025794Y0161546D01*
X0025923Y0161402D01*
X0026055Y0161262D01*
X0026190Y0161124D01*
X0026329Y0160990D01*
X0026471Y0160860D01*
X0026616Y0160733D01*
X0026764Y0160609D01*
X0026915Y0160490D01*
X0027069Y0160373D01*
X0027226Y0160261D01*
X0027385Y0160152D01*
X0027547Y0160048D01*
X0027712Y0159947D01*
X0027878Y0159850D01*
X0028048Y0159757D01*
X0028219Y0159669D01*
X0028392Y0159584D01*
X0028568Y0159504D01*
X0028745Y0159428D01*
X0028924Y0159356D01*
X0029105Y0159289D01*
X0029287Y0159226D01*
X0029471Y0159168D01*
X0029656Y0159114D01*
X0029842Y0159064D01*
X0030030Y0159019D01*
X0030218Y0158978D01*
X0030407Y0158942D01*
X0030598Y0158911D01*
X0030789Y0158884D01*
X0030980Y0158862D01*
X0031172Y0158845D01*
X0031365Y0158832D01*
X0031557Y0158824D01*
X0031750Y0158820D01*
X0031750Y0158914D01*
X0031560Y0158918D01*
X0031369Y0158926D01*
X0031179Y0158938D01*
X0030989Y0158956D01*
X0030800Y0158978D01*
X0030612Y0159004D01*
X0030424Y0159035D01*
X0030236Y0159071D01*
X0030050Y0159111D01*
X0029865Y0159155D01*
X0029681Y0159204D01*
X0029498Y0159258D01*
X0029316Y0159315D01*
X0029136Y0159378D01*
X0028958Y0159444D01*
X0028781Y0159515D01*
X0028606Y0159590D01*
X0028432Y0159669D01*
X0028261Y0159753D01*
X0028092Y0159840D01*
X0027925Y0159932D01*
X0027760Y0160028D01*
X0027597Y0160127D01*
X0027437Y0160231D01*
X0027280Y0160338D01*
X0027125Y0160449D01*
X0026973Y0160564D01*
X0026824Y0160682D01*
X0026678Y0160804D01*
X0026534Y0160930D01*
X0026394Y0161059D01*
X0026257Y0161191D01*
X0026123Y0161327D01*
X0025992Y0161465D01*
X0025865Y0161607D01*
X0025741Y0161752D01*
X0025621Y0161900D01*
X0025505Y0162051D01*
X0025392Y0162204D01*
X0025283Y0162360D01*
X0025177Y0162519D01*
X0025076Y0162680D01*
X0024978Y0162844D01*
X0025060Y0162891D01*
X0025156Y0162729D01*
X0025256Y0162570D01*
X0025360Y0162413D01*
X0025468Y0162258D01*
X0025580Y0162107D01*
X0025695Y0161958D01*
X0025814Y0161812D01*
X0025936Y0161669D01*
X0026062Y0161529D01*
X0026191Y0161392D01*
X0026323Y0161258D01*
X0026459Y0161127D01*
X0026597Y0161000D01*
X0026739Y0160876D01*
X0026883Y0160755D01*
X0027031Y0160638D01*
X0027181Y0160525D01*
X0027334Y0160415D01*
X0027490Y0160309D01*
X0027648Y0160207D01*
X0027808Y0160108D01*
X0027971Y0160014D01*
X0028136Y0159923D01*
X0028303Y0159837D01*
X0028472Y0159754D01*
X0028643Y0159676D01*
X0028816Y0159602D01*
X0028991Y0159532D01*
X0029168Y0159466D01*
X0029346Y0159405D01*
X0029525Y0159348D01*
X0029706Y0159295D01*
X0029888Y0159246D01*
X0030071Y0159202D01*
X0030255Y0159163D01*
X0030440Y0159128D01*
X0030625Y0159097D01*
X0030812Y0159071D01*
X0030999Y0159049D01*
X0031186Y0159032D01*
X0031374Y0159020D01*
X0031562Y0159012D01*
X0031750Y0159008D01*
X0031750Y0159102D01*
X0031564Y0159106D01*
X0031379Y0159114D01*
X0031193Y0159126D01*
X0031008Y0159143D01*
X0030823Y0159164D01*
X0030639Y0159190D01*
X0030456Y0159220D01*
X0030273Y0159255D01*
X0030091Y0159294D01*
X0029910Y0159338D01*
X0029731Y0159385D01*
X0029552Y0159438D01*
X0029375Y0159494D01*
X0029199Y0159555D01*
X0029025Y0159620D01*
X0028852Y0159689D01*
X0028681Y0159762D01*
X0028512Y0159839D01*
X0028345Y0159921D01*
X0028180Y0160006D01*
X0028017Y0160096D01*
X0027856Y0160189D01*
X0027698Y0160286D01*
X0027542Y0160387D01*
X0027388Y0160492D01*
X0027237Y0160600D01*
X0027088Y0160712D01*
X0026943Y0160828D01*
X0026800Y0160947D01*
X0026660Y0161069D01*
X0026523Y0161195D01*
X0026389Y0161324D01*
X0026259Y0161457D01*
X0026131Y0161592D01*
X0026007Y0161730D01*
X0025886Y0161872D01*
X0025769Y0162016D01*
X0025655Y0162163D01*
X0025545Y0162313D01*
X0025438Y0162465D01*
X0025336Y0162620D01*
X0025237Y0162778D01*
X0025141Y0162937D01*
X0025223Y0162984D01*
X0025317Y0162826D01*
X0025415Y0162671D01*
X0025516Y0162518D01*
X0025622Y0162367D01*
X0025731Y0162219D01*
X0025843Y0162074D01*
X0025959Y0161932D01*
X0026078Y0161792D01*
X0026201Y0161655D01*
X0026327Y0161522D01*
X0026456Y0161391D01*
X0026588Y0161263D01*
X0026723Y0161139D01*
X0026861Y0161018D01*
X0027002Y0160901D01*
X0027146Y0160787D01*
X0027293Y0160676D01*
X0027442Y0160569D01*
X0027594Y0160465D01*
X0027748Y0160366D01*
X0027904Y0160270D01*
X0028063Y0160178D01*
X0028224Y0160089D01*
X0028387Y0160005D01*
X0028552Y0159924D01*
X0028719Y0159848D01*
X0028888Y0159776D01*
X0029059Y0159707D01*
X0029231Y0159643D01*
X0029404Y0159583D01*
X0029579Y0159527D01*
X0029756Y0159476D01*
X0029933Y0159429D01*
X0030112Y0159386D01*
X0030291Y0159347D01*
X0030472Y0159313D01*
X0030653Y0159283D01*
X0030835Y0159258D01*
X0031017Y0159236D01*
X0031200Y0159220D01*
X0031383Y0159207D01*
X0031567Y0159200D01*
X0031750Y0159196D01*
X0031849Y0158351D02*
X0031849Y0159251D01*
X0031850Y0159250D02*
X0032034Y0159254D01*
X0032219Y0159262D01*
X0032403Y0159274D01*
X0032586Y0159291D01*
X0032770Y0159313D01*
X0032952Y0159338D01*
X0033134Y0159369D01*
X0033315Y0159404D01*
X0033496Y0159443D01*
X0033675Y0159487D01*
X0033853Y0159535D01*
X0034030Y0159587D01*
X0034206Y0159644D01*
X0034380Y0159704D01*
X0034552Y0159770D01*
X0034723Y0159839D01*
X0034893Y0159912D01*
X0035060Y0159990D01*
X0035225Y0160072D01*
X0035389Y0160157D01*
X0035550Y0160247D01*
X0035709Y0160341D01*
X0035866Y0160438D01*
X0036020Y0160539D01*
X0036172Y0160644D01*
X0036321Y0160753D01*
X0036467Y0160865D01*
X0036611Y0160981D01*
X0036751Y0161100D01*
X0036889Y0161223D01*
X0037024Y0161349D01*
X0037156Y0161478D01*
X0037284Y0161611D01*
X0037409Y0161746D01*
X0037531Y0161885D01*
X0038218Y0161304D01*
X0038082Y0161148D01*
X0037941Y0160996D01*
X0037797Y0160847D01*
X0037650Y0160702D01*
X0037499Y0160561D01*
X0037345Y0160424D01*
X0037187Y0160290D01*
X0037026Y0160160D01*
X0036862Y0160034D01*
X0036695Y0159912D01*
X0036525Y0159794D01*
X0036352Y0159681D01*
X0036176Y0159572D01*
X0035998Y0159467D01*
X0035817Y0159366D01*
X0035634Y0159270D01*
X0035449Y0159178D01*
X0035261Y0159091D01*
X0035071Y0159009D01*
X0034880Y0158931D01*
X0034686Y0158858D01*
X0034491Y0158790D01*
X0034294Y0158726D01*
X0034096Y0158668D01*
X0033896Y0158614D01*
X0033695Y0158565D01*
X0033493Y0158521D01*
X0033290Y0158482D01*
X0033086Y0158448D01*
X0032881Y0158419D01*
X0032676Y0158395D01*
X0032470Y0158377D01*
X0032263Y0158363D01*
X0032057Y0158354D01*
X0031850Y0158350D01*
X0031850Y0158444D01*
X0032054Y0158448D01*
X0032259Y0158457D01*
X0032463Y0158470D01*
X0032666Y0158489D01*
X0032869Y0158513D01*
X0033072Y0158541D01*
X0033274Y0158575D01*
X0033474Y0158613D01*
X0033674Y0158657D01*
X0033873Y0158705D01*
X0034070Y0158758D01*
X0034267Y0158816D01*
X0034461Y0158879D01*
X0034654Y0158947D01*
X0034846Y0159019D01*
X0035035Y0159096D01*
X0035223Y0159177D01*
X0035408Y0159263D01*
X0035591Y0159354D01*
X0035773Y0159449D01*
X0035951Y0159548D01*
X0036127Y0159652D01*
X0036301Y0159760D01*
X0036472Y0159872D01*
X0036640Y0159989D01*
X0036805Y0160109D01*
X0036968Y0160234D01*
X0037127Y0160362D01*
X0037283Y0160494D01*
X0037435Y0160630D01*
X0037585Y0160770D01*
X0037730Y0160913D01*
X0037873Y0161060D01*
X0038011Y0161211D01*
X0038146Y0161364D01*
X0038075Y0161425D01*
X0037941Y0161273D01*
X0037804Y0161124D01*
X0037663Y0160979D01*
X0037519Y0160838D01*
X0037372Y0160699D01*
X0037221Y0160565D01*
X0037067Y0160434D01*
X0036909Y0160307D01*
X0036749Y0160184D01*
X0036585Y0160065D01*
X0036419Y0159950D01*
X0036250Y0159839D01*
X0036079Y0159732D01*
X0035904Y0159630D01*
X0035728Y0159531D01*
X0035549Y0159437D01*
X0035367Y0159348D01*
X0035184Y0159263D01*
X0034999Y0159182D01*
X0034811Y0159106D01*
X0034622Y0159035D01*
X0034431Y0158968D01*
X0034239Y0158906D01*
X0034045Y0158849D01*
X0033850Y0158796D01*
X0033653Y0158749D01*
X0033456Y0158706D01*
X0033257Y0158668D01*
X0033058Y0158634D01*
X0032858Y0158606D01*
X0032657Y0158583D01*
X0032456Y0158564D01*
X0032254Y0158550D01*
X0032052Y0158542D01*
X0031850Y0158538D01*
X0031850Y0158632D01*
X0032050Y0158636D01*
X0032249Y0158644D01*
X0032449Y0158658D01*
X0032648Y0158676D01*
X0032846Y0158699D01*
X0033044Y0158727D01*
X0033241Y0158760D01*
X0033437Y0158798D01*
X0033633Y0158840D01*
X0033827Y0158887D01*
X0034020Y0158939D01*
X0034211Y0158996D01*
X0034402Y0159057D01*
X0034590Y0159123D01*
X0034777Y0159194D01*
X0034962Y0159269D01*
X0035146Y0159349D01*
X0035327Y0159433D01*
X0035506Y0159521D01*
X0035683Y0159614D01*
X0035858Y0159711D01*
X0036030Y0159813D01*
X0036199Y0159918D01*
X0036367Y0160028D01*
X0036531Y0160142D01*
X0036692Y0160259D01*
X0036851Y0160381D01*
X0037006Y0160506D01*
X0037159Y0160636D01*
X0037308Y0160769D01*
X0037454Y0160905D01*
X0037596Y0161045D01*
X0037735Y0161189D01*
X0037871Y0161336D01*
X0038003Y0161486D01*
X0037931Y0161546D01*
X0037801Y0161398D01*
X0037667Y0161253D01*
X0037529Y0161111D01*
X0037388Y0160973D01*
X0037244Y0160838D01*
X0037097Y0160706D01*
X0036946Y0160579D01*
X0036792Y0160455D01*
X0036636Y0160334D01*
X0036476Y0160218D01*
X0036314Y0160106D01*
X0036149Y0159997D01*
X0035981Y0159893D01*
X0035811Y0159793D01*
X0035638Y0159697D01*
X0035463Y0159605D01*
X0035286Y0159517D01*
X0035107Y0159434D01*
X0034926Y0159356D01*
X0034743Y0159281D01*
X0034558Y0159212D01*
X0034372Y0159147D01*
X0034184Y0159086D01*
X0033994Y0159030D01*
X0033804Y0158979D01*
X0033612Y0158932D01*
X0033419Y0158890D01*
X0033225Y0158853D01*
X0033030Y0158820D01*
X0032834Y0158793D01*
X0032638Y0158770D01*
X0032442Y0158752D01*
X0032245Y0158738D01*
X0032047Y0158730D01*
X0031850Y0158726D01*
X0031850Y0158820D01*
X0032045Y0158824D01*
X0032240Y0158832D01*
X0032435Y0158845D01*
X0032629Y0158863D01*
X0032823Y0158886D01*
X0033016Y0158913D01*
X0033209Y0158945D01*
X0033400Y0158982D01*
X0033591Y0159024D01*
X0033781Y0159070D01*
X0033969Y0159120D01*
X0034156Y0159176D01*
X0034342Y0159236D01*
X0034526Y0159300D01*
X0034709Y0159369D01*
X0034890Y0159442D01*
X0035069Y0159520D01*
X0035246Y0159602D01*
X0035421Y0159689D01*
X0035593Y0159779D01*
X0035764Y0159874D01*
X0035932Y0159973D01*
X0036098Y0160076D01*
X0036261Y0160183D01*
X0036422Y0160294D01*
X0036579Y0160409D01*
X0036734Y0160528D01*
X0036886Y0160651D01*
X0037035Y0160777D01*
X0037181Y0160907D01*
X0037323Y0161040D01*
X0037462Y0161177D01*
X0037598Y0161317D01*
X0037730Y0161461D01*
X0037859Y0161607D01*
X0037787Y0161668D01*
X0037660Y0161523D01*
X0037529Y0161381D01*
X0037395Y0161243D01*
X0037258Y0161108D01*
X0037117Y0160976D01*
X0036973Y0160848D01*
X0036826Y0160723D01*
X0036676Y0160602D01*
X0036523Y0160485D01*
X0036367Y0160371D01*
X0036208Y0160261D01*
X0036047Y0160155D01*
X0035883Y0160054D01*
X0035717Y0159956D01*
X0035549Y0159862D01*
X0035378Y0159772D01*
X0035205Y0159687D01*
X0035030Y0159606D01*
X0034853Y0159529D01*
X0034675Y0159457D01*
X0034494Y0159388D01*
X0034312Y0159325D01*
X0034129Y0159266D01*
X0033944Y0159211D01*
X0033758Y0159161D01*
X0033570Y0159115D01*
X0033382Y0159074D01*
X0033192Y0159038D01*
X0033002Y0159006D01*
X0032811Y0158979D01*
X0032620Y0158957D01*
X0032428Y0158939D01*
X0032235Y0158926D01*
X0032043Y0158918D01*
X0031850Y0158914D01*
X0031850Y0159008D01*
X0032040Y0159012D01*
X0032231Y0159020D01*
X0032421Y0159033D01*
X0032610Y0159050D01*
X0032800Y0159072D01*
X0032988Y0159099D01*
X0033176Y0159130D01*
X0033363Y0159166D01*
X0033549Y0159207D01*
X0033734Y0159252D01*
X0033918Y0159301D01*
X0034101Y0159356D01*
X0034282Y0159414D01*
X0034462Y0159477D01*
X0034640Y0159544D01*
X0034817Y0159616D01*
X0034992Y0159692D01*
X0035164Y0159772D01*
X0035335Y0159856D01*
X0035504Y0159945D01*
X0035670Y0160037D01*
X0035835Y0160134D01*
X0035996Y0160234D01*
X0036156Y0160339D01*
X0036312Y0160447D01*
X0036466Y0160560D01*
X0036617Y0160676D01*
X0036766Y0160795D01*
X0036911Y0160918D01*
X0037053Y0161045D01*
X0037192Y0161175D01*
X0037328Y0161309D01*
X0037461Y0161445D01*
X0037590Y0161585D01*
X0037716Y0161729D01*
X0037644Y0161789D01*
X0037520Y0161648D01*
X0037392Y0161510D01*
X0037261Y0161375D01*
X0037127Y0161243D01*
X0036990Y0161114D01*
X0036849Y0160989D01*
X0036705Y0160867D01*
X0036559Y0160749D01*
X0036410Y0160635D01*
X0036258Y0160524D01*
X0036103Y0160417D01*
X0035946Y0160314D01*
X0035786Y0160214D01*
X0035624Y0160119D01*
X0035459Y0160027D01*
X0035293Y0159940D01*
X0035124Y0159857D01*
X0034953Y0159777D01*
X0034781Y0159702D01*
X0034606Y0159632D01*
X0034430Y0159565D01*
X0034253Y0159503D01*
X0034073Y0159445D01*
X0033893Y0159392D01*
X0033711Y0159343D01*
X0033529Y0159299D01*
X0033345Y0159259D01*
X0033160Y0159223D01*
X0032974Y0159192D01*
X0032788Y0159166D01*
X0032601Y0159144D01*
X0032414Y0159127D01*
X0032226Y0159114D01*
X0032038Y0159106D01*
X0031850Y0159102D01*
X0031850Y0159196D01*
X0032036Y0159200D01*
X0032221Y0159208D01*
X0032407Y0159220D01*
X0032592Y0159237D01*
X0032776Y0159259D01*
X0032960Y0159285D01*
X0033144Y0159316D01*
X0033326Y0159351D01*
X0033508Y0159390D01*
X0033688Y0159434D01*
X0033868Y0159483D01*
X0034046Y0159535D01*
X0034223Y0159592D01*
X0034398Y0159654D01*
X0034572Y0159719D01*
X0034744Y0159789D01*
X0034915Y0159863D01*
X0035083Y0159941D01*
X0035250Y0160024D01*
X0035414Y0160110D01*
X0035577Y0160200D01*
X0035737Y0160295D01*
X0035895Y0160393D01*
X0036050Y0160495D01*
X0036203Y0160600D01*
X0036353Y0160710D01*
X0036501Y0160823D01*
X0036645Y0160940D01*
X0036787Y0161060D01*
X0036926Y0161183D01*
X0037062Y0161310D01*
X0037194Y0161440D01*
X0037323Y0161574D01*
X0037450Y0161710D01*
X0037572Y0161850D01*
X0038259Y0172248D02*
X0037567Y0171671D01*
X0037568Y0171672D02*
X0037449Y0171809D01*
X0037328Y0171943D01*
X0037203Y0172074D01*
X0037075Y0172202D01*
X0036944Y0172326D01*
X0036810Y0172448D01*
X0036673Y0172567D01*
X0036534Y0172682D01*
X0036391Y0172793D01*
X0036246Y0172902D01*
X0036099Y0173007D01*
X0035949Y0173108D01*
X0035797Y0173205D01*
X0035642Y0173299D01*
X0035485Y0173390D01*
X0035326Y0173476D01*
X0035165Y0173559D01*
X0035002Y0173637D01*
X0034837Y0173712D01*
X0034671Y0173783D01*
X0034503Y0173850D01*
X0034333Y0173912D01*
X0034162Y0173971D01*
X0033989Y0174026D01*
X0033816Y0174076D01*
X0033641Y0174122D01*
X0033465Y0174164D01*
X0033288Y0174202D01*
X0033110Y0174235D01*
X0032931Y0174265D01*
X0032752Y0174290D01*
X0032572Y0174310D01*
X0032392Y0174327D01*
X0032212Y0174339D01*
X0032031Y0174346D01*
X0031850Y0174350D01*
X0031849Y0175249D01*
X0031850Y0175250D01*
X0032053Y0175246D01*
X0032255Y0175238D01*
X0032458Y0175224D01*
X0032660Y0175206D01*
X0032861Y0175183D01*
X0033062Y0175155D01*
X0033262Y0175122D01*
X0033462Y0175085D01*
X0033660Y0175043D01*
X0033858Y0174996D01*
X0034054Y0174944D01*
X0034248Y0174887D01*
X0034442Y0174826D01*
X0034634Y0174761D01*
X0034824Y0174690D01*
X0035013Y0174615D01*
X0035199Y0174536D01*
X0035384Y0174452D01*
X0035567Y0174364D01*
X0035747Y0174271D01*
X0035925Y0174175D01*
X0036101Y0174073D01*
X0036274Y0173968D01*
X0036445Y0173859D01*
X0036613Y0173745D01*
X0036779Y0173628D01*
X0036941Y0173506D01*
X0037101Y0173381D01*
X0037257Y0173252D01*
X0037410Y0173119D01*
X0037560Y0172982D01*
X0037707Y0172842D01*
X0037850Y0172699D01*
X0037990Y0172552D01*
X0038127Y0172402D01*
X0038259Y0172248D01*
X0038187Y0172188D01*
X0038056Y0172340D01*
X0037921Y0172488D01*
X0037783Y0172633D01*
X0037641Y0172775D01*
X0037496Y0172914D01*
X0037348Y0173049D01*
X0037196Y0173180D01*
X0037041Y0173308D01*
X0036884Y0173432D01*
X0036723Y0173552D01*
X0036560Y0173668D01*
X0036393Y0173780D01*
X0036225Y0173888D01*
X0036053Y0173993D01*
X0035879Y0174093D01*
X0035703Y0174188D01*
X0035525Y0174280D01*
X0035344Y0174367D01*
X0035161Y0174450D01*
X0034977Y0174529D01*
X0034791Y0174603D01*
X0034602Y0174672D01*
X0034413Y0174737D01*
X0034221Y0174797D01*
X0034029Y0174853D01*
X0033835Y0174904D01*
X0033640Y0174951D01*
X0033444Y0174993D01*
X0033247Y0175030D01*
X0033049Y0175062D01*
X0032850Y0175090D01*
X0032651Y0175113D01*
X0032451Y0175131D01*
X0032251Y0175144D01*
X0032050Y0175152D01*
X0031850Y0175156D01*
X0031850Y0175062D01*
X0032048Y0175058D01*
X0032246Y0175050D01*
X0032444Y0175037D01*
X0032642Y0175019D01*
X0032839Y0174996D01*
X0033035Y0174969D01*
X0033231Y0174937D01*
X0033425Y0174901D01*
X0033619Y0174859D01*
X0033812Y0174813D01*
X0034004Y0174763D01*
X0034194Y0174707D01*
X0034383Y0174648D01*
X0034571Y0174583D01*
X0034757Y0174515D01*
X0034941Y0174442D01*
X0035124Y0174364D01*
X0035304Y0174282D01*
X0035483Y0174196D01*
X0035659Y0174105D01*
X0035833Y0174011D01*
X0036005Y0173912D01*
X0036175Y0173809D01*
X0036342Y0173702D01*
X0036506Y0173591D01*
X0036667Y0173476D01*
X0036826Y0173357D01*
X0036982Y0173235D01*
X0037135Y0173109D01*
X0037285Y0172979D01*
X0037432Y0172845D01*
X0037575Y0172708D01*
X0037715Y0172568D01*
X0037852Y0172425D01*
X0037985Y0172278D01*
X0038115Y0172128D01*
X0038043Y0172068D01*
X0037914Y0172216D01*
X0037783Y0172361D01*
X0037648Y0172503D01*
X0037509Y0172641D01*
X0037367Y0172777D01*
X0037222Y0172909D01*
X0037074Y0173037D01*
X0036923Y0173162D01*
X0036769Y0173283D01*
X0036612Y0173400D01*
X0036452Y0173514D01*
X0036290Y0173623D01*
X0036125Y0173729D01*
X0035957Y0173831D01*
X0035787Y0173929D01*
X0035615Y0174022D01*
X0035441Y0174112D01*
X0035264Y0174197D01*
X0035086Y0174278D01*
X0034906Y0174355D01*
X0034723Y0174427D01*
X0034540Y0174495D01*
X0034354Y0174558D01*
X0034167Y0174617D01*
X0033979Y0174672D01*
X0033790Y0174722D01*
X0033599Y0174767D01*
X0033407Y0174808D01*
X0033215Y0174845D01*
X0033021Y0174876D01*
X0032827Y0174903D01*
X0032632Y0174925D01*
X0032437Y0174943D01*
X0032242Y0174956D01*
X0032046Y0174964D01*
X0031850Y0174968D01*
X0031850Y0174874D01*
X0032044Y0174870D01*
X0032237Y0174862D01*
X0032430Y0174849D01*
X0032623Y0174832D01*
X0032816Y0174810D01*
X0033008Y0174783D01*
X0033199Y0174752D01*
X0033389Y0174716D01*
X0033579Y0174676D01*
X0033767Y0174631D01*
X0033954Y0174581D01*
X0034140Y0174527D01*
X0034325Y0174469D01*
X0034508Y0174406D01*
X0034690Y0174339D01*
X0034870Y0174268D01*
X0035048Y0174192D01*
X0035225Y0174112D01*
X0035399Y0174028D01*
X0035571Y0173939D01*
X0035741Y0173847D01*
X0035909Y0173750D01*
X0036075Y0173649D01*
X0036238Y0173545D01*
X0036398Y0173437D01*
X0036556Y0173324D01*
X0036711Y0173208D01*
X0036864Y0173089D01*
X0037013Y0172965D01*
X0037160Y0172839D01*
X0037303Y0172708D01*
X0037443Y0172575D01*
X0037580Y0172438D01*
X0037713Y0172297D01*
X0037844Y0172154D01*
X0037970Y0172007D01*
X0037898Y0171947D01*
X0037773Y0172092D01*
X0037644Y0172234D01*
X0037512Y0172372D01*
X0037377Y0172508D01*
X0037238Y0172640D01*
X0037097Y0172769D01*
X0036952Y0172894D01*
X0036805Y0173016D01*
X0036654Y0173134D01*
X0036501Y0173249D01*
X0036345Y0173359D01*
X0036186Y0173467D01*
X0036025Y0173570D01*
X0035861Y0173669D01*
X0035695Y0173765D01*
X0035527Y0173856D01*
X0035357Y0173943D01*
X0035185Y0174027D01*
X0035010Y0174106D01*
X0034834Y0174181D01*
X0034656Y0174251D01*
X0034477Y0174318D01*
X0034296Y0174380D01*
X0034113Y0174437D01*
X0033929Y0174491D01*
X0033744Y0174540D01*
X0033558Y0174584D01*
X0033371Y0174624D01*
X0033183Y0174659D01*
X0032994Y0174690D01*
X0032804Y0174717D01*
X0032614Y0174738D01*
X0032424Y0174756D01*
X0032233Y0174768D01*
X0032041Y0174776D01*
X0031850Y0174780D01*
X0031850Y0174686D01*
X0032039Y0174682D01*
X0032228Y0174674D01*
X0032417Y0174662D01*
X0032605Y0174645D01*
X0032793Y0174623D01*
X0032980Y0174597D01*
X0033167Y0174567D01*
X0033353Y0174532D01*
X0033538Y0174492D01*
X0033722Y0174448D01*
X0033904Y0174400D01*
X0034086Y0174347D01*
X0034266Y0174290D01*
X0034445Y0174229D01*
X0034623Y0174163D01*
X0034799Y0174094D01*
X0034973Y0174020D01*
X0035145Y0173942D01*
X0035315Y0173859D01*
X0035483Y0173773D01*
X0035649Y0173683D01*
X0035813Y0173588D01*
X0035975Y0173490D01*
X0036134Y0173388D01*
X0036291Y0173282D01*
X0036445Y0173173D01*
X0036597Y0173059D01*
X0036745Y0172943D01*
X0036891Y0172822D01*
X0037034Y0172699D01*
X0037174Y0172571D01*
X0037311Y0172441D01*
X0037445Y0172307D01*
X0037575Y0172170D01*
X0037702Y0172030D01*
X0037826Y0171887D01*
X0037754Y0171827D01*
X0037631Y0171968D01*
X0037506Y0172106D01*
X0037377Y0172242D01*
X0037245Y0172374D01*
X0037110Y0172503D01*
X0036971Y0172628D01*
X0036830Y0172751D01*
X0036686Y0172870D01*
X0036539Y0172985D01*
X0036390Y0173097D01*
X0036237Y0173205D01*
X0036082Y0173310D01*
X0035925Y0173410D01*
X0035765Y0173507D01*
X0035604Y0173601D01*
X0035439Y0173690D01*
X0035273Y0173775D01*
X0035105Y0173856D01*
X0034935Y0173934D01*
X0034763Y0174007D01*
X0034589Y0174076D01*
X0034414Y0174140D01*
X0034237Y0174201D01*
X0034059Y0174257D01*
X0033880Y0174309D01*
X0033699Y0174357D01*
X0033517Y0174400D01*
X0033335Y0174439D01*
X0033151Y0174474D01*
X0032967Y0174504D01*
X0032782Y0174530D01*
X0032596Y0174551D01*
X0032410Y0174568D01*
X0032223Y0174580D01*
X0032037Y0174588D01*
X0031850Y0174592D01*
X0031850Y0174498D01*
X0032034Y0174494D01*
X0032219Y0174487D01*
X0032403Y0174474D01*
X0032587Y0174458D01*
X0032770Y0174437D01*
X0032953Y0174411D01*
X0033135Y0174381D01*
X0033316Y0174347D01*
X0033497Y0174309D01*
X0033676Y0174266D01*
X0033855Y0174219D01*
X0034032Y0174167D01*
X0034208Y0174112D01*
X0034383Y0174052D01*
X0034556Y0173988D01*
X0034727Y0173920D01*
X0034897Y0173848D01*
X0035065Y0173771D01*
X0035231Y0173691D01*
X0035395Y0173607D01*
X0035558Y0173519D01*
X0035718Y0173427D01*
X0035875Y0173331D01*
X0036031Y0173231D01*
X0036184Y0173128D01*
X0036334Y0173021D01*
X0036482Y0172911D01*
X0036627Y0172797D01*
X0036769Y0172679D01*
X0036909Y0172558D01*
X0037045Y0172434D01*
X0037179Y0172307D01*
X0037309Y0172176D01*
X0037437Y0172043D01*
X0037561Y0171906D01*
X0037681Y0171767D01*
X0037609Y0171706D01*
X0037490Y0171844D01*
X0037367Y0171979D01*
X0037242Y0172111D01*
X0037113Y0172240D01*
X0036981Y0172366D01*
X0036846Y0172488D01*
X0036708Y0172608D01*
X0036568Y0172724D01*
X0036424Y0172836D01*
X0036278Y0172945D01*
X0036130Y0173051D01*
X0035979Y0173153D01*
X0035825Y0173251D01*
X0035670Y0173346D01*
X0035512Y0173437D01*
X0035351Y0173524D01*
X0035189Y0173607D01*
X0035025Y0173686D01*
X0034859Y0173761D01*
X0034691Y0173833D01*
X0034522Y0173900D01*
X0034351Y0173963D01*
X0034179Y0174022D01*
X0034005Y0174077D01*
X0033830Y0174128D01*
X0033654Y0174175D01*
X0033476Y0174217D01*
X0033298Y0174255D01*
X0033119Y0174289D01*
X0032939Y0174318D01*
X0032759Y0174343D01*
X0032578Y0174364D01*
X0032396Y0174381D01*
X0032214Y0174393D01*
X0032032Y0174400D01*
X0031850Y0174404D01*
X0099489Y0162565D02*
X0100270Y0163011D01*
X0100363Y0162854D01*
X0100460Y0162700D01*
X0100561Y0162548D01*
X0100666Y0162399D01*
X0100774Y0162252D01*
X0100885Y0162107D01*
X0101000Y0161966D01*
X0101119Y0161827D01*
X0101241Y0161692D01*
X0101366Y0161559D01*
X0101494Y0161429D01*
X0101625Y0161303D01*
X0101759Y0161179D01*
X0101896Y0161059D01*
X0102036Y0160942D01*
X0102179Y0160829D01*
X0102325Y0160719D01*
X0102473Y0160613D01*
X0102624Y0160510D01*
X0102777Y0160411D01*
X0102932Y0160316D01*
X0103090Y0160225D01*
X0103250Y0160137D01*
X0103412Y0160053D01*
X0103575Y0159973D01*
X0103741Y0159897D01*
X0103909Y0159826D01*
X0104078Y0159758D01*
X0104249Y0159694D01*
X0104421Y0159635D01*
X0104595Y0159579D01*
X0104770Y0159528D01*
X0104946Y0159481D01*
X0105123Y0159439D01*
X0105302Y0159400D01*
X0105481Y0159366D01*
X0105661Y0159336D01*
X0105841Y0159311D01*
X0106022Y0159290D01*
X0106204Y0159274D01*
X0106386Y0159261D01*
X0106568Y0159254D01*
X0106750Y0159250D01*
X0106751Y0158351D01*
X0106750Y0158350D01*
X0106546Y0158354D01*
X0106342Y0158362D01*
X0106138Y0158376D01*
X0105934Y0158394D01*
X0105731Y0158418D01*
X0105529Y0158446D01*
X0105327Y0158479D01*
X0105127Y0158517D01*
X0104927Y0158560D01*
X0104728Y0158608D01*
X0104531Y0158660D01*
X0104335Y0158718D01*
X0104140Y0158780D01*
X0103947Y0158846D01*
X0103755Y0158918D01*
X0103566Y0158994D01*
X0103378Y0159074D01*
X0103192Y0159159D01*
X0103008Y0159249D01*
X0102827Y0159342D01*
X0102648Y0159441D01*
X0102471Y0159543D01*
X0102297Y0159650D01*
X0102125Y0159761D01*
X0101956Y0159876D01*
X0101790Y0159995D01*
X0101627Y0160118D01*
X0101467Y0160245D01*
X0101310Y0160376D01*
X0101156Y0160511D01*
X0101006Y0160649D01*
X0100859Y0160791D01*
X0100715Y0160936D01*
X0100575Y0161085D01*
X0100439Y0161237D01*
X0100306Y0161393D01*
X0100178Y0161551D01*
X0100053Y0161713D01*
X0099932Y0161878D01*
X0099815Y0162045D01*
X0099702Y0162216D01*
X0099593Y0162389D01*
X0099488Y0162564D01*
X0099570Y0162611D01*
X0099673Y0162437D01*
X0099781Y0162266D01*
X0099893Y0162098D01*
X0100008Y0161932D01*
X0100128Y0161769D01*
X0100252Y0161610D01*
X0100379Y0161453D01*
X0100510Y0161299D01*
X0100645Y0161149D01*
X0100783Y0161001D01*
X0100925Y0160858D01*
X0101071Y0160717D01*
X0101219Y0160581D01*
X0101371Y0160448D01*
X0101527Y0160318D01*
X0101685Y0160193D01*
X0101846Y0160071D01*
X0102010Y0159953D01*
X0102177Y0159839D01*
X0102347Y0159730D01*
X0102519Y0159624D01*
X0102694Y0159523D01*
X0102871Y0159425D01*
X0103050Y0159333D01*
X0103232Y0159244D01*
X0103416Y0159160D01*
X0103601Y0159080D01*
X0103789Y0159005D01*
X0103978Y0158935D01*
X0104169Y0158869D01*
X0104362Y0158808D01*
X0104556Y0158751D01*
X0104751Y0158699D01*
X0104947Y0158652D01*
X0105145Y0158610D01*
X0105343Y0158572D01*
X0105543Y0158539D01*
X0105743Y0158511D01*
X0105944Y0158488D01*
X0106145Y0158470D01*
X0106346Y0158456D01*
X0106548Y0158448D01*
X0106750Y0158444D01*
X0106750Y0158538D01*
X0106551Y0158542D01*
X0106351Y0158550D01*
X0106152Y0158563D01*
X0105953Y0158582D01*
X0105754Y0158604D01*
X0105557Y0158632D01*
X0105359Y0158665D01*
X0105163Y0158702D01*
X0104968Y0158744D01*
X0104774Y0158790D01*
X0104581Y0158842D01*
X0104389Y0158898D01*
X0104199Y0158958D01*
X0104010Y0159023D01*
X0103823Y0159093D01*
X0103637Y0159167D01*
X0103454Y0159246D01*
X0103272Y0159329D01*
X0103092Y0159417D01*
X0102915Y0159508D01*
X0102740Y0159604D01*
X0102567Y0159705D01*
X0102397Y0159809D01*
X0102229Y0159918D01*
X0102064Y0160030D01*
X0101902Y0160146D01*
X0101743Y0160267D01*
X0101586Y0160391D01*
X0101433Y0160519D01*
X0101282Y0160650D01*
X0101135Y0160786D01*
X0100992Y0160924D01*
X0100851Y0161066D01*
X0100714Y0161212D01*
X0100581Y0161361D01*
X0100451Y0161513D01*
X0100325Y0161668D01*
X0100203Y0161826D01*
X0100085Y0161987D01*
X0099971Y0162150D01*
X0099860Y0162317D01*
X0099754Y0162486D01*
X0099652Y0162657D01*
X0099733Y0162704D01*
X0099834Y0162534D01*
X0099939Y0162367D01*
X0100049Y0162203D01*
X0100162Y0162041D01*
X0100279Y0161882D01*
X0100399Y0161726D01*
X0100524Y0161572D01*
X0100652Y0161422D01*
X0100784Y0161275D01*
X0100919Y0161131D01*
X0101058Y0160991D01*
X0101200Y0160854D01*
X0101345Y0160720D01*
X0101494Y0160590D01*
X0101646Y0160464D01*
X0101800Y0160341D01*
X0101958Y0160222D01*
X0102118Y0160107D01*
X0102281Y0159996D01*
X0102447Y0159889D01*
X0102615Y0159785D01*
X0102786Y0159686D01*
X0102959Y0159591D01*
X0103135Y0159501D01*
X0103312Y0159414D01*
X0103492Y0159332D01*
X0103673Y0159254D01*
X0103856Y0159181D01*
X0104041Y0159112D01*
X0104228Y0159048D01*
X0104416Y0158988D01*
X0104606Y0158932D01*
X0104796Y0158882D01*
X0104988Y0158835D01*
X0105181Y0158794D01*
X0105375Y0158757D01*
X0105570Y0158725D01*
X0105766Y0158698D01*
X0105962Y0158675D01*
X0106159Y0158657D01*
X0106356Y0158644D01*
X0106553Y0158636D01*
X0106750Y0158632D01*
X0106750Y0158726D01*
X0106555Y0158730D01*
X0106360Y0158738D01*
X0106165Y0158751D01*
X0105971Y0158769D01*
X0105777Y0158791D01*
X0105584Y0158818D01*
X0105391Y0158850D01*
X0105200Y0158886D01*
X0105009Y0158927D01*
X0104819Y0158973D01*
X0104631Y0159023D01*
X0104443Y0159078D01*
X0104257Y0159137D01*
X0104073Y0159200D01*
X0103890Y0159269D01*
X0103709Y0159341D01*
X0103530Y0159418D01*
X0103352Y0159499D01*
X0103177Y0159585D01*
X0103003Y0159674D01*
X0102832Y0159768D01*
X0102664Y0159866D01*
X0102497Y0159968D01*
X0102333Y0160074D01*
X0102172Y0160184D01*
X0102014Y0160298D01*
X0101858Y0160415D01*
X0101705Y0160537D01*
X0101555Y0160662D01*
X0101408Y0160790D01*
X0101265Y0160922D01*
X0101124Y0161058D01*
X0100987Y0161197D01*
X0100853Y0161339D01*
X0100723Y0161484D01*
X0100596Y0161632D01*
X0100473Y0161784D01*
X0100354Y0161938D01*
X0100238Y0162095D01*
X0100127Y0162255D01*
X0100019Y0162418D01*
X0099915Y0162583D01*
X0099815Y0162751D01*
X0099896Y0162797D01*
X0099995Y0162632D01*
X0100098Y0162468D01*
X0100205Y0162308D01*
X0100315Y0162150D01*
X0100429Y0161994D01*
X0100547Y0161842D01*
X0100669Y0161692D01*
X0100794Y0161546D01*
X0100923Y0161402D01*
X0101055Y0161262D01*
X0101190Y0161124D01*
X0101329Y0160990D01*
X0101471Y0160860D01*
X0101616Y0160733D01*
X0101764Y0160609D01*
X0101915Y0160490D01*
X0102069Y0160373D01*
X0102226Y0160261D01*
X0102385Y0160152D01*
X0102547Y0160048D01*
X0102712Y0159947D01*
X0102878Y0159850D01*
X0103048Y0159757D01*
X0103219Y0159669D01*
X0103392Y0159584D01*
X0103568Y0159504D01*
X0103745Y0159428D01*
X0103924Y0159356D01*
X0104105Y0159289D01*
X0104287Y0159226D01*
X0104471Y0159168D01*
X0104656Y0159114D01*
X0104842Y0159064D01*
X0105030Y0159019D01*
X0105218Y0158978D01*
X0105407Y0158942D01*
X0105598Y0158911D01*
X0105789Y0158884D01*
X0105980Y0158862D01*
X0106172Y0158845D01*
X0106365Y0158832D01*
X0106557Y0158824D01*
X0106750Y0158820D01*
X0106750Y0158914D01*
X0106560Y0158918D01*
X0106369Y0158926D01*
X0106179Y0158938D01*
X0105989Y0158956D01*
X0105800Y0158978D01*
X0105612Y0159004D01*
X0105424Y0159035D01*
X0105236Y0159071D01*
X0105050Y0159111D01*
X0104865Y0159155D01*
X0104681Y0159204D01*
X0104498Y0159258D01*
X0104316Y0159315D01*
X0104136Y0159378D01*
X0103958Y0159444D01*
X0103781Y0159515D01*
X0103606Y0159590D01*
X0103432Y0159669D01*
X0103261Y0159753D01*
X0103092Y0159840D01*
X0102925Y0159932D01*
X0102760Y0160028D01*
X0102597Y0160127D01*
X0102437Y0160231D01*
X0102280Y0160338D01*
X0102125Y0160449D01*
X0101973Y0160564D01*
X0101824Y0160682D01*
X0101678Y0160804D01*
X0101534Y0160930D01*
X0101394Y0161059D01*
X0101257Y0161191D01*
X0101123Y0161327D01*
X0100992Y0161465D01*
X0100865Y0161607D01*
X0100741Y0161752D01*
X0100621Y0161900D01*
X0100505Y0162051D01*
X0100392Y0162204D01*
X0100283Y0162360D01*
X0100177Y0162519D01*
X0100076Y0162680D01*
X0099978Y0162844D01*
X0100060Y0162891D01*
X0100156Y0162729D01*
X0100256Y0162570D01*
X0100360Y0162413D01*
X0100468Y0162258D01*
X0100580Y0162107D01*
X0100695Y0161958D01*
X0100814Y0161812D01*
X0100936Y0161669D01*
X0101062Y0161529D01*
X0101191Y0161392D01*
X0101323Y0161258D01*
X0101459Y0161127D01*
X0101597Y0161000D01*
X0101739Y0160876D01*
X0101883Y0160755D01*
X0102031Y0160638D01*
X0102181Y0160525D01*
X0102334Y0160415D01*
X0102490Y0160309D01*
X0102648Y0160207D01*
X0102808Y0160108D01*
X0102971Y0160014D01*
X0103136Y0159923D01*
X0103303Y0159837D01*
X0103472Y0159754D01*
X0103643Y0159676D01*
X0103816Y0159602D01*
X0103991Y0159532D01*
X0104168Y0159466D01*
X0104346Y0159405D01*
X0104525Y0159348D01*
X0104706Y0159295D01*
X0104888Y0159246D01*
X0105071Y0159202D01*
X0105255Y0159163D01*
X0105440Y0159128D01*
X0105625Y0159097D01*
X0105812Y0159071D01*
X0105999Y0159049D01*
X0106186Y0159032D01*
X0106374Y0159020D01*
X0106562Y0159012D01*
X0106750Y0159008D01*
X0106750Y0159102D01*
X0106564Y0159106D01*
X0106379Y0159114D01*
X0106193Y0159126D01*
X0106008Y0159143D01*
X0105823Y0159164D01*
X0105639Y0159190D01*
X0105456Y0159220D01*
X0105273Y0159255D01*
X0105091Y0159294D01*
X0104910Y0159338D01*
X0104731Y0159385D01*
X0104552Y0159438D01*
X0104375Y0159494D01*
X0104199Y0159555D01*
X0104025Y0159620D01*
X0103852Y0159689D01*
X0103681Y0159762D01*
X0103512Y0159839D01*
X0103345Y0159921D01*
X0103180Y0160006D01*
X0103017Y0160096D01*
X0102856Y0160189D01*
X0102698Y0160286D01*
X0102542Y0160387D01*
X0102388Y0160492D01*
X0102237Y0160600D01*
X0102088Y0160712D01*
X0101943Y0160828D01*
X0101800Y0160947D01*
X0101660Y0161069D01*
X0101523Y0161195D01*
X0101389Y0161324D01*
X0101259Y0161457D01*
X0101131Y0161592D01*
X0101007Y0161730D01*
X0100886Y0161872D01*
X0100769Y0162016D01*
X0100655Y0162163D01*
X0100545Y0162313D01*
X0100438Y0162465D01*
X0100336Y0162620D01*
X0100237Y0162778D01*
X0100141Y0162937D01*
X0100223Y0162984D01*
X0100317Y0162826D01*
X0100415Y0162671D01*
X0100516Y0162518D01*
X0100622Y0162367D01*
X0100731Y0162219D01*
X0100843Y0162074D01*
X0100959Y0161932D01*
X0101078Y0161792D01*
X0101201Y0161655D01*
X0101327Y0161522D01*
X0101456Y0161391D01*
X0101588Y0161263D01*
X0101723Y0161139D01*
X0101861Y0161018D01*
X0102002Y0160901D01*
X0102146Y0160787D01*
X0102293Y0160676D01*
X0102442Y0160569D01*
X0102594Y0160465D01*
X0102748Y0160366D01*
X0102904Y0160270D01*
X0103063Y0160178D01*
X0103224Y0160089D01*
X0103387Y0160005D01*
X0103552Y0159924D01*
X0103719Y0159848D01*
X0103888Y0159776D01*
X0104059Y0159707D01*
X0104231Y0159643D01*
X0104404Y0159583D01*
X0104579Y0159527D01*
X0104756Y0159476D01*
X0104933Y0159429D01*
X0105112Y0159386D01*
X0105291Y0159347D01*
X0105472Y0159313D01*
X0105653Y0159283D01*
X0105835Y0159258D01*
X0106017Y0159236D01*
X0106200Y0159220D01*
X0106383Y0159207D01*
X0106567Y0159200D01*
X0106750Y0159196D01*
X0106750Y0175249D02*
X0106750Y0174349D01*
X0106750Y0174350D02*
X0106567Y0174346D01*
X0106384Y0174339D01*
X0106201Y0174326D01*
X0106018Y0174309D01*
X0105836Y0174288D01*
X0105655Y0174263D01*
X0105474Y0174233D01*
X0105294Y0174198D01*
X0105115Y0174160D01*
X0104937Y0174117D01*
X0104760Y0174069D01*
X0104585Y0174018D01*
X0104410Y0173962D01*
X0104237Y0173902D01*
X0104066Y0173837D01*
X0103896Y0173769D01*
X0103727Y0173697D01*
X0103561Y0173620D01*
X0103397Y0173539D01*
X0103234Y0173455D01*
X0103074Y0173366D01*
X0102915Y0173274D01*
X0102759Y0173178D01*
X0102606Y0173078D01*
X0102455Y0172974D01*
X0102306Y0172867D01*
X0102160Y0172756D01*
X0102017Y0172642D01*
X0101877Y0172524D01*
X0101740Y0172403D01*
X0101605Y0172279D01*
X0101474Y0172151D01*
X0101345Y0172020D01*
X0101220Y0171886D01*
X0101099Y0171750D01*
X0100980Y0171610D01*
X0100865Y0171467D01*
X0100754Y0171322D01*
X0100646Y0171174D01*
X0100542Y0171023D01*
X0100441Y0170870D01*
X0100344Y0170715D01*
X0100251Y0170557D01*
X0100162Y0170397D01*
X0099368Y0170820D01*
X0099468Y0171000D01*
X0099572Y0171177D01*
X0099680Y0171351D01*
X0099793Y0171523D01*
X0099910Y0171691D01*
X0100031Y0171857D01*
X0100155Y0172020D01*
X0100284Y0172180D01*
X0100417Y0172337D01*
X0100553Y0172490D01*
X0100693Y0172640D01*
X0100837Y0172787D01*
X0100984Y0172930D01*
X0101135Y0173070D01*
X0101289Y0173205D01*
X0101446Y0173337D01*
X0101606Y0173465D01*
X0101770Y0173590D01*
X0101936Y0173710D01*
X0102106Y0173826D01*
X0102278Y0173938D01*
X0102452Y0174046D01*
X0102630Y0174149D01*
X0102809Y0174248D01*
X0102992Y0174343D01*
X0103176Y0174433D01*
X0103362Y0174519D01*
X0103551Y0174600D01*
X0103741Y0174677D01*
X0103934Y0174749D01*
X0104128Y0174816D01*
X0104323Y0174879D01*
X0104520Y0174937D01*
X0104718Y0174990D01*
X0104918Y0175038D01*
X0105119Y0175081D01*
X0105320Y0175119D01*
X0105523Y0175153D01*
X0105726Y0175181D01*
X0105930Y0175205D01*
X0106135Y0175224D01*
X0106339Y0175237D01*
X0106544Y0175246D01*
X0106750Y0175250D01*
X0106750Y0175156D01*
X0106547Y0175152D01*
X0106344Y0175144D01*
X0106141Y0175130D01*
X0105939Y0175112D01*
X0105738Y0175088D01*
X0105537Y0175060D01*
X0105336Y0175027D01*
X0105137Y0174989D01*
X0104939Y0174946D01*
X0104741Y0174898D01*
X0104545Y0174846D01*
X0104350Y0174789D01*
X0104157Y0174727D01*
X0103965Y0174660D01*
X0103775Y0174589D01*
X0103587Y0174514D01*
X0103401Y0174433D01*
X0103216Y0174348D01*
X0103034Y0174259D01*
X0102854Y0174165D01*
X0102676Y0174067D01*
X0102501Y0173965D01*
X0102328Y0173859D01*
X0102158Y0173748D01*
X0101990Y0173633D01*
X0101826Y0173514D01*
X0101664Y0173391D01*
X0101506Y0173265D01*
X0101350Y0173134D01*
X0101198Y0173000D01*
X0101049Y0172862D01*
X0100903Y0172721D01*
X0100761Y0172576D01*
X0100623Y0172427D01*
X0100488Y0172276D01*
X0100357Y0172121D01*
X0100230Y0171963D01*
X0100106Y0171801D01*
X0099987Y0171637D01*
X0099871Y0171470D01*
X0099760Y0171301D01*
X0099652Y0171128D01*
X0099549Y0170953D01*
X0099451Y0170776D01*
X0099534Y0170732D01*
X0099631Y0170907D01*
X0099733Y0171080D01*
X0099839Y0171250D01*
X0099949Y0171418D01*
X0100063Y0171583D01*
X0100182Y0171745D01*
X0100304Y0171905D01*
X0100430Y0172061D01*
X0100559Y0172214D01*
X0100693Y0172364D01*
X0100829Y0172511D01*
X0100970Y0172654D01*
X0101114Y0172794D01*
X0101261Y0172930D01*
X0101412Y0173063D01*
X0101565Y0173192D01*
X0101722Y0173317D01*
X0101882Y0173439D01*
X0102045Y0173556D01*
X0102210Y0173670D01*
X0102378Y0173779D01*
X0102549Y0173885D01*
X0102722Y0173986D01*
X0102898Y0174083D01*
X0103076Y0174175D01*
X0103256Y0174263D01*
X0103439Y0174347D01*
X0103623Y0174427D01*
X0103809Y0174502D01*
X0103997Y0174572D01*
X0104187Y0174638D01*
X0104378Y0174699D01*
X0104570Y0174755D01*
X0104764Y0174807D01*
X0104959Y0174854D01*
X0105155Y0174897D01*
X0105353Y0174934D01*
X0105551Y0174967D01*
X0105749Y0174995D01*
X0105949Y0175018D01*
X0106148Y0175036D01*
X0106349Y0175050D01*
X0106549Y0175058D01*
X0106750Y0175062D01*
X0106750Y0174968D01*
X0106551Y0174964D01*
X0106353Y0174956D01*
X0106155Y0174943D01*
X0105958Y0174924D01*
X0105761Y0174902D01*
X0105564Y0174874D01*
X0105369Y0174842D01*
X0105174Y0174804D01*
X0104980Y0174763D01*
X0104787Y0174716D01*
X0104595Y0174665D01*
X0104405Y0174609D01*
X0104216Y0174549D01*
X0104029Y0174484D01*
X0103843Y0174414D01*
X0103659Y0174340D01*
X0103477Y0174261D01*
X0103297Y0174178D01*
X0103118Y0174091D01*
X0102942Y0174000D01*
X0102769Y0173904D01*
X0102597Y0173804D01*
X0102429Y0173700D01*
X0102262Y0173592D01*
X0102099Y0173479D01*
X0101938Y0173363D01*
X0101780Y0173243D01*
X0101625Y0173119D01*
X0101473Y0172992D01*
X0101324Y0172861D01*
X0101179Y0172726D01*
X0101036Y0172588D01*
X0100898Y0172446D01*
X0100762Y0172301D01*
X0100630Y0172153D01*
X0100502Y0172001D01*
X0100378Y0171847D01*
X0100257Y0171690D01*
X0100140Y0171529D01*
X0100027Y0171366D01*
X0099919Y0171200D01*
X0099814Y0171032D01*
X0099713Y0170861D01*
X0099617Y0170688D01*
X0099699Y0170643D01*
X0099795Y0170815D01*
X0099894Y0170984D01*
X0099998Y0171150D01*
X0100106Y0171314D01*
X0100217Y0171475D01*
X0100333Y0171634D01*
X0100452Y0171789D01*
X0100575Y0171942D01*
X0100702Y0172091D01*
X0100832Y0172238D01*
X0100966Y0172381D01*
X0101103Y0172521D01*
X0101244Y0172658D01*
X0101387Y0172791D01*
X0101534Y0172921D01*
X0101685Y0173047D01*
X0101838Y0173169D01*
X0101994Y0173288D01*
X0102153Y0173403D01*
X0102315Y0173513D01*
X0102479Y0173620D01*
X0102646Y0173723D01*
X0102815Y0173822D01*
X0102987Y0173917D01*
X0103161Y0174007D01*
X0103337Y0174094D01*
X0103515Y0174175D01*
X0103695Y0174253D01*
X0103877Y0174326D01*
X0104060Y0174395D01*
X0104246Y0174459D01*
X0104432Y0174519D01*
X0104620Y0174574D01*
X0104810Y0174625D01*
X0105000Y0174671D01*
X0105192Y0174712D01*
X0105385Y0174749D01*
X0105578Y0174781D01*
X0105772Y0174808D01*
X0105967Y0174831D01*
X0106162Y0174849D01*
X0106358Y0174862D01*
X0106554Y0174870D01*
X0106750Y0174874D01*
X0106750Y0174780D01*
X0106556Y0174776D01*
X0106362Y0174768D01*
X0106169Y0174755D01*
X0105976Y0174737D01*
X0105784Y0174715D01*
X0105592Y0174688D01*
X0105401Y0174656D01*
X0105210Y0174620D01*
X0105021Y0174579D01*
X0104833Y0174534D01*
X0104646Y0174484D01*
X0104460Y0174429D01*
X0104275Y0174370D01*
X0104092Y0174307D01*
X0103911Y0174239D01*
X0103731Y0174166D01*
X0103553Y0174090D01*
X0103377Y0174009D01*
X0103203Y0173923D01*
X0103031Y0173834D01*
X0102861Y0173740D01*
X0102694Y0173643D01*
X0102529Y0173541D01*
X0102367Y0173435D01*
X0102207Y0173326D01*
X0102050Y0173212D01*
X0101896Y0173095D01*
X0101744Y0172974D01*
X0101596Y0172850D01*
X0101451Y0172722D01*
X0101308Y0172590D01*
X0101169Y0172455D01*
X0101034Y0172317D01*
X0100902Y0172175D01*
X0100773Y0172030D01*
X0100648Y0171882D01*
X0100526Y0171731D01*
X0100408Y0171578D01*
X0100294Y0171421D01*
X0100184Y0171262D01*
X0100078Y0171100D01*
X0099975Y0170935D01*
X0099877Y0170768D01*
X0099782Y0170599D01*
X0099865Y0170555D01*
X0099959Y0170722D01*
X0100056Y0170887D01*
X0100157Y0171050D01*
X0100262Y0171210D01*
X0100371Y0171367D01*
X0100484Y0171522D01*
X0100600Y0171674D01*
X0100720Y0171823D01*
X0100844Y0171969D01*
X0100971Y0172112D01*
X0101102Y0172252D01*
X0101236Y0172388D01*
X0101373Y0172522D01*
X0101514Y0172652D01*
X0101657Y0172779D01*
X0101804Y0172902D01*
X0101954Y0173021D01*
X0102106Y0173137D01*
X0102261Y0173249D01*
X0102419Y0173357D01*
X0102580Y0173462D01*
X0102743Y0173562D01*
X0102908Y0173659D01*
X0103075Y0173751D01*
X0103245Y0173839D01*
X0103417Y0173924D01*
X0103591Y0174004D01*
X0103767Y0174079D01*
X0103945Y0174151D01*
X0104124Y0174218D01*
X0104305Y0174281D01*
X0104487Y0174339D01*
X0104671Y0174393D01*
X0104856Y0174443D01*
X0105042Y0174487D01*
X0105229Y0174528D01*
X0105417Y0174564D01*
X0105606Y0174595D01*
X0105795Y0174622D01*
X0105985Y0174644D01*
X0106176Y0174661D01*
X0106367Y0174674D01*
X0106558Y0174682D01*
X0106750Y0174686D01*
X0106750Y0174592D01*
X0106561Y0174588D01*
X0106372Y0174580D01*
X0106183Y0174568D01*
X0105995Y0174550D01*
X0105807Y0174528D01*
X0105620Y0174502D01*
X0105433Y0174471D01*
X0105247Y0174436D01*
X0105062Y0174396D01*
X0104878Y0174351D01*
X0104696Y0174302D01*
X0104514Y0174249D01*
X0104334Y0174192D01*
X0104156Y0174130D01*
X0103978Y0174063D01*
X0103803Y0173993D01*
X0103629Y0173918D01*
X0103457Y0173839D01*
X0103288Y0173755D01*
X0103120Y0173668D01*
X0102954Y0173577D01*
X0102791Y0173481D01*
X0102630Y0173382D01*
X0102471Y0173279D01*
X0102315Y0173172D01*
X0102162Y0173061D01*
X0102011Y0172947D01*
X0101864Y0172829D01*
X0101719Y0172707D01*
X0101577Y0172582D01*
X0101438Y0172454D01*
X0101303Y0172322D01*
X0101170Y0172187D01*
X0101041Y0172049D01*
X0100915Y0171907D01*
X0100793Y0171763D01*
X0100674Y0171616D01*
X0100559Y0171466D01*
X0100448Y0171313D01*
X0100340Y0171157D01*
X0100236Y0170999D01*
X0100136Y0170839D01*
X0100040Y0170676D01*
X0099948Y0170511D01*
X0100031Y0170466D01*
X0100122Y0170630D01*
X0100217Y0170791D01*
X0100316Y0170949D01*
X0100418Y0171105D01*
X0100525Y0171259D01*
X0100635Y0171410D01*
X0100749Y0171558D01*
X0100866Y0171704D01*
X0100987Y0171846D01*
X0101111Y0171986D01*
X0101238Y0172122D01*
X0101369Y0172256D01*
X0101503Y0172386D01*
X0101640Y0172513D01*
X0101780Y0172636D01*
X0101923Y0172756D01*
X0102069Y0172873D01*
X0102218Y0172986D01*
X0102370Y0173095D01*
X0102524Y0173201D01*
X0102680Y0173303D01*
X0102839Y0173401D01*
X0103001Y0173495D01*
X0103164Y0173585D01*
X0103330Y0173672D01*
X0103498Y0173754D01*
X0103667Y0173832D01*
X0103839Y0173906D01*
X0104012Y0173975D01*
X0104187Y0174041D01*
X0104364Y0174102D01*
X0104542Y0174159D01*
X0104721Y0174212D01*
X0104901Y0174260D01*
X0105083Y0174304D01*
X0105266Y0174344D01*
X0105449Y0174379D01*
X0105633Y0174409D01*
X0105818Y0174435D01*
X0106004Y0174457D01*
X0106190Y0174474D01*
X0106376Y0174486D01*
X0106563Y0174494D01*
X0106750Y0174498D01*
X0106750Y0174404D01*
X0106565Y0174400D01*
X0106381Y0174392D01*
X0106197Y0174380D01*
X0106013Y0174363D01*
X0105830Y0174342D01*
X0105647Y0174316D01*
X0105465Y0174286D01*
X0105284Y0174251D01*
X0105104Y0174212D01*
X0104924Y0174169D01*
X0104746Y0174121D01*
X0104569Y0174069D01*
X0104393Y0174013D01*
X0104219Y0173953D01*
X0104046Y0173888D01*
X0103875Y0173819D01*
X0103706Y0173746D01*
X0103538Y0173669D01*
X0103372Y0173588D01*
X0103209Y0173502D01*
X0103047Y0173413D01*
X0102888Y0173320D01*
X0102731Y0173223D01*
X0102576Y0173123D01*
X0102424Y0173018D01*
X0102274Y0172910D01*
X0102127Y0172799D01*
X0101983Y0172684D01*
X0101842Y0172565D01*
X0101703Y0172443D01*
X0101568Y0172318D01*
X0101436Y0172189D01*
X0101306Y0172057D01*
X0101180Y0171923D01*
X0101058Y0171785D01*
X0100939Y0171644D01*
X0100823Y0171500D01*
X0100710Y0171354D01*
X0100602Y0171205D01*
X0100497Y0171053D01*
X0100395Y0170899D01*
X0100298Y0170742D01*
X0100204Y0170583D01*
X0100114Y0170422D01*
X0113259Y0172248D02*
X0112567Y0171671D01*
X0112568Y0171672D02*
X0112449Y0171809D01*
X0112328Y0171943D01*
X0112203Y0172074D01*
X0112075Y0172202D01*
X0111944Y0172326D01*
X0111810Y0172448D01*
X0111673Y0172567D01*
X0111534Y0172682D01*
X0111391Y0172793D01*
X0111246Y0172902D01*
X0111099Y0173007D01*
X0110949Y0173108D01*
X0110797Y0173205D01*
X0110642Y0173299D01*
X0110485Y0173390D01*
X0110326Y0173476D01*
X0110165Y0173559D01*
X0110002Y0173637D01*
X0109837Y0173712D01*
X0109671Y0173783D01*
X0109503Y0173850D01*
X0109333Y0173912D01*
X0109162Y0173971D01*
X0108989Y0174026D01*
X0108816Y0174076D01*
X0108641Y0174122D01*
X0108465Y0174164D01*
X0108288Y0174202D01*
X0108110Y0174235D01*
X0107931Y0174265D01*
X0107752Y0174290D01*
X0107572Y0174310D01*
X0107392Y0174327D01*
X0107212Y0174339D01*
X0107031Y0174346D01*
X0106850Y0174350D01*
X0106849Y0175249D01*
X0106850Y0175250D01*
X0107053Y0175246D01*
X0107255Y0175238D01*
X0107458Y0175224D01*
X0107660Y0175206D01*
X0107861Y0175183D01*
X0108062Y0175155D01*
X0108262Y0175122D01*
X0108462Y0175085D01*
X0108660Y0175043D01*
X0108858Y0174996D01*
X0109054Y0174944D01*
X0109248Y0174887D01*
X0109442Y0174826D01*
X0109634Y0174761D01*
X0109824Y0174690D01*
X0110013Y0174615D01*
X0110199Y0174536D01*
X0110384Y0174452D01*
X0110567Y0174364D01*
X0110747Y0174271D01*
X0110925Y0174175D01*
X0111101Y0174073D01*
X0111274Y0173968D01*
X0111445Y0173859D01*
X0111613Y0173745D01*
X0111779Y0173628D01*
X0111941Y0173506D01*
X0112101Y0173381D01*
X0112257Y0173252D01*
X0112410Y0173119D01*
X0112560Y0172982D01*
X0112707Y0172842D01*
X0112850Y0172699D01*
X0112990Y0172552D01*
X0113127Y0172402D01*
X0113259Y0172248D01*
X0113187Y0172188D01*
X0113056Y0172340D01*
X0112921Y0172488D01*
X0112783Y0172633D01*
X0112641Y0172775D01*
X0112496Y0172914D01*
X0112348Y0173049D01*
X0112196Y0173180D01*
X0112041Y0173308D01*
X0111884Y0173432D01*
X0111723Y0173552D01*
X0111560Y0173668D01*
X0111393Y0173780D01*
X0111225Y0173888D01*
X0111053Y0173993D01*
X0110879Y0174093D01*
X0110703Y0174188D01*
X0110525Y0174280D01*
X0110344Y0174367D01*
X0110161Y0174450D01*
X0109977Y0174529D01*
X0109791Y0174603D01*
X0109602Y0174672D01*
X0109413Y0174737D01*
X0109221Y0174797D01*
X0109029Y0174853D01*
X0108835Y0174904D01*
X0108640Y0174951D01*
X0108444Y0174993D01*
X0108247Y0175030D01*
X0108049Y0175062D01*
X0107850Y0175090D01*
X0107651Y0175113D01*
X0107451Y0175131D01*
X0107251Y0175144D01*
X0107050Y0175152D01*
X0106850Y0175156D01*
X0106850Y0175062D01*
X0107048Y0175058D01*
X0107246Y0175050D01*
X0107444Y0175037D01*
X0107642Y0175019D01*
X0107839Y0174996D01*
X0108035Y0174969D01*
X0108231Y0174937D01*
X0108425Y0174901D01*
X0108619Y0174859D01*
X0108812Y0174813D01*
X0109004Y0174763D01*
X0109194Y0174707D01*
X0109383Y0174648D01*
X0109571Y0174583D01*
X0109757Y0174515D01*
X0109941Y0174442D01*
X0110124Y0174364D01*
X0110304Y0174282D01*
X0110483Y0174196D01*
X0110659Y0174105D01*
X0110833Y0174011D01*
X0111005Y0173912D01*
X0111175Y0173809D01*
X0111342Y0173702D01*
X0111506Y0173591D01*
X0111667Y0173476D01*
X0111826Y0173357D01*
X0111982Y0173235D01*
X0112135Y0173109D01*
X0112285Y0172979D01*
X0112432Y0172845D01*
X0112575Y0172708D01*
X0112715Y0172568D01*
X0112852Y0172425D01*
X0112985Y0172278D01*
X0113115Y0172128D01*
X0113043Y0172068D01*
X0112914Y0172216D01*
X0112783Y0172361D01*
X0112648Y0172503D01*
X0112509Y0172641D01*
X0112367Y0172777D01*
X0112222Y0172909D01*
X0112074Y0173037D01*
X0111923Y0173162D01*
X0111769Y0173283D01*
X0111612Y0173400D01*
X0111452Y0173514D01*
X0111290Y0173623D01*
X0111125Y0173729D01*
X0110957Y0173831D01*
X0110787Y0173929D01*
X0110615Y0174022D01*
X0110441Y0174112D01*
X0110264Y0174197D01*
X0110086Y0174278D01*
X0109906Y0174355D01*
X0109723Y0174427D01*
X0109540Y0174495D01*
X0109354Y0174558D01*
X0109167Y0174617D01*
X0108979Y0174672D01*
X0108790Y0174722D01*
X0108599Y0174767D01*
X0108407Y0174808D01*
X0108215Y0174845D01*
X0108021Y0174876D01*
X0107827Y0174903D01*
X0107632Y0174925D01*
X0107437Y0174943D01*
X0107242Y0174956D01*
X0107046Y0174964D01*
X0106850Y0174968D01*
X0106850Y0174874D01*
X0107044Y0174870D01*
X0107237Y0174862D01*
X0107430Y0174849D01*
X0107623Y0174832D01*
X0107816Y0174810D01*
X0108008Y0174783D01*
X0108199Y0174752D01*
X0108389Y0174716D01*
X0108579Y0174676D01*
X0108767Y0174631D01*
X0108954Y0174581D01*
X0109140Y0174527D01*
X0109325Y0174469D01*
X0109508Y0174406D01*
X0109690Y0174339D01*
X0109870Y0174268D01*
X0110048Y0174192D01*
X0110225Y0174112D01*
X0110399Y0174028D01*
X0110571Y0173939D01*
X0110741Y0173847D01*
X0110909Y0173750D01*
X0111075Y0173649D01*
X0111238Y0173545D01*
X0111398Y0173437D01*
X0111556Y0173324D01*
X0111711Y0173208D01*
X0111864Y0173089D01*
X0112013Y0172965D01*
X0112160Y0172839D01*
X0112303Y0172708D01*
X0112443Y0172575D01*
X0112580Y0172438D01*
X0112713Y0172297D01*
X0112844Y0172154D01*
X0112970Y0172007D01*
X0112898Y0171947D01*
X0112773Y0172092D01*
X0112644Y0172234D01*
X0112512Y0172372D01*
X0112377Y0172508D01*
X0112238Y0172640D01*
X0112097Y0172769D01*
X0111952Y0172894D01*
X0111805Y0173016D01*
X0111654Y0173134D01*
X0111501Y0173249D01*
X0111345Y0173359D01*
X0111186Y0173467D01*
X0111025Y0173570D01*
X0110861Y0173669D01*
X0110695Y0173765D01*
X0110527Y0173856D01*
X0110357Y0173943D01*
X0110185Y0174027D01*
X0110010Y0174106D01*
X0109834Y0174181D01*
X0109656Y0174251D01*
X0109477Y0174318D01*
X0109296Y0174380D01*
X0109113Y0174437D01*
X0108929Y0174491D01*
X0108744Y0174540D01*
X0108558Y0174584D01*
X0108371Y0174624D01*
X0108183Y0174659D01*
X0107994Y0174690D01*
X0107804Y0174717D01*
X0107614Y0174738D01*
X0107424Y0174756D01*
X0107233Y0174768D01*
X0107041Y0174776D01*
X0106850Y0174780D01*
X0106850Y0174686D01*
X0107039Y0174682D01*
X0107228Y0174674D01*
X0107417Y0174662D01*
X0107605Y0174645D01*
X0107793Y0174623D01*
X0107980Y0174597D01*
X0108167Y0174567D01*
X0108353Y0174532D01*
X0108538Y0174492D01*
X0108722Y0174448D01*
X0108904Y0174400D01*
X0109086Y0174347D01*
X0109266Y0174290D01*
X0109445Y0174229D01*
X0109623Y0174163D01*
X0109799Y0174094D01*
X0109973Y0174020D01*
X0110145Y0173942D01*
X0110315Y0173859D01*
X0110483Y0173773D01*
X0110649Y0173683D01*
X0110813Y0173588D01*
X0110975Y0173490D01*
X0111134Y0173388D01*
X0111291Y0173282D01*
X0111445Y0173173D01*
X0111597Y0173059D01*
X0111745Y0172943D01*
X0111891Y0172822D01*
X0112034Y0172699D01*
X0112174Y0172571D01*
X0112311Y0172441D01*
X0112445Y0172307D01*
X0112575Y0172170D01*
X0112702Y0172030D01*
X0112826Y0171887D01*
X0112754Y0171827D01*
X0112631Y0171968D01*
X0112506Y0172106D01*
X0112377Y0172242D01*
X0112245Y0172374D01*
X0112110Y0172503D01*
X0111971Y0172628D01*
X0111830Y0172751D01*
X0111686Y0172870D01*
X0111539Y0172985D01*
X0111390Y0173097D01*
X0111237Y0173205D01*
X0111082Y0173310D01*
X0110925Y0173410D01*
X0110765Y0173507D01*
X0110604Y0173601D01*
X0110439Y0173690D01*
X0110273Y0173775D01*
X0110105Y0173856D01*
X0109935Y0173934D01*
X0109763Y0174007D01*
X0109589Y0174076D01*
X0109414Y0174140D01*
X0109237Y0174201D01*
X0109059Y0174257D01*
X0108880Y0174309D01*
X0108699Y0174357D01*
X0108517Y0174400D01*
X0108335Y0174439D01*
X0108151Y0174474D01*
X0107967Y0174504D01*
X0107782Y0174530D01*
X0107596Y0174551D01*
X0107410Y0174568D01*
X0107223Y0174580D01*
X0107037Y0174588D01*
X0106850Y0174592D01*
X0106850Y0174498D01*
X0107034Y0174494D01*
X0107219Y0174487D01*
X0107403Y0174474D01*
X0107587Y0174458D01*
X0107770Y0174437D01*
X0107953Y0174411D01*
X0108135Y0174381D01*
X0108316Y0174347D01*
X0108497Y0174309D01*
X0108676Y0174266D01*
X0108855Y0174219D01*
X0109032Y0174167D01*
X0109208Y0174112D01*
X0109383Y0174052D01*
X0109556Y0173988D01*
X0109727Y0173920D01*
X0109897Y0173848D01*
X0110065Y0173771D01*
X0110231Y0173691D01*
X0110395Y0173607D01*
X0110558Y0173519D01*
X0110718Y0173427D01*
X0110875Y0173331D01*
X0111031Y0173231D01*
X0111184Y0173128D01*
X0111334Y0173021D01*
X0111482Y0172911D01*
X0111627Y0172797D01*
X0111769Y0172679D01*
X0111909Y0172558D01*
X0112045Y0172434D01*
X0112179Y0172307D01*
X0112309Y0172176D01*
X0112437Y0172043D01*
X0112561Y0171906D01*
X0112681Y0171767D01*
X0112609Y0171706D01*
X0112490Y0171844D01*
X0112367Y0171979D01*
X0112242Y0172111D01*
X0112113Y0172240D01*
X0111981Y0172366D01*
X0111846Y0172488D01*
X0111708Y0172608D01*
X0111568Y0172724D01*
X0111424Y0172836D01*
X0111278Y0172945D01*
X0111130Y0173051D01*
X0110979Y0173153D01*
X0110825Y0173251D01*
X0110670Y0173346D01*
X0110512Y0173437D01*
X0110351Y0173524D01*
X0110189Y0173607D01*
X0110025Y0173686D01*
X0109859Y0173761D01*
X0109691Y0173833D01*
X0109522Y0173900D01*
X0109351Y0173963D01*
X0109179Y0174022D01*
X0109005Y0174077D01*
X0108830Y0174128D01*
X0108654Y0174175D01*
X0108476Y0174217D01*
X0108298Y0174255D01*
X0108119Y0174289D01*
X0107939Y0174318D01*
X0107759Y0174343D01*
X0107578Y0174364D01*
X0107396Y0174381D01*
X0107214Y0174393D01*
X0107032Y0174400D01*
X0106850Y0174404D01*
X0106849Y0158351D02*
X0106849Y0159251D01*
X0106850Y0159250D02*
X0107034Y0159254D01*
X0107219Y0159262D01*
X0107403Y0159274D01*
X0107586Y0159291D01*
X0107770Y0159313D01*
X0107952Y0159338D01*
X0108134Y0159369D01*
X0108315Y0159404D01*
X0108496Y0159443D01*
X0108675Y0159487D01*
X0108853Y0159535D01*
X0109030Y0159587D01*
X0109206Y0159644D01*
X0109380Y0159704D01*
X0109552Y0159770D01*
X0109723Y0159839D01*
X0109893Y0159912D01*
X0110060Y0159990D01*
X0110225Y0160072D01*
X0110389Y0160157D01*
X0110550Y0160247D01*
X0110709Y0160341D01*
X0110866Y0160438D01*
X0111020Y0160539D01*
X0111172Y0160644D01*
X0111321Y0160753D01*
X0111467Y0160865D01*
X0111611Y0160981D01*
X0111751Y0161100D01*
X0111889Y0161223D01*
X0112024Y0161349D01*
X0112156Y0161478D01*
X0112284Y0161611D01*
X0112409Y0161746D01*
X0112531Y0161885D01*
X0113218Y0161304D01*
X0113082Y0161148D01*
X0112941Y0160996D01*
X0112797Y0160847D01*
X0112650Y0160702D01*
X0112499Y0160561D01*
X0112345Y0160424D01*
X0112187Y0160290D01*
X0112026Y0160160D01*
X0111862Y0160034D01*
X0111695Y0159912D01*
X0111525Y0159794D01*
X0111352Y0159681D01*
X0111176Y0159572D01*
X0110998Y0159467D01*
X0110817Y0159366D01*
X0110634Y0159270D01*
X0110449Y0159178D01*
X0110261Y0159091D01*
X0110071Y0159009D01*
X0109880Y0158931D01*
X0109686Y0158858D01*
X0109491Y0158790D01*
X0109294Y0158726D01*
X0109096Y0158668D01*
X0108896Y0158614D01*
X0108695Y0158565D01*
X0108493Y0158521D01*
X0108290Y0158482D01*
X0108086Y0158448D01*
X0107881Y0158419D01*
X0107676Y0158395D01*
X0107470Y0158377D01*
X0107263Y0158363D01*
X0107057Y0158354D01*
X0106850Y0158350D01*
X0106850Y0158444D01*
X0107054Y0158448D01*
X0107259Y0158457D01*
X0107463Y0158470D01*
X0107666Y0158489D01*
X0107869Y0158513D01*
X0108072Y0158541D01*
X0108274Y0158575D01*
X0108474Y0158613D01*
X0108674Y0158657D01*
X0108873Y0158705D01*
X0109070Y0158758D01*
X0109267Y0158816D01*
X0109461Y0158879D01*
X0109654Y0158947D01*
X0109846Y0159019D01*
X0110035Y0159096D01*
X0110223Y0159177D01*
X0110408Y0159263D01*
X0110591Y0159354D01*
X0110773Y0159449D01*
X0110951Y0159548D01*
X0111127Y0159652D01*
X0111301Y0159760D01*
X0111472Y0159872D01*
X0111640Y0159989D01*
X0111805Y0160109D01*
X0111968Y0160234D01*
X0112127Y0160362D01*
X0112283Y0160494D01*
X0112435Y0160630D01*
X0112585Y0160770D01*
X0112730Y0160913D01*
X0112873Y0161060D01*
X0113011Y0161211D01*
X0113146Y0161364D01*
X0113075Y0161425D01*
X0112941Y0161273D01*
X0112804Y0161124D01*
X0112663Y0160979D01*
X0112519Y0160838D01*
X0112372Y0160699D01*
X0112221Y0160565D01*
X0112067Y0160434D01*
X0111909Y0160307D01*
X0111749Y0160184D01*
X0111585Y0160065D01*
X0111419Y0159950D01*
X0111250Y0159839D01*
X0111079Y0159732D01*
X0110904Y0159630D01*
X0110728Y0159531D01*
X0110549Y0159437D01*
X0110367Y0159348D01*
X0110184Y0159263D01*
X0109999Y0159182D01*
X0109811Y0159106D01*
X0109622Y0159035D01*
X0109431Y0158968D01*
X0109239Y0158906D01*
X0109045Y0158849D01*
X0108850Y0158796D01*
X0108653Y0158749D01*
X0108456Y0158706D01*
X0108257Y0158668D01*
X0108058Y0158634D01*
X0107858Y0158606D01*
X0107657Y0158583D01*
X0107456Y0158564D01*
X0107254Y0158550D01*
X0107052Y0158542D01*
X0106850Y0158538D01*
X0106850Y0158632D01*
X0107050Y0158636D01*
X0107249Y0158644D01*
X0107449Y0158658D01*
X0107648Y0158676D01*
X0107846Y0158699D01*
X0108044Y0158727D01*
X0108241Y0158760D01*
X0108437Y0158798D01*
X0108633Y0158840D01*
X0108827Y0158887D01*
X0109020Y0158939D01*
X0109211Y0158996D01*
X0109402Y0159057D01*
X0109590Y0159123D01*
X0109777Y0159194D01*
X0109962Y0159269D01*
X0110146Y0159349D01*
X0110327Y0159433D01*
X0110506Y0159521D01*
X0110683Y0159614D01*
X0110858Y0159711D01*
X0111030Y0159813D01*
X0111199Y0159918D01*
X0111367Y0160028D01*
X0111531Y0160142D01*
X0111692Y0160259D01*
X0111851Y0160381D01*
X0112006Y0160506D01*
X0112159Y0160636D01*
X0112308Y0160769D01*
X0112454Y0160905D01*
X0112596Y0161045D01*
X0112735Y0161189D01*
X0112871Y0161336D01*
X0113003Y0161486D01*
X0112931Y0161546D01*
X0112801Y0161398D01*
X0112667Y0161253D01*
X0112529Y0161111D01*
X0112388Y0160973D01*
X0112244Y0160838D01*
X0112097Y0160706D01*
X0111946Y0160579D01*
X0111792Y0160455D01*
X0111636Y0160334D01*
X0111476Y0160218D01*
X0111314Y0160106D01*
X0111149Y0159997D01*
X0110981Y0159893D01*
X0110811Y0159793D01*
X0110638Y0159697D01*
X0110463Y0159605D01*
X0110286Y0159517D01*
X0110107Y0159434D01*
X0109926Y0159356D01*
X0109743Y0159281D01*
X0109558Y0159212D01*
X0109372Y0159147D01*
X0109184Y0159086D01*
X0108994Y0159030D01*
X0108804Y0158979D01*
X0108612Y0158932D01*
X0108419Y0158890D01*
X0108225Y0158853D01*
X0108030Y0158820D01*
X0107834Y0158793D01*
X0107638Y0158770D01*
X0107442Y0158752D01*
X0107245Y0158738D01*
X0107047Y0158730D01*
X0106850Y0158726D01*
X0106850Y0158820D01*
X0107045Y0158824D01*
X0107240Y0158832D01*
X0107435Y0158845D01*
X0107629Y0158863D01*
X0107823Y0158886D01*
X0108016Y0158913D01*
X0108209Y0158945D01*
X0108400Y0158982D01*
X0108591Y0159024D01*
X0108781Y0159070D01*
X0108969Y0159120D01*
X0109156Y0159176D01*
X0109342Y0159236D01*
X0109526Y0159300D01*
X0109709Y0159369D01*
X0109890Y0159442D01*
X0110069Y0159520D01*
X0110246Y0159602D01*
X0110421Y0159689D01*
X0110593Y0159779D01*
X0110764Y0159874D01*
X0110932Y0159973D01*
X0111098Y0160076D01*
X0111261Y0160183D01*
X0111422Y0160294D01*
X0111579Y0160409D01*
X0111734Y0160528D01*
X0111886Y0160651D01*
X0112035Y0160777D01*
X0112181Y0160907D01*
X0112323Y0161040D01*
X0112462Y0161177D01*
X0112598Y0161317D01*
X0112730Y0161461D01*
X0112859Y0161607D01*
X0112787Y0161668D01*
X0112660Y0161523D01*
X0112529Y0161381D01*
X0112395Y0161243D01*
X0112258Y0161108D01*
X0112117Y0160976D01*
X0111973Y0160848D01*
X0111826Y0160723D01*
X0111676Y0160602D01*
X0111523Y0160485D01*
X0111367Y0160371D01*
X0111208Y0160261D01*
X0111047Y0160155D01*
X0110883Y0160054D01*
X0110717Y0159956D01*
X0110549Y0159862D01*
X0110378Y0159772D01*
X0110205Y0159687D01*
X0110030Y0159606D01*
X0109853Y0159529D01*
X0109675Y0159457D01*
X0109494Y0159388D01*
X0109312Y0159325D01*
X0109129Y0159266D01*
X0108944Y0159211D01*
X0108758Y0159161D01*
X0108570Y0159115D01*
X0108382Y0159074D01*
X0108192Y0159038D01*
X0108002Y0159006D01*
X0107811Y0158979D01*
X0107620Y0158957D01*
X0107428Y0158939D01*
X0107235Y0158926D01*
X0107043Y0158918D01*
X0106850Y0158914D01*
X0106850Y0159008D01*
X0107040Y0159012D01*
X0107231Y0159020D01*
X0107421Y0159033D01*
X0107610Y0159050D01*
X0107800Y0159072D01*
X0107988Y0159099D01*
X0108176Y0159130D01*
X0108363Y0159166D01*
X0108549Y0159207D01*
X0108734Y0159252D01*
X0108918Y0159301D01*
X0109101Y0159356D01*
X0109282Y0159414D01*
X0109462Y0159477D01*
X0109640Y0159544D01*
X0109817Y0159616D01*
X0109992Y0159692D01*
X0110164Y0159772D01*
X0110335Y0159856D01*
X0110504Y0159945D01*
X0110670Y0160037D01*
X0110835Y0160134D01*
X0110996Y0160234D01*
X0111156Y0160339D01*
X0111312Y0160447D01*
X0111466Y0160560D01*
X0111617Y0160676D01*
X0111766Y0160795D01*
X0111911Y0160918D01*
X0112053Y0161045D01*
X0112192Y0161175D01*
X0112328Y0161309D01*
X0112461Y0161445D01*
X0112590Y0161585D01*
X0112716Y0161729D01*
X0112644Y0161789D01*
X0112520Y0161648D01*
X0112392Y0161510D01*
X0112261Y0161375D01*
X0112127Y0161243D01*
X0111990Y0161114D01*
X0111849Y0160989D01*
X0111705Y0160867D01*
X0111559Y0160749D01*
X0111410Y0160635D01*
X0111258Y0160524D01*
X0111103Y0160417D01*
X0110946Y0160314D01*
X0110786Y0160214D01*
X0110624Y0160119D01*
X0110459Y0160027D01*
X0110293Y0159940D01*
X0110124Y0159857D01*
X0109953Y0159777D01*
X0109781Y0159702D01*
X0109606Y0159632D01*
X0109430Y0159565D01*
X0109253Y0159503D01*
X0109073Y0159445D01*
X0108893Y0159392D01*
X0108711Y0159343D01*
X0108529Y0159299D01*
X0108345Y0159259D01*
X0108160Y0159223D01*
X0107974Y0159192D01*
X0107788Y0159166D01*
X0107601Y0159144D01*
X0107414Y0159127D01*
X0107226Y0159114D01*
X0107038Y0159106D01*
X0106850Y0159102D01*
X0106850Y0159196D01*
X0107036Y0159200D01*
X0107221Y0159208D01*
X0107407Y0159220D01*
X0107592Y0159237D01*
X0107776Y0159259D01*
X0107960Y0159285D01*
X0108144Y0159316D01*
X0108326Y0159351D01*
X0108508Y0159390D01*
X0108688Y0159434D01*
X0108868Y0159483D01*
X0109046Y0159535D01*
X0109223Y0159592D01*
X0109398Y0159654D01*
X0109572Y0159719D01*
X0109744Y0159789D01*
X0109915Y0159863D01*
X0110083Y0159941D01*
X0110250Y0160024D01*
X0110414Y0160110D01*
X0110577Y0160200D01*
X0110737Y0160295D01*
X0110895Y0160393D01*
X0111050Y0160495D01*
X0111203Y0160600D01*
X0111353Y0160710D01*
X0111501Y0160823D01*
X0111645Y0160940D01*
X0111787Y0161060D01*
X0111926Y0161183D01*
X0112062Y0161310D01*
X0112194Y0161440D01*
X0112323Y0161574D01*
X0112450Y0161710D01*
X0112572Y0161850D01*
D15*
X0107300Y0146800D02*
X0106300Y0146800D01*
X0062300Y0146800D02*
X0061300Y0146800D01*
X0057300Y0176800D02*
X0056300Y0176800D01*
X0022300Y0146800D02*
X0021300Y0146800D01*
M02*
