%
M48
M72
T01C0.02400
T02C0.03150
T03C0.03200
T04C0.07874
%
T01
X16800Y16800
X106800Y66800
X121800Y91800
X121800Y116800
X126800Y186800
X16800Y186800
X126800Y16800
T02
X51800Y51800
T03
X76800Y91800
X86800Y91800
X61800Y101800
X51800Y101800
X41800Y101800
X31800Y101800
X31800Y131800
X41800Y131800
X51800Y131800
X61800Y131800
X56800Y146800
X66800Y146800
X86800Y126800
X96800Y126800
X101800Y146800
X111800Y146800
X111800Y166800
X101800Y166800
X61800Y176800
X51800Y176800
X36800Y166800
X26800Y166800
X26800Y146800
X16800Y146800
T04
X25800Y51800
X77800Y51800
M30
